<?xml version="1.0" encoding="utf-8"?>
<!-- Generator: Adobe Illustrator 22.0.0, SVG Export Plug-In . SVG Version: 6.00 Build 0)  -->
<svg version="1.1" xmlns="http://www.w3.org/2000/svg" xmlns:xlink="http://www.w3.org/1999/xlink" x="0px" y="0px"
	 viewBox="0 0 22.1 21.8" style="enable-background:new 0 0 22.1 21.8;" xml:space="preserve">
<style type="text/css">
	.st0{fill:#FFFFFF;}
	.st1{fill:#FFCC2A;}
</style>
<g id="BACKGROUND">
</g>
<g id="OBJECTS">
</g>
<g id="DESIGNED_BY_FREEPIK">
	<path class="st0" d="M20,15.9c-1.7-1.5-3.4-3.7-3.4-9C16.6,3.6,14,1,10.8,1C7.6,1,5,3.6,5,6.8c0,5.4-1.6,7.5-3.4,9
		c-0.5,0.5-0.8,1.1-0.8,1.8c0,0.4,0.4,0.8,0.8,0.8h6C8,20,9.3,21,10.8,21c1.5,0,2.8-1.1,3.2-2.5h6c0.4,0,0.8-0.4,0.8-0.8
		C20.8,17,20.5,16.3,20,15.9z M12.3,18.5c-0.3,0.6-0.9,0.9-1.5,0.9c-0.6,0-1.2-0.4-1.5-0.9H12.3z M18.7,16.9H2.9
		c2.6-2.4,3.7-5.4,3.7-10.1c0-2.3,1.9-4.3,4.2-4.3c2.3,0,4.2,1.9,4.2,4.3C15,11.5,16.2,14.5,18.7,16.9z"/>
</g>
</svg>
