<?xml version="1.0" encoding="utf-8"?>
<!-- Generator: Adobe Illustrator 22.0.0, SVG Export Plug-In . SVG Version: 6.00 Build 0)  -->
<svg version="1.1" xmlns="http://www.w3.org/2000/svg" xmlns:xlink="http://www.w3.org/1999/xlink" x="0px" y="0px"
	 viewBox="0 0 20.6 20.4" style="enable-background:new 0 0 20.6 20.4;" xml:space="preserve">
<style type="text/css">
	.st0{fill:#26282A;}
</style>
<g id="BACKGROUND">
</g>
<g id="OBJECTS">
</g>
<g id="DESIGNED_BY_FREEPIK">
	<path class="st0" d="M19.2,1.2c-0.7-0.7-1.6-1.1-2.6-1.1l-12.6,0C2,0.1,0.3,1.8,0.3,3.8v12.6c0,2.1,1.7,3.7,3.7,3.7h12.6
		c2.1,0,3.7-1.7,3.7-3.7V3.8C20.3,2.9,19.9,1.9,19.2,1.2z M6.8,8.6c0.2-0.2,0.6-0.2,0.8,0l2.1,2.1l0-6.3c0-0.3,0.3-0.6,0.6-0.6
		c0.3,0,0.6,0.3,0.6,0.6v6.3L13,8.6c0.2-0.2,0.6-0.2,0.8,0c0.2,0.2,0.2,0.6,0,0.8l-3.1,3.1c-0.1,0.1-0.3,0.2-0.4,0.2
		c-0.2,0-0.3-0.1-0.4-0.2L6.8,9.4C6.6,9.2,6.6,8.8,6.8,8.6z M16,16.4H4.7c-0.3,0-0.6-0.3-0.6-0.6c0-0.3,0.3-0.6,0.6-0.6H16
		c0.3,0,0.6,0.3,0.6,0.6C16.6,16.1,16.3,16.4,16,16.4z"/>
</g>
</svg>
