<?xml version="1.0" encoding="utf-8"?>
<!-- Generator: Adobe Illustrator 22.0.0, SVG Export Plug-In . SVG Version: 6.00 Build 0)  -->
<svg version="1.1" xmlns="http://www.w3.org/2000/svg" xmlns:xlink="http://www.w3.org/1999/xlink" x="0px" y="0px"
	 viewBox="0 0 31.5 31.6" style="enable-background:new 0 0 31.5 31.6;" xml:space="preserve">
<style type="text/css">
	.st0{fill:#FFFFFF;}
</style>
<g id="BACKGROUND">
</g>
<g id="OBJECTS">
	<g>
		<g>
			<path class="st0" d="M17.6,1.4h-4.4v5.2h4.4V1.4z M17.6,8.7h-4.4v2.7h4.4V8.7z M29.1,17.1V8.7h-9.4v3.7c0,0.6-0.5,1-1,1h-6.4
				c-0.6,0-1-0.5-1-1V8.7H2v9.6c0.6,0.1,1.2,0.4,1.7,0.9L7,22.9c0,0,0,0,0,0v-0.7c0-1.5,1.3-2.8,2.8-2.8h4.7c0.6,0.1,2.1-0.8,2.6-1
				c2.3-1,4.8-1,7,0.1l1.3,0.7c0.4-1.2,1.5-2.1,2.7-2.1H29.1z M29.1,2.8c0-0.8-0.5-1.4-1.2-1.4h-8.2v5.2h9.4V2.8z M29.9,19.1h-1.6
				c-0.5,0-0.9,0.5-0.9,1v9c0,0.6,0.4,1,0.9,1h1.6c0.5,0,0.9-0.5,0.9-1v-9C30.7,19.5,30.3,19.1,29.9,19.1z M11.3,1.4H2.9
				C2.4,1.4,2,2,2,2.6v4.1h9.3V1.4z M18,20.2L16.2,21c-0.5,0.2-1.1,0.4-1.7,0.4H9.8c-0.4,0-0.8,0.4-0.8,0.8v1.5h9.1c0.6,0,1,0.5,1,1
				c0,0.6-0.5,1-1,1H8.9c-1.2,0-2.5-0.5-3.4-1.5l-3.3-3.6c-0.9-0.9-2.4,0.3-1.6,1.3l4.6,5.5c1.5,1.9,3.8,2.9,6.3,2.9h5.2
				c1.9,0,3.8-0.2,5.7-0.7l3.1-0.7v-7.7l-2.1-1.1C21.6,19.4,19.7,19.4,18,20.2z"/>
		</g>
	</g>
</g>
</svg>
