<?xml version="1.0" encoding="utf-8"?>
<!-- Generator: Adobe Illustrator 22.0.0, SVG Export Plug-In . SVG Version: 6.00 Build 0)  -->
<svg version="1.1" xmlns="http://www.w3.org/2000/svg" xmlns:xlink="http://www.w3.org/1999/xlink" x="0px" y="0px"
	 viewBox="0 0 35.8 30" style="enable-background:new 0 0 35.8 30;" xml:space="preserve">
<style type="text/css">
	.st0{fill:#FFFFFF;}
</style>
<g id="BACKGROUND">
</g>
<g id="OBJECTS">
	<g>
		<g>
			<path class="st0" d="M11.4,12.1H5.6c-0.5,0-1,0.4-1,1v14.5c0,0.5,0.4,1,1,1h5.8c0.5,0,1-0.4,1-1V13.1
				C12.3,12.6,11.9,12.1,11.4,12.1z M21,1.5h-5.8c-0.5,0-1,0.4-1,1v25.1c0,0.5,0.4,1,1,1H21c0.5,0,1-0.4,1-1V2.5
				C22,1.9,21.5,1.5,21,1.5z M30.7,9.2h-5.8c-0.5,0-1,0.4-1,1v17.4c0,0.5,0.4,1,1,1h5.8c0.5,0,1-0.4,1-1V10.2
				C31.6,9.7,31.2,9.2,30.7,9.2z"/>
		</g>
	</g>
</g>
</svg>
