<?xml version="1.0" encoding="utf-8"?>
<!-- Generator: Adobe Illustrator 22.0.0, SVG Export Plug-In . SVG Version: 6.00 Build 0)  -->
<svg version="1.1" xmlns="http://www.w3.org/2000/svg" xmlns:xlink="http://www.w3.org/1999/xlink" x="0px" y="0px"
	 viewBox="0 0 31.5 31.6" style="enable-background:new 0 0 31.5 31.6;" xml:space="preserve">
<style type="text/css">
	.st0{fill:#FFFFFF;}
</style>
<g id="BACKGROUND">
</g>
<g id="OBJECTS">
	<path class="st0" d="M26.4,5.2c-2.8-2.8-6.6-4.4-10.6-4.4c-4,0-7.8,1.6-10.6,4.4c-2.8,2.8-4.4,6.6-4.4,10.6c0,4,1.6,7.8,4.4,10.6
		c2.8,2.8,6.6,4.4,10.6,4.4c4,0,7.8-1.6,10.6-4.4c2.8-2.8,4.4-6.6,4.4-10.6C30.8,11.8,29.3,8.1,26.4,5.2L26.4,5.2z M15.8,14.9
		c2.3,0,4.2,1.9,4.2,4.2c0,1.9-1.3,3.6-3.1,4.1c-0.1,0-0.2,0.2-0.2,0.3v0.8c0,0.5-0.4,0.9-0.9,1c-0.5,0-1-0.4-1-0.9v-0.8
		c0-0.1-0.1-0.2-0.2-0.3c-1.8-0.5-3.1-2.1-3.1-4c0-0.5,0.4-0.9,0.9-1c0.5,0,1,0.4,1,0.9c0,1.3,1.1,2.4,2.5,2.3
		c1.2-0.1,2.1-1,2.2-2.2c0.1-1.4-1-2.5-2.3-2.5c-2.3,0-4.2-1.9-4.2-4.2c0-1.9,1.3-3.6,3.1-4.1c0.1,0,0.2-0.2,0.2-0.3V7.4
		c0-0.5,0.4-0.9,0.9-1c0.5,0,1,0.4,1,0.9v0.8c0,0.1,0.1,0.2,0.2,0.3c1.8,0.5,3.1,2.1,3.1,4c0,0.5-0.4,0.9-0.9,1c-0.5,0-1-0.4-1-0.9
		c0-1.3-1.1-2.4-2.5-2.3c-1.2,0.1-2.1,1-2.2,2.2C13.4,13.8,14.5,14.9,15.8,14.9L15.8,14.9z"/>
</g>
</svg>
