<?xml version="1.0" encoding="utf-8"?>
<!-- Generator: Adobe Illustrator 22.0.0, SVG Export Plug-In . SVG Version: 6.00 Build 0)  -->
<svg version="1.1" xmlns="http://www.w3.org/2000/svg" xmlns:xlink="http://www.w3.org/1999/xlink" x="0px" y="0px"
	 viewBox="0 0 35.8 30" style="enable-background:new 0 0 35.8 30;" xml:space="preserve">
<style type="text/css">
	.st0{fill:#FFFFFF;}
</style>
<g id="BACKGROUND">
</g>
<g id="OBJECTS">
	<g>
		<g>
			<path class="st0" d="M10.8,13.1c-0.5,0-1,0.6-1,1.3c0,0.7,0.5,1.3,1,1.3c0.5,0,1-0.6,1-1.3C11.8,13.7,11.4,13.1,10.8,13.1z
				 M19.6,20c-0.5,0-1,0.6-1,1.3c0,0.7,0.5,1.3,1,1.3s1-0.6,1-1.3C20.6,20.6,20.1,20,19.6,20z M16.2,1.3c-1-0.4-2.2-0.2-3,0.6
				L5.1,9.4c-0.9,0.8-1.4,2.1-1.4,3.3v13.3c0,1.6,1.3,2.9,2.8,2.9h17.4c1.6,0,2.8-1.3,2.8-2.9V12.7c0-1.3-0.5-2.5-1.4-3.3
				C16.5,1.3,16.9,1.6,16.2,1.3z M15.4,5.8c0.5,0.1,0.8,0.6,0.7,1c-0.1,0.5-0.5,0.8-1,0.7c-0.5-0.1-0.7-0.5-0.7-0.9
				C14.4,6.1,14.8,5.7,15.4,5.8z M8.1,14.4c0-1.7,1.2-3.1,2.7-3.1c1.5,0,2.7,1.4,2.7,3.1c0,1.7-1.2,3.1-2.7,3.1
				C9.3,17.5,8.1,16.1,8.1,14.4z M13.1,23.7c-0.6,0-1-0.6-0.8-1.2l4.2-10.1c0.2-0.4,0.7-0.7,1.1-0.5c0.4,0.2,0.7,0.7,0.5,1.1
				l-4.2,10.1C13.7,23.5,13.4,23.7,13.1,23.7z M19.6,24.4c-1.5,0-2.7-1.4-2.7-3.1c0-1.7,1.2-3.1,2.7-3.1s2.7,1.4,2.7,3.1
				C22.3,23,21.1,24.4,19.6,24.4z M33.1,19c-2.8-8.3-4.4-12.9-4.4-12.9c-0.5-1.1-1.4-2-2.6-2.4c-0.1,0,0.3,0.1-6-1.4l6.4,5.9
				c1.3,1.2,2,2.9,2,4.6v11.3l3.1-1.3C33,22.1,33.6,20.4,33.1,19z"/>
		</g>
	</g>
</g>
</svg>
