<?xml version="1.0" encoding="utf-8"?>
<!-- Generator: Adobe Illustrator 22.0.0, SVG Export Plug-In . SVG Version: 6.00 Build 0)  -->
<svg version="1.1" xmlns="http://www.w3.org/2000/svg" xmlns:xlink="http://www.w3.org/1999/xlink" x="0px" y="0px"
	 viewBox="0 0 31.5 30" style="enable-background:new 0 0 31.5 30;" xml:space="preserve">
<style type="text/css">
	.st0{fill:#FFFFFF;}
</style>
<g id="BACKGROUND">
</g>
<g id="OBJECTS">
	<path class="st0" d="M30.3,15.9c-1.6-5.1-6.7-8.6-12.8-8.8v-6c0-0.3-0.2-0.5-0.5-0.5c-0.1,0-0.2,0-0.3,0.1L1,11.9
		c-0.2,0.2-0.3,0.5-0.1,0.7c0,0,0.1,0.1,0.1,0.1l15.6,11.1c0.2,0.2,0.6,0.1,0.7-0.1c0.1-0.1,0.1-0.2,0.1-0.3v-6c3.8,0,7,1.8,8.1,4.4
		c0.9,2.3,0.2,4.8-2.1,6.8c-0.2,0.2-0.2,0.5,0,0.7c0.1,0.1,0.2,0.2,0.4,0.2h0.4c0.1,0,0.2,0,0.3-0.1C29.7,26.1,31.9,20.9,30.3,15.9z
		"/>
</g>
</svg>
