<?xml version="1.0" encoding="utf-8"?>
<!-- Generator: Adobe Illustrator 22.0.0, SVG Export Plug-In . SVG Version: 6.00 Build 0)  -->
<svg version="1.1" xmlns="http://www.w3.org/2000/svg" xmlns:xlink="http://www.w3.org/1999/xlink" x="0px" y="0px"
	 viewBox="0 0 31.5 30" style="enable-background:new 0 0 31.5 30;" xml:space="preserve">
<style type="text/css">
	.st0{fill:#FFFFFF;}
</style>
<g id="BACKGROUND">
</g>
<g id="OBJECTS">
	<g>
		<g>
			<path class="st0" d="M9.9,14.9c-0.3,0-0.6,0.3-0.6,0.6c0,0.3,0.3,0.6,0.6,0.6c0.3,0,0.6-0.3,0.6-0.6
				C10.6,15.2,10.3,14.9,9.9,14.9z M27.5,0.4h-7.9c-1.5,0-2.9,0.6-4,1.6L1.6,15.4c-1.4,1.4-1.4,3.6,0,5l8.2,8c1.4,1.4,3.7,1.4,5.2,0
				l13.9-13.4c1.1-1,1.6-2.4,1.6-3.8V3.4C30.6,1.7,29.2,0.4,27.5,0.4z M9.9,17.3c-1,0-1.9-0.8-1.9-1.8c0-1,0.8-1.8,1.9-1.8
				c1,0,1.9,0.8,1.9,1.8C11.8,16.5,11,17.3,9.9,17.3z M14.3,21.5c0,0.3-0.3,0.6-0.6,0.6c-0.3,0-0.6-0.3-0.6-0.6v-9.7
				c0-0.3,0.3-0.6,0.6-0.6c0.3,0,0.6,0.3,0.6,0.6V21.5z M17.5,19.7c-1,0-1.9-0.8-1.9-1.8c0-1,0.8-1.8,1.9-1.8c1,0,1.9,0.8,1.9,1.8
				C19.3,18.9,18.5,19.7,17.5,19.7z M23.7,10c-1.7,0-3.1-1.4-3.1-3s1.4-3,3.1-3c1.7,0,3.1,1.4,3.1,3C26.8,8.7,25.4,10,23.7,10z
				 M17.5,17.3c-0.3,0-0.6,0.3-0.6,0.6c0,0.3,0.3,0.6,0.6,0.6c0.3,0,0.6-0.3,0.6-0.6C18.1,17.6,17.8,17.3,17.5,17.3z"/>
		</g>
	</g>
</g>
</svg>
