<?xml version="1.0" encoding="utf-8"?>
<!-- Generator: Adobe Illustrator 22.0.0, SVG Export Plug-In . SVG Version: 6.00 Build 0)  -->
<svg version="1.1" xmlns="http://www.w3.org/2000/svg" xmlns:xlink="http://www.w3.org/1999/xlink" x="0px" y="0px"
	 viewBox="0 0 31.5 30" style="enable-background:new 0 0 31.5 30;" xml:space="preserve">
<style type="text/css">
	.st0{fill:#FFFFFF;}
</style>
<g id="BACKGROUND">
</g>
<g id="OBJECTS">
	<path class="st0" d="M30.3,13.1L31,13V6.3h-8.2v3.2h-1.8V6.3H1V13l0.7,0.1C3.1,13.3,4,14.4,4,15.8c0,1.3-0.9,2.4-2.2,2.6L1,18.5
		v6.7h20V22h1.8v3.2H31v-6.7l-0.7-0.1c-1.3-0.2-2.2-1.3-2.2-2.6C28.1,14.4,29,13.3,30.3,13.1z M22.8,20.2h-1.8v-3.6h1.8V20.2z
		 M22.8,14.8h-1.8v-3.6h1.8V14.8z"/>
</g>
</svg>
