<?xml version="1.0" encoding="utf-8"?>
<!-- Generator: Adobe Illustrator 22.0.0, SVG Export Plug-In . SVG Version: 6.00 Build 0)  -->
<svg version="1.1" xmlns="http://www.w3.org/2000/svg" xmlns:xlink="http://www.w3.org/1999/xlink" x="0px" y="0px"
	 viewBox="0 0 31.5 31.6" style="enable-background:new 0 0 31.5 31.6;" xml:space="preserve">
<style type="text/css">
	.st0{fill:#FFFFFF;}
</style>
<g id="BACKGROUND">
</g>
<g id="OBJECTS">
	<path class="st0" d="M20.1,12.2c-4.9,0-8.8,4.2-8.8,9.3c0,5.1,3.9,9.3,8.8,9.3s8.8-4.2,8.8-9.3C28.9,16.4,25,12.2,20.1,12.2z
		 M18.3,17.8c0.7,0,1.2,0.6,1.2,1.3c0,0.7-0.5,1.3-1.2,1.3S17,19.8,17,19.1C17,18.4,17.6,17.8,18.3,17.8z M22,25.2
		c-0.7,0-1.2-0.6-1.2-1.3c0-0.7,0.5-1.3,1.2-1.3s1.2,0.6,1.2,1.3C23.3,24.6,22.7,25.2,22,25.2z M23.1,19.8l-4.5,4.8
		c-0.4,0.4-0.9,0.4-1.3,0c-0.4-0.4-0.4-1,0-1.4l4.5-4.8c0.4-0.4,0.9-0.4,1.3,0C23.4,18.8,23.4,19.4,23.1,19.8z M17.7,0.8h-6
		c-0.7,0-1.1,0.8-0.8,1.4l1.8,3.4c-1.3,0.8-1.7,2.5-1,3.8c-3.1,1.1-5.5,3.9-6.2,7.4L4,25c-0.5,3,1.6,5.8,4.5,5.8h3.8
		c0.7,0,1-0.9,0.5-1.4c-5.9-6-3.1-16.4,4.7-18.5c0.7-0.2,0.8-1.3,0-1.6c0.7-1.3,0.3-3-1-3.8l1.8-3.4C18.8,1.5,18.4,0.8,17.7,0.8
		L17.7,0.8z M15.4,8.8H14c-0.5,0-0.9-0.5-0.8-1.1c0.1-0.3,0.4-0.6,0.8-0.6h1.4c0.3,0,0.7,0.2,0.8,0.6C16.3,8.3,15.9,8.8,15.4,8.8z"
		/>
</g>
</svg>
