<?xml version="1.0" encoding="utf-8"?>
<!-- Generator: Adobe Illustrator 22.0.0, SVG Export Plug-In . SVG Version: 6.00 Build 0)  -->
<svg version="1.1" xmlns="http://www.w3.org/2000/svg" xmlns:xlink="http://www.w3.org/1999/xlink" x="0px" y="0px"
	 viewBox="0 0 35.8 30" style="enable-background:new 0 0 35.8 30;" xml:space="preserve">
<style type="text/css">
	.st0{fill:#FFFFFF;}
</style>
<g id="BACKGROUND">
</g>
<g id="OBJECTS">
	<path class="st0" d="M33.2,15c-0.1,0-0.2,0-0.3-0.1c-1-0.3-1.5-0.4-1.8-1l-1.3-2.5c-0.4-0.8-1.5-1.4-2.4-1.4h-2.3V7.1
		c0-0.5-0.4-0.9-1-0.9L8,6.1c-0.5,0-0.9,0.4-0.9,0.9v0.9H3c-0.9,0-1.5,0.7-1.5,1.5c0,0.8,0.7,1.5,1.5,1.5h4.1v1.4H4.4
		c-0.9,0-1.5,0.7-1.5,1.5c0,0.8,0.7,1.5,1.5,1.5h2.7v1.4H5.8c-0.9,0-1.5,0.7-1.5,1.5c0,0.8,0.7,1.5,1.5,1.5h1.3v1.5
		c0,0.5,0.4,0.9,1,0.9h1.7c0.3,1.7,1.8,3,3.7,3c1.9,0,3.4-1.3,3.7-3h6.8c0,0,0.1,0,0.1,0c0.3,1.7,1.8,3,3.7,3c1.9,0,3.4-1.3,3.7-3
		h2.4c0.9,0,1.7-0.7,1.7-1.6v-2.8C35.4,15.4,34.1,15.2,33.2,15z M27.6,20.3c0.7,0,1.3,0.6,1.3,1.3c0,0.7-0.6,1.3-1.3,1.3
		c-0.7,0-1.3-0.6-1.3-1.3C26.3,20.9,26.9,20.3,27.6,20.3z M25.1,14.8v-3.4h1.8c0.7,0,1.5,0.5,1.8,1.1l1.2,2.2c0,0,0,0.1,0.1,0.1
		L25.1,14.8L25.1,14.8z M14.8,21.6c0,0.7-0.6,1.3-1.3,1.3c-0.7,0-1.3-0.6-1.3-1.3s0.6-1.3,1.3-1.3C14.2,20.3,14.8,20.9,14.8,21.6z"
		/>
</g>
</svg>
