<?xml version="1.0" encoding="utf-8"?>
<!-- Generator: Adobe Illustrator 22.0.0, SVG Export Plug-In . SVG Version: 6.00 Build 0)  -->
<svg version="1.1" xmlns="http://www.w3.org/2000/svg" xmlns:xlink="http://www.w3.org/1999/xlink" x="0px" y="0px"
	 viewBox="0 0 31.5 31.6" style="enable-background:new 0 0 31.5 31.6;" xml:space="preserve">
<style type="text/css">
	.st0{fill:#FFFFFF;}
</style>
<g id="BACKGROUND">
</g>
<g id="OBJECTS">
	<path class="st0" d="M29.2,2.4c-1.1-1.1-2.5-1.6-3.9-1.6l-18.8,0c-3.1,0-5.6,2.5-5.6,5.6v18.8c0,3.1,2.5,5.6,5.6,5.6h18.8
		c3.1,0,5.6-2.5,5.6-5.6V6.4C30.9,4.9,30.3,3.5,29.2,2.4z M10.6,13.5c0.3-0.3,0.9-0.3,1.2,0l3.2,3.2l0-9.4c0-0.5,0.4-0.9,0.9-0.9
		c0.5,0,0.9,0.4,0.9,0.9v9.4l3.2-3.2c0.3-0.3,0.9-0.3,1.2,0c0.3,0.3,0.3,0.9,0,1.2l-4.7,4.7c-0.2,0.2-0.4,0.3-0.6,0.3
		c-0.2,0-0.5-0.1-0.6-0.3l-4.7-4.7C10.3,14.4,10.3,13.9,10.6,13.5z M24.4,25.1H7.4c-0.5,0-0.9-0.4-0.9-0.9c0-0.5,0.4-0.9,0.9-0.9
		h16.9c0.5,0,0.9,0.4,0.9,0.9C25.2,24.7,24.8,25.1,24.4,25.1z"/>
</g>
</svg>
