<?xml version="1.0" encoding="utf-8"?>
<!-- Generator: Adobe Illustrator 22.0.0, SVG Export Plug-In . SVG Version: 6.00 Build 0)  -->
<svg version="1.1" xmlns="http://www.w3.org/2000/svg" xmlns:xlink="http://www.w3.org/1999/xlink" x="0px" y="0px"
	 viewBox="0 0 22.1 21.8" style="enable-background:new 0 0 22.1 21.8;" xml:space="preserve">
<style type="text/css">
	.st0{fill:#FFFFFF;}
	.st1{fill:#FFCC2A;}
</style>
<g id="BACKGROUND">
</g>
<g id="OBJECTS">
</g>
<g id="DESIGNED_BY_FREEPIK">
	<g>
		<g>
			<path class="st0" d="M14.7,6.2H7c-0.3,0-0.5,0.2-0.5,0.5C6.4,7,6.7,7.3,7,7.3h7.8c0.3,0,0.5-0.2,0.5-0.5
				C15.3,6.5,15,6.2,14.7,6.2z M2.9,3V4h15.9V3H2.9z M18.1,4.8H3.6v7.6h14.5V4.8z M14.7,8H7C6.3,8,5.7,7.4,5.7,6.7
				c0-0.7,0.6-1.3,1.2-1.3h7.8c0.7,0,1.2,0.6,1.2,1.3C16,7.4,15.4,8,14.7,8z M17.9,1.5H4.1L3.4,2.2h15L17.9,1.5z M2.7,18.2L6,21.5
				l1-1l-3.2-3.3L2.7,18.2z M18.1,13.5c-0.1-0.1-0.4-0.1-0.5,0L15.2,16c-0.2,0.2-0.5,0.3-0.7,0.3h-4.3v-0.7h1.8
				c0.2,0,0.4-0.2,0.4-0.4v-0.4c0-0.2-0.2-0.4-0.4-0.4H7.1l-2.5,2.6l2.4,2.5l0.7-1c0.1-0.1,0.2-0.1,0.3-0.1h6.4c0.1,0,0.2,0,0.2-0.1
				l3.9-4c0.1-0.1,0.1-0.4,0-0.5L18.1,13.5z"/>
		</g>
	</g>
</g>
</svg>
