<?xml version="1.0" encoding="utf-8"?>
<!-- Generator: Adobe Illustrator 22.0.0, SVG Export Plug-In . SVG Version: 6.00 Build 0)  -->
<svg version="1.1" xmlns="http://www.w3.org/2000/svg" xmlns:xlink="http://www.w3.org/1999/xlink" x="0px" y="0px"
	 viewBox="0 0 22.1 21.8" style="enable-background:new 0 0 22.1 21.8;" xml:space="preserve">
<style type="text/css">
	.st0{fill:#FFFFFF;}
	.st1{fill:#FFCC2A;}
</style>
<g id="BACKGROUND">
</g>
<g id="OBJECTS">
</g>
<g id="DESIGNED_BY_FREEPIK">
	<g>
		<g>
			<path class="st0" d="M8.7,7.2C7.8,7.2,7,8,7,8.9c0,0.9,0.7,1.7,1.7,1.7c0.9,0,1.7-0.7,1.7-1.7C10.4,8,9.6,7.2,8.7,7.2z
				 M20.4,17.2h-1.7V6.4c0-1.4-1.1-2.5-2.5-2.5H5.4V2.2c0-0.5-0.4-0.8-0.8-0.8c-0.5,0-0.8,0.4-0.8,0.8v1.7H2c-0.5,0-0.8,0.4-0.8,0.8
				c0,0.5,0.4,0.8,0.8,0.8h1.7v10.8c0,1.4,1.1,2.5,2.5,2.5H17v1.7c0,0.5,0.4,0.8,0.8,0.8s0.8-0.4,0.8-0.8v-1.7h1.7
				c0.5,0,0.8-0.4,0.8-0.8C21.2,17.6,20.8,17.2,20.4,17.2z M17,12.2l-1.9-1.9c-0.6-0.6-1.5-0.6-2.1,0l-4,4l-1.1-1
				c-0.5-0.6-1.5-0.6-2.1,0l-0.6,0.6V5.5h10.8c0.5,0,0.8,0.4,0.8,0.8V12.2z"/>
		</g>
	</g>
</g>
</svg>
