<?xml version="1.0" encoding="utf-8"?>
<!-- Generator: Adobe Illustrator 22.0.0, SVG Export Plug-In . SVG Version: 6.00 Build 0)  -->
<svg version="1.1" xmlns="http://www.w3.org/2000/svg" xmlns:xlink="http://www.w3.org/1999/xlink" x="0px" y="0px"
	 viewBox="0 0 22.1 21.8" style="enable-background:new 0 0 22.1 21.8;" xml:space="preserve">
<style type="text/css">
	.st0{fill:#FFFFFF;}
	.st1{fill:#FFCC2A;}
</style>
<g id="BACKGROUND">
</g>
<g id="OBJECTS">
</g>
<g id="DESIGNED_BY_FREEPIK">
	<g>
		<g>
			<path class="st0" d="M18.5,1.9h-15C2.2,1.9,1,3,1,4.3v13.1c0,1.4,1.1,2.5,2.5,2.5h15c1.4,0,2.5-1.1,2.5-2.5V4.3
				C21,3,19.9,1.9,18.5,1.9z M19.4,17.4c0,0.5-0.4,0.8-0.8,0.8h-15c-0.5,0-0.8-0.4-0.8-0.8V5.9h16.7V17.4z M11,10h5.8
				c0.5,0,0.8-0.4,0.8-0.8c0-0.5-0.4-0.8-0.8-0.8H11c-0.5,0-0.8,0.4-0.8,0.8C10.2,9.7,10.6,10,11,10z M11,13.3h5.8
				c0.5,0,0.8-0.4,0.8-0.8c0-0.5-0.4-0.8-0.8-0.8H11c-0.5,0-0.8,0.4-0.8,0.8C10.2,13,10.6,13.3,11,13.3z M11,16.6h5.8
				c0.5,0,0.8-0.4,0.8-0.8c0-0.5-0.4-0.8-0.8-0.8H11c-0.5,0-0.8,0.4-0.8,0.8C10.2,16.2,10.6,16.6,11,16.6z M5.2,10h2.5
				c0.5,0,0.8-0.4,0.8-0.8c0-0.5-0.4-0.8-0.8-0.8H5.2c-0.5,0-0.8,0.4-0.8,0.8C4.4,9.7,4.7,10,5.2,10z M5.2,13.3h2.5
				c0.5,0,0.8-0.4,0.8-0.8c0-0.5-0.4-0.8-0.8-0.8H5.2c-0.5,0-0.8,0.4-0.8,0.8C4.4,13,4.7,13.3,5.2,13.3z M5.2,16.6h2.5
				c0.5,0,0.8-0.4,0.8-0.8c0-0.5-0.4-0.8-0.8-0.8H5.2c-0.5,0-0.8,0.4-0.8,0.8C4.4,16.2,4.7,16.6,5.2,16.6z"/>
		</g>
	</g>
</g>
</svg>
