<?xml version="1.0" encoding="utf-8"?>
<!-- Generator: Adobe Illustrator 22.0.0, SVG Export Plug-In . SVG Version: 6.00 Build 0)  -->
<svg version="1.1" xmlns="http://www.w3.org/2000/svg" xmlns:xlink="http://www.w3.org/1999/xlink" x="0px" y="0px"
	 viewBox="0 0 22 22" style="enable-background:new 0 0 22 22;" xml:space="preserve">
<style type="text/css">
	.st0{fill:#7B7F85;}
</style>
<g id="BACKGROUND">
	<g>
		<g>
			<path class="st0" d="M16.4,18c0,0.4,0.2,0.8,0.5,1.1c0.3,0.3,0.7,0.5,1.1,0.5c0.4,0,0.8-0.2,1.1-0.5c0.3-0.3,0.5-0.7,0.5-1.1
				c0-0.4-0.2-0.8-0.5-1.1c-0.3-0.3-0.7-0.5-1.1-0.5c-0.4,0-0.8,0.2-1.1,0.5C16.5,17.2,16.4,17.5,16.4,18z M20.8,4.3
				C20.6,4.1,20.4,4,20.2,4H5.8c0-0.1,0-0.2-0.1-0.3c0-0.1,0-0.3-0.1-0.4c0-0.1,0-0.2-0.1-0.3c0-0.1-0.1-0.2-0.2-0.3
				C5.4,2.7,5.3,2.6,5.2,2.6C5.1,2.5,5,2.5,4.8,2.5H1.8c-0.2,0-0.4,0.1-0.5,0.2C1.1,2.9,1,3.1,1,3.3c0,0.2,0.1,0.4,0.2,0.5
				C1.4,4,1.6,4,1.8,4h2.5L6.3,14c0,0-0.1,0.2-0.2,0.5C6,14.7,5.8,15,5.7,15.2c-0.1,0.2-0.1,0.4-0.1,0.5c0,0.2,0.1,0.4,0.2,0.5
				c0.2,0.2,0.3,0.2,0.5,0.2h0.8h0h10.8h0h0.8c0.2,0,0.4-0.1,0.5-0.2c0.2-0.2,0.2-0.3,0.2-0.5c0-0.2-0.1-0.4-0.2-0.5
				c-0.2-0.2-0.3-0.2-0.5-0.2H7.6c0.2-0.4,0.3-0.6,0.3-0.8c0-0.1,0-0.2,0-0.3c0-0.1,0-0.2-0.1-0.3c0-0.1,0-0.2-0.1-0.3l12.5-1.5
				c0.2,0,0.4-0.1,0.5-0.3c0.1-0.1,0.2-0.3,0.2-0.5V4.8C21,4.6,20.9,4.4,20.8,4.3z M5.6,18c0,0.4,0.2,0.8,0.5,1.1
				c0.3,0.3,0.7,0.5,1.1,0.5c0.4,0,0.8-0.2,1.1-0.5c0.3-0.3,0.5-0.7,0.5-1.1c0-0.4-0.2-0.8-0.5-1.1c-0.3-0.3-0.7-0.5-1.1-0.5
				c-0.4,0-0.8,0.2-1.1,0.5C5.8,17.2,5.6,17.5,5.6,18z"/>
		</g>
	</g>
</g>
<g id="OBJECTS">
</g>
</svg>
