<?xml version="1.0" encoding="utf-8"?>
<!-- Generator: Adobe Illustrator 22.0.0, SVG Export Plug-In . SVG Version: 6.00 Build 0)  -->
<svg version="1.1" xmlns="http://www.w3.org/2000/svg" xmlns:xlink="http://www.w3.org/1999/xlink" x="0px" y="0px"
	 viewBox="0 0 22.1 21.8" style="enable-background:new 0 0 22.1 21.8;" xml:space="preserve">
<style type="text/css">
	.st0{fill:#FFFFFF;}
	.st1{fill:#FFCC2A;}
</style>
<g id="BACKGROUND">
</g>
<g id="OBJECTS">
</g>
<g id="DESIGNED_BY_FREEPIK">
	<g>
		<g>
			<path class="st0" d="M17.2,19.8h-1.9l-0.4-1.2H7.8l-0.4,1.2H5.4c-0.3,0-0.6,0.3-0.6,0.6S5.1,21,5.4,21h11.7
				c0.3,0,0.6-0.3,0.6-0.6S17.5,19.8,17.2,19.8z M17.2,5.5c-0.3,0-0.6,0.3-0.6,0.6c0,0.3,0.3,0.6,0.6,0.6c0.3,0,0.6-0.3,0.6-0.6
				C17.8,5.8,17.5,5.5,17.2,5.5z M19.5,2H3.1c-1,0-1.8,0.8-1.8,1.8v10.1h3.6v-1.8c0-0.3,0.3-0.6,0.6-0.6h0.9
				c0.1-0.2,0.1-0.3,0.2-0.5l-0.6-0.6c-0.2-0.2-0.2-0.6,0-0.8l1.7-1.7c0.2-0.2,0.6-0.2,0.8,0L9,8.4c0.2-0.1,0.3-0.2,0.5-0.2V7.3
				c0-0.3,0.3-0.6,0.6-0.6h2.3c0.3,0,0.6,0.3,0.6,0.6v0.9c0.2,0.1,0.3,0.1,0.5,0.2l0.6-0.6c0.2-0.2,0.6-0.2,0.8,0l1.7,1.7
				c0.2,0.2,0.2,0.6,0,0.8L16.1,11c0.1,0.2,0.1,0.3,0.2,0.5h0.9c0.3,0,0.6,0.3,0.6,0.6v1.8h3.6V3.8C21.3,2.8,20.5,2,19.5,2z
				 M17.2,7.9c-1,0-1.8-0.8-1.8-1.8c0-1,0.8-1.8,1.8-1.8c1,0,1.8,0.8,1.8,1.8C18.9,7.1,18.1,7.9,17.2,7.9z M9.6,13.2
				c0,0.2,0,0.4,0.1,0.6H13c0.1-0.2,0.1-0.4,0.1-0.6c0-1-0.8-1.8-1.8-1.8S9.6,12.3,9.6,13.2z M7.4,12.2c-0.1,0.3-0.3,0.4-0.6,0.4H6
				v1.2h2.4c0-0.2-0.1-0.4-0.1-0.6c0-1.6,1.3-3,2.9-3c1.6,0,2.9,1.3,2.9,3c0,0.2,0,0.4-0.1,0.6h2.4v-1.2h-0.8
				c-0.3,0-0.5-0.2-0.6-0.4c-0.1-0.4-0.2-0.7-0.4-1.1c-0.1-0.2-0.1-0.5,0.1-0.7l0.5-0.5l-0.8-0.8l-0.5,0.5c-0.2,0.2-0.5,0.2-0.7,0.1
				c-0.3-0.2-0.7-0.3-1-0.4c-0.3-0.1-0.4-0.3-0.4-0.6V7.9h-1.2v0.8c0,0.3-0.2,0.5-0.4,0.6c-0.4,0.1-0.7,0.2-1,0.4
				C9,9.8,8.7,9.8,8.5,9.6L8,9.1L7.2,9.9l0.5,0.5c0.2,0.2,0.2,0.5,0.1,0.7C7.6,11.5,7.4,11.8,7.4,12.2z M1.3,15.6
				c0,1,0.8,1.8,1.8,1.8h16.4c1,0,1.8-0.8,1.8-1.8V15h-20V15.6z"/>
		</g>
	</g>
</g>
</svg>
