<?xml version="1.0" encoding="utf-8"?>
<!-- Generator: Adobe Illustrator 22.0.0, SVG Export Plug-In . SVG Version: 6.00 Build 0)  -->
<svg version="1.1" xmlns="http://www.w3.org/2000/svg" xmlns:xlink="http://www.w3.org/1999/xlink" x="0px" y="0px"
	 viewBox="0 0 22 22" style="enable-background:new 0 0 22 22;" xml:space="preserve">
<style type="text/css">
	.st0{fill:#7B7F85;}
</style>
<g id="BACKGROUND">
	<g>
		<g>
			<path class="st0" d="M10.3,9.5L8.8,7.9l-1,1l2.5,2.5l3.9-3.9l-1-1L10.3,9.5z M11,0.5c-4.7,0-8.5,3.9-8.5,8.7
				c0,1.9,0.6,3.7,1.7,5.2l6.8,7.1l6.8-7.1l0,0c1.1-1.5,1.7-3.3,1.7-5.2C19.5,4.4,15.7,0.5,11,0.5z M11,13.2c-2.6,0-4.7-2.2-4.7-4.8
				c0-2.7,2.1-4.8,4.7-4.8c2.6,0,4.7,2.2,4.7,4.8C15.7,11.1,13.6,13.2,11,13.2z"/>
		</g>
	</g>
</g>
<g id="OBJECTS">
</g>
</svg>
