<?xml version="1.0" encoding="utf-8"?>
<!-- Generator: Adobe Illustrator 22.0.0, SVG Export Plug-In . SVG Version: 6.00 Build 0)  -->
<svg version="1.1" xmlns="http://www.w3.org/2000/svg" xmlns:xlink="http://www.w3.org/1999/xlink" x="0px" y="0px"
	 viewBox="0 0 22 22" style="enable-background:new 0 0 22 22;" xml:space="preserve">
<style type="text/css">
	.st0{fill:#7B7F85;}
</style>
<g id="BACKGROUND">
	<g>
		<g>
			<path class="st0" d="M1.7,4.3l17.8,0.4L18.9,1L1,3.9l0.7,3.4L1.7,4.3z M2.4,6.7l0.2-1l17.6,2.7l0.3-3L2.3,5L2.4,6.7z M11.6,10.4
				C11.6,10.4,11.6,10.4,11.6,10.4c-1.8-0.3-3.4,0.8-3.7,2.5c-0.3,1.7,0.8,3.4,2.6,3.7c1.7,0.3,3.4-0.8,3.7-2.5c0,0,0,0,0,0
				C14.5,12.3,13.3,10.7,11.6,10.4z M12.5,13.1L12.5,13.1c-0.1,0.2-0.3,0.3-0.4,0.3c-0.2-0.1-0.2-0.2-0.2-0.4l0-0.1
				c0.1-0.2,0-0.4-0.2-0.4c0,0,0,0,0,0l-0.5-0.2c-0.2-0.1-0.4,0-0.4,0.2c0,0.1,0,0.2,0,0.3l0.9,1.2c0.2,0.3,0.2,0.6,0.1,0.9
				l-0.1,0.2c-0.1,0.4-0.5,0.6-0.9,0.6c-0.1,0-0.2,0-0.3-0.1L10.5,16c-0.1,0.2-0.2,0.2-0.4,0.2c-0.2-0.1-0.2-0.2-0.2-0.4l0.1-0.3
				c-0.5-0.2-0.7-0.7-0.5-1.2l0.1-0.3c0.1-0.2,0.2-0.2,0.4-0.2c0.2,0.1,0.2,0.2,0.2,0.4c0,0,0,0,0,0l-0.1,0.3
				c-0.1,0.2,0,0.4,0.2,0.4h0l0.5,0.2c0.2,0.1,0.4,0,0.4-0.2l0.1-0.2c0-0.1,0-0.2,0-0.3l-0.9-1.2c-0.3-0.4-0.2-1,0.2-1.3
				c0.2-0.2,0.6-0.2,0.8-0.1l0.1-0.3c0.1-0.2,0.2-0.2,0.4-0.2c0.2,0.1,0.2,0.2,0.2,0.4L12,11.9C12.5,12.1,12.7,12.6,12.5,13.1
				L12.5,13.1z M5.4,10.9c-0.1,0-0.1,0-0.2,0c-0.2,0-0.4,0.1-0.6,0.2c-0.5,0.3-0.6,1-0.3,1.4c0.3,0.5,0.9,0.6,1.4,0.3c0,0,0,0,0,0
				c0.5-0.3,0.6-1,0.3-1.4C5.9,11.1,5.7,10.9,5.4,10.9z M3.1,6.5L1,17.5L18.7,21L21,9.3L3.1,6.5z M6.9,12.2c-0.2,0.9-1,1.5-1.9,1.3
				c-0.9-0.2-1.5-1-1.3-1.9c0.2-0.9,1-1.5,1.9-1.3c0.4,0.1,0.8,0.3,1.1,0.7C6.8,11.3,6.9,11.7,6.9,12.2L6.9,12.2z M14.8,14.1
				C14.8,14.1,14.8,14.2,14.8,14.1L14.8,14.1c-0.3,1.8-1.9,3.2-3.7,3.2c-0.2,0-0.4,0-0.7-0.1c-2.1-0.4-3.5-2.3-3.1-4.4
				c0.4-2.1,2.3-3.5,4.4-3.1C13.7,10.1,15.1,12.1,14.8,14.1z M18.1,15.7c-0.3,0.2-0.6,0.3-0.9,0.3c-0.1,0-0.2,0-0.3,0
				c-0.9-0.2-1.5-1-1.3-1.9c0.2-0.9,1-1.5,1.9-1.3c0.9,0.2,1.5,1,1.3,1.9C18.7,15.1,18.4,15.5,18.1,15.7z M17.3,13.4
				c-0.1,0-0.1,0-0.2,0c-0.2,0-0.4,0.1-0.6,0.2c-0.5,0.3-0.6,1-0.3,1.4c0.3,0.5,0.9,0.6,1.4,0.3c0,0,0,0,0,0c0.5-0.3,0.6-1,0.3-1.4
				C17.8,13.6,17.6,13.4,17.3,13.4z"/>
		</g>
	</g>
</g>
<g id="OBJECTS">
</g>
</svg>
