<?xml version="1.0" encoding="utf-8"?>
<!-- Generator: Adobe Illustrator 22.0.0, SVG Export Plug-In . SVG Version: 6.00 Build 0)  -->
<svg version="1.1" xmlns="http://www.w3.org/2000/svg" xmlns:xlink="http://www.w3.org/1999/xlink" x="0px" y="0px"
	 viewBox="0 0 22 22" style="enable-background:new 0 0 22 22;" xml:space="preserve">
<style type="text/css">
	.st0{fill:#7B7F85;}
</style>
<g id="BACKGROUND">
	<g>
		<g>
			<path class="st0" d="M19.8,11.3c-0.1-0.2-0.1-0.4,0-0.5l0.8-1.5c0.4-0.8,0.1-1.9-0.8-2.3l-1.5-0.8C18.1,6.1,18,5.9,18,5.7
				l-0.3-1.7c-0.2-0.9-1-1.5-2-1.4L14,2.9c-0.2,0-0.4,0-0.5-0.2l-1.2-1.2c-0.7-0.7-1.8-0.7-2.5,0L8.5,2.7C8.4,2.9,8.2,2.9,8,2.9
				L6.3,2.7c-1-0.1-1.8,0.5-2,1.4L4,5.7c0,0.2-0.1,0.3-0.3,0.4L2.2,6.9C1.3,7.4,1,8.4,1.4,9.2l0.8,1.5c0.1,0.2,0.1,0.4,0,0.5
				l-0.8,1.5c-0.4,0.8-0.1,1.9,0.8,2.3l1.5,0.8C3.9,15.9,4,16.1,4,16.3l0.3,1.7c0.2,0.8,0.9,1.4,1.7,1.4c0.1,0,0.2,0,0.3,0L8,19.1
				c0.2,0,0.4,0,0.5,0.2l1.2,1.2c0.3,0.3,0.8,0.5,1.2,0.5c0.4,0,0.9-0.2,1.2-0.5l1.2-1.2c0.1-0.1,0.3-0.2,0.5-0.2l1.7,0.2
				c1,0.1,1.8-0.5,2-1.4l0.3-1.7c0-0.2,0.1-0.3,0.3-0.4l1.5-0.8c0.8-0.4,1.2-1.4,0.8-2.3L19.8,11.3z M8.7,5.8c1.2,0,2.1,0.9,2.1,2.1
				S9.8,10,8.7,10S6.5,9.1,6.5,7.9S7.5,5.8,8.7,5.8z M7.5,15.2c-0.1,0.1-0.3,0.2-0.4,0.2c-0.2,0-0.3-0.1-0.4-0.2
				c-0.2-0.2-0.2-0.6,0-0.8l7.7-7.6c0.2-0.2,0.6-0.2,0.8,0s0.2,0.6,0,0.8L7.5,15.2z M13.3,16.2c-1.2,0-2.1-0.9-2.1-2.1
				c0-1.2,1-2.1,2.1-2.1c1.2,0,2.2,0.9,2.2,2.1C15.5,15.2,14.5,16.2,13.3,16.2z M13.3,13.1c-0.5,0-1,0.4-1,1c0,0.5,0.4,1,1,1
				c0.5,0,1-0.4,1-1C14.3,13.5,13.9,13.1,13.3,13.1z M8.7,8.9c0.5,0,1-0.4,1-1c0-0.5-0.4-1-1-1c-0.5,0-1,0.4-1,1
				C7.7,8.5,8.1,8.9,8.7,8.9z"/>
		</g>
	</g>
</g>
<g id="OBJECTS">
</g>
</svg>
