<?xml version="1.0" encoding="utf-8"?>
<!-- Generator: Adobe Illustrator 22.0.0, SVG Export Plug-In . SVG Version: 6.00 Build 0)  -->
<svg version="1.1" xmlns="http://www.w3.org/2000/svg" xmlns:xlink="http://www.w3.org/1999/xlink" x="0px" y="0px"
	 viewBox="0 0 22 22" style="enable-background:new 0 0 22 22;" xml:space="preserve">
<style type="text/css">
	.st0{fill:#7B7F85;}
</style>
<g id="BACKGROUND">
	<path class="st0" d="M19.7,10.8c-0.1,0-0.2,0-0.2,0c-0.7-0.2-1.1-0.3-1.3-0.8l-0.9-1.9c-0.3-0.6-1.1-1-1.7-1h-1.7V5.9
		c0-0.4-0.3-0.7-0.7-0.7l-11.2,0c-0.4,0-0.7,0.3-0.7,0.7v9.4c0,0.4,0.3,0.7,0.7,0.7h1.2c0.2,1.3,1.3,2.2,2.6,2.2
		c1.3,0,2.5-1,2.6-2.2h4.5c0,0,0.1,0,0.1,0c0.2,1.3,1.3,2.2,2.6,2.2c1.3,0,2.5-1,2.6-2.2H20c0.7,0,1.2-0.5,1.2-1.2v-2.1
		C21.2,11.1,20.3,10.9,19.7,10.8z M5.8,16.6c-0.5,0-1-0.4-1-1c0-0.5,0.4-1,1-1c0.5,0,1,0.4,1,1C6.8,16.2,6.4,16.6,5.8,16.6z
		 M15.6,16.6c-0.5,0-1-0.4-1-1c0-0.5,0.4-1,1-1c0.5,0,1,0.4,1,1C16.6,16.2,16.2,16.6,15.6,16.6z M13.8,10.7V8.1h1.3
		c0.5,0,1.1,0.4,1.3,0.8l0.8,1.6c0,0,0,0.1,0.1,0.1H13.8z"/>
</g>
<g id="OBJECTS">
</g>
</svg>
