<?xml version="1.0" encoding="utf-8"?>
<!-- Generator: Adobe Illustrator 22.0.0, SVG Export Plug-In . SVG Version: 6.00 Build 0)  -->
<svg version="1.1" xmlns="http://www.w3.org/2000/svg" xmlns:xlink="http://www.w3.org/1999/xlink" x="0px" y="0px"
	 viewBox="0 0 22.1 21.8" style="enable-background:new 0 0 22.1 21.8;" xml:space="preserve">
<style type="text/css">
	.st0{fill:#FFFFFF;}
	.st1{fill:#FFCC2A;}
</style>
<g id="BACKGROUND">
</g>
<g id="OBJECTS">
</g>
<g id="DESIGNED_BY_FREEPIK">
	<path class="st0" d="M19.3,1H2.5C1.6,1,0.9,1.7,0.9,2.6v16.9c0,0.9,0.7,1.6,1.6,1.6h16.9c0.9,0,1.6-0.7,1.6-1.6V2.6
		C20.9,1.7,20.2,1,19.3,1z M18.3,2.8c0.4,0,0.7,0.3,0.7,0.7c0,0.4-0.3,0.7-0.7,0.7c-0.4,0-0.7-0.3-0.7-0.7S17.9,2.8,18.3,2.8z
		 M15.9,2.8c0.4,0,0.7,0.3,0.7,0.7c0,0.4-0.3,0.7-0.7,0.7c-0.4,0-0.7-0.3-0.7-0.7C15.2,3.1,15.5,2.8,15.9,2.8z M19.1,19.2H2.7V5.8
		h16.4V19.2L19.1,19.2z"/>
</g>
</svg>
