<?xml version="1.0" encoding="utf-8"?>
<!-- Generator: Adobe Illustrator 22.0.0, SVG Export Plug-In . SVG Version: 6.00 Build 0)  -->
<svg version="1.1" xmlns="http://www.w3.org/2000/svg" xmlns:xlink="http://www.w3.org/1999/xlink" x="0px" y="0px"
	 viewBox="0 0 22 22" style="enable-background:new 0 0 22 22;" xml:space="preserve">
<style type="text/css">
	.st0{fill:#7B7F85;}
</style>
<g id="BACKGROUND">
	<g>
		<g>
			<path class="st0" d="M9.4,13.6c0-0.7,0-0.9-0.1-1.2c-0.2-1-1.1-1.7-2.1-1.7H6.6c-1.2,0-2.1,1-2.1,2.2v0.7c-0.5,0-0.9,0.5-0.9,1
				v3.9c0,0.6,0.5,1,1,1h4.8c0.6,0,1-0.5,1-1v-3.9C10.3,14.1,9.9,13.6,9.4,13.6z M8.2,13.6H5.6v-0.7c0-0.5,0.4-1,1-1
				c0.6,0,1.1-0.1,1.5,0.5C8.3,12.7,8.2,12.9,8.2,13.6z M18.4,2.5H3.6C2.2,2.5,1,3.7,1,5.2v0.5h20V5.2C21,3.7,19.8,2.5,18.4,2.5z
				 M1,13.7c0,1,0.6,1.9,1.4,2.3c0-1.4-0.2-2.4,0.9-3.2c0.1-4.4,7.1-4.3,7.3,0c1.2,0.8,0.9,2,0.9,3.5h6.9c1.4,0,2.6-1.2,2.6-2.7V6.9
				H1V13.7z M12.3,9.6c0-0.8,0.6-1.4,1.4-1.4H17c0.8,0,1.4,0.7,1.4,1.4v0.8c0,0.8-0.6,1.4-1.4,1.4h-3.3c-0.8,0-1.4-0.6-1.4-1.4V9.6z
				 M13.7,10.7c3.3,0,3.6,0.1,3.6-0.3c0-0.7,0.1-1.1-0.3-1.1c-3.3,0-3.6-0.1-3.6,0.3C13.5,10.3,13.4,10.7,13.7,10.7z"/>
		</g>
	</g>
</g>
<g id="OBJECTS">
</g>
</svg>
