<?xml version="1.0" encoding="utf-8"?>
<!-- Generator: Adobe Illustrator 22.0.0, SVG Export Plug-In . SVG Version: 6.00 Build 0)  -->
<svg version="1.1" xmlns="http://www.w3.org/2000/svg" xmlns:xlink="http://www.w3.org/1999/xlink" x="0px" y="0px"
	 viewBox="0 0 22.1 21.8" style="enable-background:new 0 0 22.1 21.8;" xml:space="preserve">
<style type="text/css">
	.st0{fill:#FFFFFF;}
	.st1{fill:#FFCC2A;}
</style>
<g id="BACKGROUND">
</g>
<g id="OBJECTS">
</g>
<g id="DESIGNED_BY_FREEPIK">
	<g>
		<g>
			<path class="st0" d="M11,11.8c2.9,0,5.2-2.3,5.2-5.2c0-2.9-2.3-5.2-5.2-5.2c-2.9,0-5.2,2.3-5.2,5.2C5.8,9.4,8.1,11.8,11,11.8z
				 M19.9,15.9c-0.1-0.3-0.3-0.7-0.5-1c-1-1.5-2.7-2.6-4.5-2.8c-0.2,0-0.5,0-0.7,0.2c-1,0.7-2.1,1.1-3.3,1.1c-1.2,0-2.3-0.4-3.3-1.1
				c-0.2-0.1-0.4-0.2-0.7-0.2c-1.8,0.2-3.5,1.3-4.5,2.8c-0.2,0.3-0.4,0.6-0.5,1c-0.1,0.1,0,0.3,0,0.4c0.2,0.3,0.4,0.6,0.6,0.9
				c0.3,0.4,0.7,0.8,1,1.2c0.3,0.3,0.7,0.6,1,0.9c1.8,1.3,4,2,6.2,2c2.2,0,4.4-0.7,6.2-2c0.4-0.3,0.7-0.6,1-0.9
				c0.4-0.4,0.7-0.7,1-1.2c0.2-0.3,0.4-0.6,0.6-0.9C20,16.2,20,16,19.9,15.9z"/>
		</g>
	</g>
</g>
</svg>
