<?xml version="1.0" encoding="utf-8"?>
<!-- Generator: Adobe Illustrator 22.0.0, SVG Export Plug-In . SVG Version: 6.00 Build 0)  -->
<svg version="1.1" xmlns="http://www.w3.org/2000/svg" xmlns:xlink="http://www.w3.org/1999/xlink" x="0px" y="0px"
	 viewBox="0 0 22.1 21.8" style="enable-background:new 0 0 22.1 21.8;" xml:space="preserve">
<style type="text/css">
	.st0{fill:#FFFFFF;}
	.st1{fill:#FFCC2A;}
</style>
<g id="BACKGROUND">
</g>
<g id="OBJECTS">
</g>
<g id="DESIGNED_BY_FREEPIK">
	<g>
		<g>
			<path class="st0" d="M20.9,19.9h-0.4V7.8c0-0.2-0.2-0.4-0.4-0.4h-2.5c-0.2,0-0.4,0.2-0.4,0.4v12.1h-1.7v-7.1
				c0-0.2-0.2-0.4-0.4-0.4h-2.5c-0.2,0-0.4,0.2-0.4,0.4v7.1h-1.7v-8.8c0-0.2-0.2-0.4-0.4-0.4H7.6c-0.2,0-0.4,0.2-0.4,0.4v8.8H5.5
				v-4.6c0-0.2-0.2-0.4-0.4-0.4H2.6c-0.2,0-0.4,0.2-0.4,0.4v4.6H1.8c-0.2,0-0.4,0.2-0.4,0.4c0,0.2,0.2,0.4,0.4,0.4h19.2
				c0.2,0,0.4-0.2,0.4-0.4C21.3,20.1,21.1,19.9,20.9,19.9z M3.8,11.6c0.9,0,1.7-0.7,1.7-1.7c0-0.3-0.1-0.6-0.2-0.8l2.6-2
				c0.3,0.2,0.6,0.3,1,0.3c0.6,0,1.1-0.3,1.4-0.8l1.9,0.6c0,0.1,0,0.2,0,0.3c0,0.9,0.7,1.7,1.7,1.7s1.7-0.7,1.7-1.7
				c0-0.3-0.1-0.6-0.2-0.8L18,3.8c0.2,0.1,0.5,0.2,0.8,0.2c0.9,0,1.7-0.7,1.7-1.7c0-0.9-0.7-1.7-1.7-1.7c-0.9,0-1.7,0.7-1.7,1.7
				c0,0.3,0.1,0.6,0.2,0.8L14.7,6c-0.2-0.1-0.5-0.2-0.8-0.2c-0.5,0-1,0.2-1.3,0.6l-2-0.6c0,0,0,0,0,0c0-0.9-0.7-1.7-1.7-1.7
				c-0.9,0-1.7,0.7-1.7,1.7c0,0.2,0.1,0.5,0.1,0.7L4.7,8.5C4.5,8.3,4.2,8.3,3.8,8.3C2.9,8.3,2.2,9,2.2,9.9
				C2.2,10.8,2.9,11.6,3.8,11.6z"/>
		</g>
	</g>
</g>
</svg>
