<?xml version="1.0" encoding="utf-8"?>
<!-- Generator: Adobe Illustrator 22.0.0, SVG Export Plug-In . SVG Version: 6.00 Build 0)  -->
<svg version="1.1" xmlns="http://www.w3.org/2000/svg" xmlns:xlink="http://www.w3.org/1999/xlink" x="0px" y="0px"
	 viewBox="0 0 22 22" style="enable-background:new 0 0 22 22;" xml:space="preserve">
<style type="text/css">
	.st0{fill:#7B7F85;}
</style>
<g id="BACKGROUND">
	<g>
		<g>
			<path class="st0" d="M14.6,2.9h-1.3C13.1,1.8,12.1,1,11,1C9.9,1,8.9,1.8,8.7,2.9h1.2c0.2-0.4,0.6-0.7,1.1-0.7
				c0.5,0,0.9,0.3,1.1,0.7H9.9C9.9,3,9.8,3.2,9.8,3.3c0,0.6,0.5,1.2,1.2,1.2c0.3,0,0.6,0.3,0.6,0.6c0,0.3-0.3,0.6-0.6,0.6
				c-1.3,0-2.3-1.1-2.3-2.3c0-0.2,0-0.3,0-0.5H7.4C7.2,1.8,6.3,1,5.1,1C4,1,3.1,1.8,2.8,2.9h1.2c0.2-0.4,0.6-0.7,1.1-0.7
				c0.5,0,0.9,0.3,1.1,0.7H4.1C4,3,4,3.2,4,3.3C4,4,4.5,4.5,5.1,4.5c0.3,0,0.6,0.3,0.6,0.6c0,0.3-0.3,0.6-0.6,0.6
				c-1.3,0-2.3-1.1-2.3-2.3c0-0.2,0-0.3,0-0.5H1.6C1.3,2.9,1,3.1,1,3.5v17C1,20.7,1.3,21,1.6,21h13c0.3,0,0.6-0.3,0.6-0.6v-17
				C15.1,3.1,14.9,2.9,14.6,2.9z M3.9,8.1h3.5C7.8,8.1,8,8.4,8,8.7C8,9,7.8,9.3,7.4,9.3H3.9C3.6,9.3,3.3,9,3.3,8.7
				C3.3,8.4,3.6,8.1,3.9,8.1z M12.2,16.3H3.9c-0.3,0-0.6-0.3-0.6-0.6c0-0.3,0.3-0.6,0.6-0.6h8.3c0.3,0,0.6,0.3,0.6,0.6
				C12.8,16.1,12.5,16.3,12.2,16.3z M12.2,14H3.9c-0.3,0-0.6-0.3-0.6-0.6c0-0.3,0.3-0.6,0.6-0.6h8.3c0.3,0,0.6,0.3,0.6,0.6
				C12.8,13.7,12.5,14,12.2,14z M12.2,11.6H3.9c-0.3,0-0.6-0.3-0.6-0.6s0.3-0.6,0.6-0.6h8.3c0.3,0,0.6,0.3,0.6,0.6
				S12.5,11.6,12.2,11.6z M16.3,9.4v5.5c0,0.8,0.6,1.4,1.4,1.4h2c0.8,0,1.4-0.6,1.4-1.4V9.4H16.3z M19.5,6.2
				c-0.2-0.3-0.5-0.5-0.8-0.5c-0.3,0-0.7,0.2-0.8,0.5l-1.3,2h4.2L19.5,6.2z"/>
		</g>
	</g>
</g>
<g id="OBJECTS">
</g>
</svg>
