<?xml version="1.0" encoding="utf-8"?>
<!-- Generator: Adobe Illustrator 22.0.0, SVG Export Plug-In . SVG Version: 6.00 Build 0)  -->
<svg version="1.1" xmlns="http://www.w3.org/2000/svg" xmlns:xlink="http://www.w3.org/1999/xlink" x="0px" y="0px"
	 viewBox="0 0 22 22" style="enable-background:new 0 0 22 22;" xml:space="preserve">
<style type="text/css">
	.st0{fill:#7B7F85;}
</style>
<g id="BACKGROUND">
	<g>
		<g>
			<path class="st0" d="M9.5,13.1c0.2,0,0.4-0.2,0.4-0.4c0-0.2-0.2-0.4-0.4-0.4c-0.2,0-0.4,0.2-0.4,0.4C9.2,13,9.3,13.1,9.5,13.1z
				 M10.9,9.9c-2.4,0-4.3,1.9-4.3,4.3c0,2.4,1.9,4.3,4.3,4.3s4.3-1.9,4.3-4.3C15.2,11.8,13.3,9.9,10.9,9.9z M9.5,11.7
				c0.6,0,1.1,0.5,1.1,1.1c0,0.6-0.5,1.1-1.1,1.1c-0.6,0-1.1-0.5-1.1-1.1C8.5,12.2,8.9,11.7,9.5,11.7z M9.1,16.6l-0.5-0.5l4.3-4.3
				l0.5,0.5L9.1,16.6z M12.4,16.7c-0.6,0-1.1-0.5-1.1-1.1s0.5-1.1,1.1-1.1c0.6,0,1.1,0.5,1.1,1.1S13,16.7,12.4,16.7z M12.4,15.3
				c-0.2,0-0.4,0.2-0.4,0.4c0,0.2,0.2,0.4,0.4,0.4c0.2,0,0.4-0.2,0.4-0.4C12.7,15.4,12.6,15.3,12.4,15.3z M12.5,4.6L14,1.6
				c-0.2-0.1-0.4-0.2-0.6-0.4C13.2,1.1,13,1,12.7,1c-0.3,0-0.5,0.1-0.7,0.3c-0.6,0.6-1.6,0.6-2.2,0C9.7,1.1,9.4,1,9.2,1
				C8.9,1,8.7,1.1,8.5,1.3C8.3,1.4,8.1,1.6,7.9,1.6l1.5,2.9H12.5z M11.7,6.7h-1.4c-3.7,0-6.7,3-6.7,6.8v6.4C3.5,20.5,4,21,4.6,21
				h12.8c0.6,0,1.1-0.5,1.1-1.1v-6.4C18.4,9.8,15.4,6.7,11.7,6.7z M10.9,19.2c-2.7,0-5-2.2-5-5c0-2.8,2.2-5,5-5c2.7,0,5,2.2,5,5
				C15.9,17,13.7,19.2,10.9,19.2z M9.2,5.3C9,5.3,8.8,5.4,8.8,5.6C8.8,5.8,9,6,9.2,6h3.5c0.2,0,0.4-0.2,0.4-0.4
				c0-0.2-0.2-0.4-0.4-0.4H9.2z M13.8,5.6c0,0.1,0,0.2-0.1,0.3c0.1,0,0.3,0.1,0.4,0.2c0.2,0.2,0.5,0.3,0.8,0.3c0.1,0,0.2,0,0.3,0
				c0.4-0.1,0.7-0.3,1-0.6c0.1-0.2,0.3-0.3,0.5-0.4c0.2,0,0.5,0,0.6,0.2c0.3,0.2,0.7,0.3,1.1,0.2l-0.1-0.7c-0.2,0-0.5,0-0.6-0.2
				c-0.7-0.5-1.6-0.3-2.1,0.4c-0.1,0.2-0.3,0.3-0.5,0.4c-0.1,0-0.2,0-0.3,0c0.2-0.1,0.4-0.2,0.6-0.3c0.3-0.3,0.5-0.6,0.5-1
				c0-0.2,0.1-0.4,0.3-0.6c0.2-0.1,0.4-0.2,0.6-0.2c0.4,0,0.8-0.1,1.1-0.4l-0.5-0.5c-0.2,0.1-0.4,0.2-0.6,0.2
				c-0.4,0-0.8,0.1-1.1,0.3c-0.3,0.3-0.5,0.6-0.5,1c0,0.2-0.1,0.4-0.3,0.6C14.7,5,14.5,5.1,14.3,5c-0.2,0-0.4,0-0.6,0.1
				C13.7,5.3,13.8,5.5,13.8,5.6z"/>
		</g>
	</g>
</g>
<g id="OBJECTS">
</g>
</svg>
