<?xml version="1.0" encoding="utf-8"?>
<!-- Generator: Adobe Illustrator 22.0.0, SVG Export Plug-In . SVG Version: 6.00 Build 0)  -->
<svg version="1.1" xmlns="http://www.w3.org/2000/svg" xmlns:xlink="http://www.w3.org/1999/xlink" x="0px" y="0px"
	 viewBox="0 0 122.8 28.7" style="enable-background:new 0 0 122.8 28.7;" xml:space="preserve">
<style type="text/css">
	.st0{fill:#FFFFFF;}
	.st1{fill:#FFCC2A;}
</style>
<g id="BACKGROUND">
</g>
<g id="OBJECTS">
</g>
<g id="DESIGNED_BY_FREEPIK">
	<g>
		<g>
			<path class="st1" d="M5.6,21c-0.3-0.1-0.6-0.2-0.9-0.2c-0.3,0-0.5,0-0.8,0.2c-1.1,0.5-2,1.3-2.5,2.5c-0.3,0.6-0.3,1.3,0,1.9
				c0.5,1,1.3,1.7,2.2,2.3c0.7,0.4,1.4,0.4,2.1,0c1-0.5,1.7-1.3,2.2-2.3c0.3-0.7,0.3-1.3,0-2C7.5,22.3,6.7,21.6,5.6,21z"/>
			<path class="st1" d="M32,12c-0.4-1.2-0.9-2.2-1.6-3.2c-1.1-1.7-2.4-3.1-3.9-4.4c-1.3-1.1-2.7-2.1-4.4-2.8
				c-0.9-0.4-1.9-0.7-2.9-0.8c-0.3,0-0.7,0-1,0c-0.3,0-0.7,0.1-1,0.2c-1.4,0.3-2.7,0.9-4,1.7C11,4.1,9.1,6,7.5,8.2
				C6.7,9.4,6,10.7,5.6,12c-0.5,1.5-0.5,3.1,0,4.6c0.4,1.1,0.9,2.2,1.5,3.2c1.6,2.4,3.6,4.5,6,6.1c1.1,0.8,2.3,1.4,3.7,1.7
				c1.2,0.3,2.4,0.4,3.6,0.1c1.2-0.3,2.3-0.8,3.3-1.4c2.3-1.4,4.3-3.2,5.9-5.3c1-1.3,1.8-2.7,2.3-4.2C32.5,15.3,32.5,13.7,32,12z
				 M28.5,15.9c-0.4,1.2-1,2.3-1.8,3.3c-1.3,1.7-2.8,3.1-4.7,4.1c-0.8,0.5-1.7,0.8-2.6,0.9c-0.2,0-0.5,0-0.7,0c-1,0-1.8-0.3-2.7-0.6
				c-1.1-0.5-2.2-1.2-3.1-2c-1.3-1.2-2.5-2.5-3.3-4.1c-0.5-0.9-0.8-1.7-0.9-2.7c-0.1-0.7,0-1.4,0.2-2c0.3-1,0.7-1.9,1.3-2.8
				c1.3-1.9,3-3.5,5-4.7c0.8-0.5,1.7-0.8,2.7-1c0.8-0.1,1.6,0,2.4,0.2c1.2,0.4,2.3,1,3.3,1.8c1.6,1.2,3,2.7,4,4.5
				c0.4,0.7,0.7,1.4,0.9,2.1C28.8,13.9,28.8,14.9,28.5,15.9z"/>
		</g>
		<path class="st0" d="M97.4,7.6c-0.1,0-0.2,0.1-0.2,0.2C97.1,8,97.1,8.2,97,8.5c-0.1,0.7-0.2,1.4-0.4,2.1c-0.5,1.7-1.1,3.3-1.7,4.9
			c-0.2,0.6-0.5,1.2-0.8,1.7c0,0.1-0.1,0.2-0.2,0.2c-0.1-0.2-0.3-0.4-0.4-0.6c-0.6-1.1-1.1-2.3-1.6-3.4c-0.8-1.7-1.4-3.5-1.7-5.4
			c0-0.3-0.1-0.4-0.5-0.4c-0.5,0-1.1,0-1.6,0c-0.2,0-0.2,0-0.2,0.2c0,0,0,0,0,0.1c0.1,0.9,0.3,1.7,0.6,2.6c0.5,1.6,1.2,3.2,1.9,4.7
			c0.6,1.2,1.2,2.3,1.8,3.5c0.1,0.3,0.3,0.6,0.4,0.9c0.1,0.2,0.1,0.4,0,0.6c-0.2,0.5-0.4,0.9-0.7,1.3c-0.2,0.2-0.3,0.4-0.5,0.6
			c-0.3,0.3-0.7,0.5-1.2,0.5c-0.5,0-1-0.2-1.5-0.4c-0.2-0.1-0.3-0.2-0.5-0.3c-0.1,0-0.1,0-0.2,0.1c-0.2,0.3-0.4,0.6-0.6,0.8
			c-0.1,0.1-0.2,0.3-0.3,0.5c-0.2,0.3-0.2,0.3,0.1,0.5c0.6,0.4,1.2,0.7,1.9,0.8c0.1,0,0.3,0,0.4,0.1h1c0.1-0.1,0.3-0.1,0.4-0.1
			c0.6-0.1,1.2-0.4,1.7-0.9c0.2-0.2,0.4-0.5,0.6-0.7c0.4-0.5,0.8-1.1,1.1-1.7c1-2.1,2.1-4.1,3-6.2c0.9-2,1.6-4.1,2-6.2
			c0.1-0.4,0.2-0.8,0.2-1.2C98.7,7.6,98,7.6,97.4,7.6"/>
		<path class="st0" d="M120.3,7.6c-1.2-0.3-2.3-0.3-3.5,0.1c-1.7,0.6-2.8,1.7-3.1,3.5c-0.1,0.7-0.1,1.4-0.1,2.1c0,2,0,4,0.1,5.9
			c0,0,0,0.1,0,0.1c0,0.3,0,0.3,0.3,0.3c0.5,0,1,0,1.6,0c0.4,0,0.3,0,0.3-0.3c0-2.4,0-4.8,0.1-7.1c0-1,0.7-2,1.6-2.4
			c0.7-0.3,1.3-0.3,2-0.2c0.4,0.1,0.8,0.1,1.2,0.3c0.1,0,0.2,0,0.2-0.1c0.1-0.3,0.1-0.5,0.2-0.7c0.1-0.3,0.2-0.6,0.3-0.9V8
			C121.1,7.9,120.7,7.7,120.3,7.6"/>
		<path class="st0" d="M101.1,21.2c-0.7,0-1.3,0.4-1.5,1c-0.2,0.5-0.1,1,0.1,1.5c0.2,0.4,0.5,0.6,0.9,0.8c0.1,0,0.2,0,0.2,0.1h0.6
			c0.1-0.1,0.2-0.1,0.3-0.1c0.5-0.2,0.9-0.6,1-1.2c0.1-0.4,0-0.8-0.1-1.1C102.3,21.6,101.8,21.2,101.1,21.2 M102,22.9
			c0,0.2,0,0.4-0.1,0.6c-0.2,0.4-0.5,0.5-0.9,0.5c-0.4,0-0.6-0.2-0.8-0.6c-0.1-0.3-0.2-0.7-0.1-1c0.1-0.4,0.5-0.7,0.9-0.7
			c0.4,0,0.7,0.3,0.8,0.7C102,22.6,102,22.8,102,22.9"/>
		<path class="st0" d="M111.5,21.3c-0.4-0.1-0.8,0-1.1,0.1c-0.3,0.1-0.3,0.1-0.2,0.4c0.1,0.1,0.1,0.2,0.3,0.1
			c0.2-0.1,0.5-0.1,0.7-0.1c0.4,0,0.6,0.3,0.6,0.7c0,0,0,0,0,0c0,0-0.1,0-0.1,0c-0.5-0.1-0.9-0.1-1.4,0.2c-0.4,0.2-0.6,0.6-0.5,1.1
			c0.1,0.4,0.3,0.7,0.7,0.8c0.1,0,0.2,0,0.3,0.1h0.8c0.1-0.1,0.2-0.1,0.3-0.1c0.1,0,0.3-0.1,0.4-0.1c0.1,0,0.2-0.1,0.2-0.3
			c0-0.6,0-1.1,0-1.7C112.4,21.9,112.1,21.4,111.5,21.3 M111.9,23.5c0,0.1,0,0.2,0,0.2c0,0.2,0,0.2-0.2,0.3c-0.3,0.1-0.6,0.1-0.9,0
			c-0.3-0.1-0.4-0.3-0.4-0.6c0-0.2,0.1-0.3,0.3-0.4c0.4-0.2,0.8-0.1,1.2,0c0.1,0,0.1,0.1,0.1,0.2C111.9,23.2,111.9,23.4,111.9,23.5"
			/>
		<path class="st0" d="M115.9,21.7c0-0.4,0-0.4-0.4-0.4c-0.1,0-0.2,0.1-0.2,0.2c0,0.1,0,0.3,0,0.4c0,0.6,0,1.2,0,1.8
			c0,0.1,0,0.2-0.2,0.2c-0.2,0-0.4,0.1-0.6,0.1c-0.4,0-0.6-0.2-0.7-0.6c0-0.1,0-0.2,0-0.3c0-0.5,0-1,0-1.5c0-0.4,0-0.4-0.4-0.3
			c-0.3,0-0.3,0-0.3,0.3c0,0.6,0,1.2,0,1.7c0,0.6,0.3,1,0.9,1.2c0.1,0,0.2,0,0.3,0.1h0.5c0.3-0.1,0.6-0.2,0.8-0.3
			c0.3-0.1,0.2-0.1,0.2-0.3C115.9,23.3,115.9,22.5,115.9,21.7"/>
		<path class="st0" d="M98.9,24c-0.1-0.1-0.2-0.2-0.3-0.2c-0.1,0-0.2,0.1-0.3,0.1c-0.6,0.3-1.2,0.1-1.4-0.5
			c-0.1-0.4-0.1-0.7,0.1-1.1c0.3-0.5,0.8-0.7,1.3-0.4c0.3,0.2,0.3,0.2,0.5-0.1c0,0,0,0,0,0c0.1-0.1,0.1-0.2,0-0.2
			c-0.2-0.2-0.5-0.3-0.8-0.3c-0.8-0.1-1.5,0.3-1.8,1c-0.1,0.2-0.1,0.4-0.1,0.6c0,0.8,0.4,1.5,1.2,1.7c0,0,0.1,0,0.1,0.1h0.4
			c0-0.1,0.1-0.1,0.1-0.1c-0.1,0-0.1,0-0.1,0.1h0.3c0,0,0,0,0-0.1c0,0,0,0-0.1,0c0,0,0,0,0.1,0c0.2-0.1,0.4-0.1,0.6-0.3
			C99.1,24.1,99.1,24.1,98.9,24"/>
		<path class="st0" d="M104.6,19.8c1.5,0.4,2.9,0.3,4.3-0.3c0.4-0.2,0.8-0.4,1.3-0.6c0.2-0.1,0.2-0.1,0.1-0.3
			c-0.2-0.5-0.6-0.9-0.9-1.4c-0.1-0.1-0.2-0.1-0.3-0.1c-0.4,0.2-0.9,0.4-1.4,0.5c-0.8,0.2-1.7,0.3-2.5,0c-1.7-0.6-2.4-2-2.5-3.3
			c0-0.1,0-0.2,0.2-0.2c0.1,0,0.1,0,0.2,0c1.2,0,2.5,0,3.7,0.1v0c1.2,0,2.4,0,3.5,0c0.4,0,0.7,0,1.1-0.1c0.2,0,0.3-0.1,0.3-0.3
			c0-0.2,0.1-0.4,0.1-0.6c-0.1-1.6-0.6-3-1.6-4.3c-0.7-0.8-1.6-1.3-2.7-1.6c-0.7-0.2-1.5-0.2-2.2-0.1c-1.7,0.3-3,1.1-3.9,2.5
			c-1.2,2.1-1.4,4.3-0.4,6.5C101.6,18.2,102.9,19.3,104.6,19.8 M102.7,12.2c0.2-1.1,0.8-1.9,1.8-2.3c1.5-0.7,3.3-0.2,4.2,1.1
			c0.3,0.5,0.5,1,0.5,1.6c-0.1,0-0.2,0-0.3,0c-2,0-3.9,0-5.9,0C102.7,12.6,102.7,12.5,102.7,12.2"/>
		<path class="st0" d="M55.9,10.2c-0.6-1-1.3-1.8-2.4-2.3c-1-0.5-2.1-0.6-3.3-0.4c-1.9,0.3-3.4,1.4-4.2,3.1
			c-0.9,1.9-0.9,3.9-0.1,5.8c0.7,1.7,1.9,2.8,3.7,3.3c0.8,0.2,1.6,0.3,2.4,0.2c0.8-0.1,1.6-0.2,2.3-0.6c0.3-0.2,0.6-0.3,0.9-0.4
			c0.2-0.1,0.2-0.1,0.1-0.3c-0.2-0.4-0.4-0.8-0.7-1.1c-0.3-0.4-0.2-0.4-0.7-0.2c-0.6,0.2-1.2,0.5-1.9,0.6c-1.4,0.2-3-0.3-3.8-1.9
			c-0.3-0.5-0.5-1.1-0.5-1.7c0.1-0.1,0.2,0,0.3,0c2.8,0,5.5,0,8.3,0c0.3,0,0.3,0,0.3-0.3c0-0.4,0-0.8,0-1.1
			C56.6,11.9,56.4,11,55.9,10.2 M54.3,12.6c-0.1,0-0.1,0-0.2,0c-1,0-2,0-3,0v0h-2.9c-0.1,0-0.1,0-0.2,0c-0.1,0-0.1,0-0.1-0.1
			c0-0.1,0-0.2,0-0.4c0.4-1.6,1.8-2.7,3.5-2.6c1.5,0.1,2.6,1.1,2.9,2.2c0.1,0.2,0.1,0.5,0.1,0.7C54.4,12.5,54.4,12.6,54.3,12.6"/>
		<path class="st0" d="M79.3,11.3c-0.1-0.7-0.4-1.4-0.9-2c-0.1-0.1-0.2-0.2-0.3-0.3c-0.6-0.7-1.4-1.2-2.3-1.4
			c-1.3-0.3-2.6-0.2-3.9,0.3c-0.4,0.2-0.8,0.4-1.2,0.5c-0.3,0.1-0.3,0.1-0.3,0.4c0,1.8,0,3.5,0,5.3h0v3.3c0,0.7,0,1.4,0,2.1
			c0,0.2,0,0.2,0.2,0.2c0.6,0,1.1,0,1.7,0c0.2,0,0.2,0,0.2-0.2c0-0.1,0-0.1,0-0.2c0-3,0-6,0-9c0-0.1,0-0.1,0-0.2
			c0-0.1,0-0.2,0.2-0.2c0.7-0.2,1.5-0.4,2.3-0.2c0.8,0.2,1.4,0.6,1.8,1.3c0.2,0.3,0.2,0.7,0.3,1c0.1,1.1,0.1,2.3,0,3.4
			c0,1.2,0,2.4,0,3.5c0,0.2,0,0.4,0,0.6c0,0.1,0.1,0.2,0.2,0.2c0.6,0,1.3,0,1.9,0c0.1,0,0.2,0,0.2-0.2c0-0.3,0-0.5,0-0.8
			c0-2,0-4,0-6C79.4,12.3,79.4,11.8,79.3,11.3"/>
		<path class="st0" d="M67,16.8c-0.1-0.1-0.2-0.1-0.3,0c-0.2,0.2-0.4,0.3-0.6,0.5c-0.8,0.5-1.7,0.7-2.6,0.6
			c-1.1-0.2-1.8-0.8-2.4-1.7c-0.7-1.2-0.8-2.5-0.5-3.8c0.5-1.7,1.7-2.7,3.4-2.8c1.1,0,2,0.3,2.7,1.1c0.1,0.1,0.2,0.1,0.2,0
			c0.4-0.4,0.8-0.8,1.2-1.2c0.1-0.1,0.1-0.2,0-0.3c-0.3-0.3-0.7-0.6-1.1-0.8c-1.3-0.7-2.7-1-4.2-0.7c-1.4,0.2-2.6,0.9-3.5,2.1
			c-0.9,1.2-1.2,2.5-1.3,4.3c0,0.3,0.1,1,0.2,1.6c0.3,1.2,0.9,2.2,1.8,3c0.9,0.7,1.9,1.2,3,1.3c1.4,0.2,2.8-0.1,4-0.8
			c0.4-0.2,0.7-0.5,1.1-0.9c0.1-0.1,0.1-0.2,0-0.2C67.8,17.6,67.4,17.2,67,16.8"/>
		<path class="st0" d="M43.7,17.6c-0.4,0.1-0.8,0.1-1.2,0.1c-1.1,0-1.7-0.5-1.9-1.6c0-0.1,0-0.2,0-0.3c-0.1-0.6,0-1.2-0.1-1.7
			c0-1.4,0-2.8,0-4.2c0-0.3,0-0.3,0.3-0.3c0.8,0,1.6,0,2.4,0c0.4,0,0.4,0,0.4-0.4c0,0,0-0.1,0-0.1c0-0.4,0.1-0.9,0.1-1.3
			c0-0.1,0-0.1-0.1-0.1c-0.1,0-0.1,0-0.2,0c-0.8,0-1.7,0-2.5,0c-0.3,0-0.3,0-0.3-0.3c0-0.7,0-1.5,0-2.2c0-0.2,0-0.2-0.2-0.2
			c-0.6,0-1.2,0.1-1.8,0.1c-0.1,0-0.2,0.1-0.2,0.2c0,0.3,0,0.6,0,0.8c0,0.1,0,0.1,0,0.2c0,2.5,0,5,0,7.5c0,0.1,0,0.2,0,0.2
			c0,0.5,0,0.9,0,1.4c0,0.5,0,1,0.1,1.5c0.2,1,0.7,1.9,1.7,2.4c0.9,0.5,1.9,0.6,2.9,0.6c0.3,0,0.5-0.1,0.8-0.2
			c0.1,0,0.2-0.1,0.2-0.2c0-0.5,0-1,0-1.6c0-0.1,0-0.1,0-0.2C43.8,17.5,43.8,17.5,43.7,17.6"/>
		<path class="st0" d="M86.1,11.7c-0.2-1.9-1.1-3.2-2.9-3.9c-1.1-0.4-2.2-0.4-3.3-0.2c-0.5,0.1-1,0.2-1.5,0.4
			c0.6,0.5,1.1,1.1,1.4,1.7c0.1,0.1,0.2,0.1,0.3,0.1c0.5-0.1,1-0.2,1.5-0.1c1,0.2,1.8,0.7,2.1,1.7c0.1,0.4,0.2,0.7,0.2,1.1
			c0,0.6,0,1.3,0,1.9c0,1.4-0.1,2.9-0.1,4.3c0,0.3,0,0.6,0.1,0.9c0,0.1,0,0.2,0.2,0.2c0.6,0,1.3,0,1.9,0c0.1,0,0.2,0,0.2-0.2
			c0-0.3,0-0.7,0-1c0-2,0-4.1,0-6.1C86.1,12.2,86.1,12,86.1,11.7"/>
		<path class="st0" d="M107.5,22.4c0-0.6-0.4-1-1-1.1c-0.4-0.1-0.8-0.1-1.2,0.1c-0.2,0.1-0.3,0.1-0.4,0c-0.2-0.1-0.4-0.1-0.6-0.1
			c-0.3,0-0.6,0.1-0.9,0.2c-0.1,0.1-0.2,0.1-0.2,0.3c0,0.4,0,0.9,0,1.3h0c0,0.5,0,0.9,0,1.4c0,0.2,0,0.2,0.2,0.2
			c0.4,0,0.4,0,0.4-0.2c0-0.1,0-0.1,0-0.2c0-0.6,0-1.3,0-1.9c0-0.1,0-0.2,0-0.2c0-0.1,0-0.1,0.1-0.2c0.5-0.2,1.1,0,1.1,0.7
			c0,0.1,0,0.1,0,0.2c0,0.5,0,0.9,0,1.4c0,0.5,0,0.4,0.5,0.4c0.1,0,0.2-0.1,0.2-0.2c0-0.8,0.1-1.6-0.1-2.3c0-0.1,0-0.1,0.1-0.2
			c0.6-0.2,1.2,0,1.2,0.7c0,0.5,0,1,0,1.6c0,0.5,0,0.4,0.5,0.4c0.1,0,0.2,0,0.2-0.2C107.5,23.7,107.5,23,107.5,22.4"/>
		<path class="st0" d="M108.7,23.8c-0.2,0-0.4,0.2-0.4,0.4c0,0.2,0.2,0.4,0.4,0.4c0.2,0,0.4-0.2,0.4-0.4
			C109.1,24,108.9,23.8,108.7,23.8"/>
		<path class="st0" d="M95.3,23.8c-0.2,0-0.4,0.2-0.4,0.4c0,0.2,0.2,0.4,0.4,0.4c0.2,0,0.4-0.2,0.4-0.4
			C95.7,23.9,95.5,23.8,95.3,23.8"/>
	</g>
</g>
</svg>
