<?xml version="1.0" encoding="utf-8"?>
<!-- Generator: Adobe Illustrator 22.0.0, SVG Export Plug-In . SVG Version: 6.00 Build 0)  -->
<svg version="1.1" xmlns="http://www.w3.org/2000/svg" xmlns:xlink="http://www.w3.org/1999/xlink" x="0px" y="0px"
	 viewBox="0 0 22 22" style="enable-background:new 0 0 22 22;" xml:space="preserve">
<style type="text/css">
	.st0{fill:#7B7F85;}
	.st1{fill:#26282A;}
</style>
<g id="BACKGROUND">
	<g>
		<g>
			<path class="st1" d="M8.3,13.2c0.1-0.4,0.4-0.7,0.8-0.7h1.7c3.4,0,6-1.4,6.8-5.4c0-0.1,0.1-0.3,0.1-0.3c0.2-1.5,0-2.5-0.8-3.4
				c-0.9-1-2.5-1.4-4.5-1.4H6.6c-0.4,0-0.8,0.3-0.8,0.7L3.3,18.2c0,0.3,0.2,0.6,0.5,0.6h3.6L8.3,13L8.3,13.2z M18.6,7.5
				c-0.8,3.9-3.5,6-7.8,6H9.3l-1.2,7.4h2.5c0.4,0,0.7-0.3,0.7-0.6l0-0.2l0.6-3.7l0-0.2c0.1-0.4,0.4-0.6,0.7-0.6h0.5
				c3,0,5.3-1.2,5.9-4.7C19.4,9.5,19.3,8.3,18.6,7.5z"/>
		</g>
	</g>
</g>
<g id="OBJECTS">
</g>
</svg>
