<?xml version="1.0" encoding="utf-8"?>
<!-- Generator: Adobe Illustrator 22.0.0, SVG Export Plug-In . SVG Version: 6.00 Build 0)  -->
<svg version="1.1" xmlns="http://www.w3.org/2000/svg" xmlns:xlink="http://www.w3.org/1999/xlink" x="0px" y="0px"
	 viewBox="0 0 62.2 61.3" style="enable-background:new 0 0 62.2 61.3;" xml:space="preserve">
<style type="text/css">
	.st0{fill:#FFFFFF;}
	.st1{fill:#FFCC2A;}
</style>
<g id="BACKGROUND">
</g>
<g id="OBJECTS">
</g>
<g id="DESIGNED_BY_FREEPIK">
	<g>
		<g>
			<path class="st0" d="M19.6,31c-0.7,0-1.3,0.6-1.3,1.2c0,0.7,0.6,1.2,1.3,1.2s1.3-0.6,1.3-1.2C20.9,31.6,20.3,31,19.6,31z M54.6,1
				H38.8c-3,0-5.9,1.2-8,3.3L3,32.1C0.1,35,0.1,39.6,3,42.4l16.5,16.5c2.8,2.8,7.5,2.8,10.3,0l27.8-27.8c2.1-2.1,3.3-5,3.3-8V7.3
				C60.9,3.8,58.1,1,54.6,1z M19.6,36c-2.1,0-3.8-1.7-3.8-3.7s1.7-3.7,3.8-3.7s3.8,1.7,3.8,3.7S21.7,36,19.6,36z M28.4,44.8
				c0,0.7-0.6,1.2-1.3,1.2c-0.7,0-1.3-0.6-1.3-1.2v-20c0-0.7,0.6-1.2,1.3-1.2c0.7,0,1.3,0.6,1.3,1.2V44.8z M34.6,41
				c-2.1,0-3.8-1.7-3.8-3.7c0-2.1,1.7-3.7,3.8-3.7c2.1,0,3.8,1.7,3.8,3.7C38.4,39.3,36.7,41,34.6,41z M47.1,21
				c-3.5,0-6.3-2.8-6.3-6.2c0-3.5,2.8-6.2,6.3-6.2s6.3,2.8,6.3,6.2C53.4,18.2,50.6,21,47.1,21z M34.6,36c-0.7,0-1.3,0.6-1.3,1.2
				c0,0.7,0.6,1.2,1.3,1.2s1.3-0.6,1.3-1.2C35.9,36.6,35.3,36,34.6,36z"/>
		</g>
	</g>
</g>
</svg>
