<?xml version="1.0" encoding="utf-8"?>
<!-- Generator: Adobe Illustrator 22.0.0, SVG Export Plug-In . SVG Version: 6.00 Build 0)  -->
<svg version="1.1" xmlns="http://www.w3.org/2000/svg" xmlns:xlink="http://www.w3.org/1999/xlink" x="0px" y="0px"
	 viewBox="0 0 22 22" style="enable-background:new 0 0 22 22;" xml:space="preserve">
<style type="text/css">
	.st0{fill:#7B7F85;}
	.st1{fill:#26282A;}
</style>
<g id="BACKGROUND">
	<g>
		<g>
			<path class="st1" d="M15.7,10.5c0-2.7-2.2-5-4.9-5c-2.7,0-4.9,2.2-4.9,5c0,2.7,2.2,5,4.9,5C13.5,15.5,15.7,13.3,15.7,10.5z
				 M10.2,13.2V13H9.8c-0.3,0-0.6-0.3-0.6-0.6s0.3-0.6,0.6-0.6h1.1c0.2,0,0.3-0.1,0.3-0.3c0-0.2-0.1-0.3-0.3-0.3h-0.2
				c-0.8,0-1.5-0.7-1.5-1.5c0-0.7,0.4-1.2,1-1.5V7.9c0-0.3,0.3-0.6,0.6-0.6c0.3,0,0.6,0.3,0.6,0.6v0.2h0.4c0.3,0,0.6,0.3,0.6,0.6
				c0,0.3-0.3,0.6-0.6,0.6h-1.1c-0.2,0-0.3,0.1-0.3,0.3c0,0.2,0.1,0.3,0.3,0.3h0.2c0.8,0,1.5,0.7,1.5,1.5c0,0.7-0.4,1.2-1,1.5v0.3
				c0,0.3-0.3,0.6-0.6,0.6C10.5,13.8,10.2,13.6,10.2,13.2z M19.2,9.9c-0.3,0-0.6,0.3-0.6,0.6c0,3.7-2.6,6.8-6,7.6v-0.8
				c0-0.5-0.7-0.8-1-0.4L10,18.6c-0.2,0.2-0.2,0.6,0,0.9l1.6,1.6c0.4,0.4,1,0.1,1-0.4v-1.2c4.1-0.8,7.2-4.5,7.2-8.9
				C19.9,10.2,19.6,9.9,19.2,9.9z M8.2,18C5.1,16.9,3,13.9,3,10.6c0-0.9,0.2-1.9,0.5-2.7l0.7,0.4c0.5,0.3,1-0.2,0.9-0.7L4.5,5.2
				C4.4,4.9,4.1,4.7,3.8,4.8L1.4,5.4C0.9,5.6,0.8,6.3,1.3,6.6l1.1,0.7C2,8.3,1.8,9.4,1.8,10.6c0,3.9,2.4,7.3,6,8.6
				c0.3,0.1,0.7-0.1,0.8-0.4C8.7,18.4,8.5,18.1,8.2,18z M19.9,5.5l-1.3,0.4C17,3.2,14,1.5,10.8,1.5c-2.1,0-4,0.7-5.6,2
				C5,3.6,4.9,4,5.1,4.3C5.4,4.6,5.8,4.6,6,4.4c1.4-1.1,3-1.7,4.8-1.7c2.6,0,5.1,1.4,6.5,3.5l-0.7,0.2c-0.5,0.1-0.6,0.9-0.1,1.1
				l2.1,1.2c0.1,0.1,0.3,0.1,0.5,0.1c0.2,0,0.3-0.1,0.4-0.3l1.2-2.1C20.9,5.9,20.4,5.4,19.9,5.5z"/>
		</g>
	</g>
</g>
<g id="OBJECTS">
</g>
</svg>
