<svg id="Layer_1" data-name="Layer 1" xmlns="http://www.w3.org/2000/svg" viewBox="0 0 47.57 41.7"><defs><style>.cls-1{fill:#ffb901;}.cls-1,.cls-2{fill-rule:evenodd;}.cls-2{fill:#212121;}</style></defs><title>fav-icon</title><path class="cls-1" d="M34.05,8l.73,1.3c.53.8.95,1.64,1.43,2.48a6,6,0,0,1,.69,1.26H34.18c-3.59-.06-7.18.09-10.78.09H17.8l-2.35,4.19c-.45.68-.75,1.46-1.19,2.11s-.77,1.4-1.17,2.07l-1.78,3.14c-.21.35-.4.71-.58,1L9,28.8a4.36,4.36,0,0,1-.6,1,5.9,5.9,0,0,1-.7-1.19l-1-1.79c-1-1.84-1.29-1.53-.76-2.37l4.06-7.2c.33-.57.62-1.22,1-1.79l1-1.8c.1-.19.39-.44.23-.58A35.17,35.17,0,0,0,8.49,13c-2,0-1.44-.18-2.18,1L4.4,17.43c-.18.32-.29.58-.48.86-.62,1-2.19,4.05-2.85,5-.19.3-.27.56-.44.84-.63,1-.48.69,0,1.67.16.3.29.56.47.88l2.39,4.16c1.11,2,2.17,3.95,3.34,5.89.18.29.27.55.44.84l.48.8a5.15,5.15,0,0,0,.5.77,15.14,15.14,0,0,0,.82-1.33l2.71-4.71c.54-1.07,2.15-3.76,2.69-4.65.15-.24.23-.48.38-.71l4.67-8.07c.21-.3.94-1.9,1.21-1.9l23.32-.12c.55,0,1.13.26.6-.47L41,10.63c-.19-.36-.37-.6-.54-1-.46-1-1.09-1.87-1.6-2.78l-2-3.56c-.09-.13,0-.1-.18-.16-.47-.08-18.49,0-24.15,0a26.49,26.49,0,0,0-1.37,2.39A24.27,24.27,0,0,0,9.86,8c.64.1,10.88.08,11.65.08.56,0,1,0,1.55-.06S24,8,24.54,8Z" transform="translate(-0.21 -3.15)"/><path class="cls-2" d="M41.4,34.4c.27-.47.54-.95.82-1.47L43.5,30.7c.23-.36.39-.78.63-1.12a1.41,1.41,0,0,0,.24-.36c.44-.93,1.57-2.83,2.12-3.69.15-.25.25-.51.39-.75l.86-1.44c.14-.33-.07-.51-.24-.77-.29-.45-.51-1-.84-1.45H22.18c-.15.06-.09,0-.18.15s-.09.17-.09.18l-1.45,2.6c-.16.26-.24.48-.4.75l-1.65,3c-.14.26-.25.41-.42.73L11.78,39.64c-.4.83-.83,1.47-1.22,2.22s-.42.61,0,1.52c.09.2.6,1.43.83,1.47H14a41.41,41.41,0,0,1,2-3.65l1-1.77c.12-.23.21-.34.35-.58l2-3.55c.53-1,1.14-2,1.69-3l1-1.76c.61-1.16,1.83-3.07,2.37-4.17.11-.22.22-.37.31-.53l5.4,0-1.65,3c-.61.93-1,2-1.65,2.94l-5.62,10c-.12.22-.21.32-.33.55a15.08,15.08,0,0,0-1.27,2.37h5.13a17,17,0,0,0,1.41-2.35c.21-.42.48-.78.7-1.2l2-3.56c.21-.47.45-.77.67-1.21.81-1.61,1.86-3.18,2.72-4.76l1.34-2.38c.12-.25,1.89-3.41,2-3.47l5.12.06c-.17.59-2.85,5.11-3.31,5.92L32.86,40c-.5,1-1.12,2-1.67,3l-.66,1.16a1.56,1.56,0,0,0-.25.62h5.18Z" transform="translate(-0.21 -3.15)"/></svg>