<svg id="Layer_1" data-name="Layer 1" xmlns="http://www.w3.org/2000/svg" viewBox="0 0 332.47 78.45"><defs><style>.cls-1{fill:#ffb901;}.cls-1,.cls-2{fill-rule:evenodd;}.cls-2,.cls-3{fill:#fff;}.cls-3{font-size:45.39px;font-family:Sailec-Bold, Sailec;font-weight:700;}</style></defs><title>logo1</title><path class="cls-1" d="M64.19,10.14l1.36,2.42c1,1.5,1.78,3.06,2.68,4.63a11.14,11.14,0,0,1,1.28,2.35H64.44c-6.72-.11-13.42.18-20.14.18H33.84l-4.38,7.83c-.84,1.26-1.41,2.71-2.24,3.93S25.8,34.09,25,35.34l-3.32,5.87c-.39.65-.74,1.32-1.09,1.93l-3.29,5.79a8.35,8.35,0,0,1-1.12,1.89,11,11,0,0,1-1.31-2.22l-2-3.33c-1.9-3.44-2.42-2.87-1.43-4.44L19.11,27.4c.62-1.08,1.15-2.28,1.82-3.34l1.91-3.38c.18-.34.73-.81.44-1.08s-6-.12-6.81-.12c-3.73,0-2.7-.33-4.08,1.95L8.81,27.68c-.33.6-.54,1.08-.89,1.62-1.16,1.82-4.09,7.56-5.32,9.42-.36.55-.51,1-.83,1.56-1.17,1.9-.9,1.29.08,3.12.3.56.55,1.05.88,1.64L7.19,52.8c2.08,3.67,4.06,7.39,6.24,11,.33.54.5,1,.82,1.58l.9,1.49a8.24,8.24,0,0,0,.94,1.43,24,24,0,0,0,1.53-2.48L22.68,57c1-2,4-7,5-8.7.26-.44.42-.89.7-1.31L37.13,32c.38-.57,1.75-3.54,2.25-3.54L83,28.18c1,0,2.1.48,1.11-.88L77.11,15c-.34-.67-.68-1.11-1-1.77-.87-1.78-2-3.49-3-5.19L69.44,1.37c-.17-.23-.06-.18-.34-.28-.88-.16-34.53,0-45.09,0a44.32,44.32,0,0,0-2.56,4.47A44.33,44.33,0,0,0,19,10c1.18.18,20.32.15,21.75.15,1,0,1.86-.11,2.9-.11s1.76.11,2.77.11Z" transform="translate(-1 -1.02)"/><path class="cls-2" d="M77.91,59.38c.5-.89,1-1.77,1.54-2.74l2.38-4.17c.44-.67.74-1.45,1.19-2.08a2.83,2.83,0,0,0,.45-.69c.82-1.73,2.92-5.27,3.94-6.89.3-.46.48-.94.74-1.39l1.61-2.69c.26-.62-.14-.95-.45-1.44a30.57,30.57,0,0,0-1.58-2.72H42c-.28.12-.17.06-.34.3a3.41,3.41,0,0,0-.17.33L38.81,40c-.3.51-.44.91-.74,1.41L35,47c-.26.48-.47.76-.78,1.37L22.6,69.17c-.75,1.55-1.54,2.74-2.27,4.14-.88,1.68-.78,1.15,0,2.84.17.37,1.12,2.66,1.54,2.74h4.9c.41-1.2,2.94-5.41,3.75-6.83l1.87-3.29c.24-.44.4-.64.66-1.09l3.71-6.62c1-1.89,2.14-3.69,3.15-5.54l1.88-3.28c1.15-2.17,3.42-5.74,4.43-7.79.2-.41.41-.69.58-1l10.07.08-3.08,5.6c-1.13,1.74-1.94,3.74-3.07,5.5L40.22,73.32c-.22.4-.38.59-.61,1-.53,1-2.29,3.63-2.36,4.43h9.56c.35-.07,2.49-4.08,2.65-4.39.39-.77.89-1.45,1.3-2.24l3.81-6.64c.4-.89.85-1.43,1.26-2.26,1.51-3,3.47-5.93,5.07-8.9l2.5-4.43c.23-.47,3.54-6.38,3.81-6.48l9.57.1c-.31,1.1-5.32,9.55-6.18,11.06L62,69.87c-.94,1.86-2.1,3.71-3.12,5.58l-1.24,2.16a3.08,3.08,0,0,0-.47,1.15h9.69Z" transform="translate(-1 -1.02)"/><text class="cls-3" transform="translate(98.79 61.3)">TECMYER</text></svg>