<svg id="Layer_1" data-name="Layer 1" xmlns="http://www.w3.org/2000/svg" viewBox="0 0 208 49.08"><defs><style>.cls-1{fill:#ffb901;}.cls-1,.cls-2{fill-rule:evenodd;}.cls-2,.cls-3{fill:#212121;}.cls-3{font-size:28.4px;font-family:Sailec-Bold, Sailec;font-weight:700;}</style></defs><title>logo2</title><path class="cls-1" d="M39.53,6.66l.86,1.51c.62.94,1.11,1.92,1.67,2.9a7.1,7.1,0,0,1,.8,1.47H39.69c-4.2-.07-8.4.11-12.6.11H20.55L17.8,17.54c-.52.79-.87,1.7-1.39,2.47s-.89,1.63-1.37,2.41L13,26.1c-.24.4-.46.82-.68,1.2l-2.06,3.62a5,5,0,0,1-.7,1.19,7,7,0,0,1-.82-1.39L7.48,28.63c-1.19-2.15-1.52-1.79-.9-2.77l4.75-8.41c.39-.67.72-1.42,1.14-2.09l1.2-2.11c.11-.21.45-.51.27-.68s-3.74-.07-4.26-.07c-2.34,0-1.69-.21-2.56,1.22L4.89,17.63c-.21.38-.34.68-.56,1C3.6,19.78,1.77,23.37,1,24.53c-.22.35-.32.65-.52,1-.73,1.19-.56.81.05,1.95l.55,1,2.79,4.85c1.31,2.3,2.54,4.63,3.91,6.89.2.33.31.64.51,1l.56.93a5.08,5.08,0,0,0,.59.89,17.21,17.21,0,0,0,1-1.55L13.56,36c.63-1.25,2.52-4.39,3.15-5.44.17-.28.26-.56.44-.82l5.46-9.43c.23-.35,1.09-2.22,1.4-2.22l27.26-.14c.64,0,1.32.3.7-.55L47.62,9.68c-.22-.41-.43-.69-.63-1.1-.54-1.12-1.28-2.19-1.87-3.25l-2.3-4.16c-.11-.15,0-.12-.22-.18C42.05.89,21,1,14.4,1a27.5,27.5,0,0,0-1.61,2.8,28.23,28.23,0,0,0-1.52,2.77c.74.11,12.71.09,13.61.09.66,0,1.17-.06,1.81-.06s1.11.06,1.74.06Z" transform="translate(0 -0.95)"/><path class="cls-2" d="M48.11,37.46c.32-.55.64-1.11,1-1.71l1.49-2.61c.28-.42.46-.91.75-1.3a1.81,1.81,0,0,0,.27-.43c.52-1.09,1.83-3.3,2.47-4.31.19-.29.3-.59.47-.88l1-1.68c.16-.39-.09-.59-.28-.9-.34-.52-.6-1.21-1-1.7H25.67c-.18.07-.11,0-.21.18l-.11.21-1.7,3c-.18.32-.27.57-.46.88l-1.93,3.5c-.17.3-.3.48-.49.86l-7.26,13c-.46,1-1,1.72-1.42,2.6-.55,1-.49.71,0,1.78.11.23.7,1.66,1,1.71h3.06c.26-.75,1.84-3.38,2.34-4.27l1.18-2.06c.14-.27.24-.4.41-.68l2.32-4.15c.62-1.18,1.34-2.3,2-3.46l1.18-2c.71-1.36,2.14-3.59,2.77-4.87a6.71,6.71,0,0,1,.36-.63l6.3.05L33,31c-.71,1.09-1.21,2.34-1.92,3.44l-6.57,11.7c-.14.25-.24.37-.38.64a16.48,16.48,0,0,0-1.48,2.77h6a19.67,19.67,0,0,0,1.66-2.75c.24-.48.55-.91.81-1.4l2.38-4.16c.26-.55.54-.89.79-1.41,1-1.89,2.18-3.71,3.18-5.57L39,31.53c.15-.29,2.21-4,2.38-4.05l6,.06c-.2.69-3.33,6-3.87,6.92L38.14,44c-.59,1.16-1.31,2.32-2,3.48l-.77,1.35a2,2,0,0,0-.3.73h6.06Z" transform="translate(0 -0.95)"/><text class="cls-3" transform="translate(61.81 38.35)">TECMYER</text></svg>