<?xml version="1.0" encoding="utf-8"?>
<!-- Generator: Adobe Illustrator 22.0.0, SVG Export Plug-In . SVG Version: 6.00 Build 0)  -->
<svg version="1.1" id="Layer_1" xmlns="http://www.w3.org/2000/svg" xmlns:xlink="http://www.w3.org/1999/xlink" x="0px" y="0px"
	 viewBox="0 0 23.1 24" style="enable-background:new 0 0 23.1 24;" xml:space="preserve">
<g>
	<path d="M8.7,17.9c-1.7,0-3,1.4-3,3c0,1.7,1.4,3,3,3s3-1.4,3-3S10.3,17.9,8.7,17.9 M8.7,22.2c-0.7,0-1.2-0.5-1.2-1.2
		s0.5-1.2,1.2-1.2s1.2,0.5,1.2,1.2C9.9,21.6,9.3,22.2,8.7,22.2"/>
	<path d="M17.6,17.9c-1.7,0-3,1.4-3,3c0,1.7,1.4,3,3,3c1.7,0,3-1.4,3-3C20.7,19.3,19.3,17.9,17.6,17.9 M17.6,22.2
		c-0.7,0-1.2-0.5-1.2-1.2s0.5-1.2,1.2-1.2s1.2,0.5,1.2,1.2C18.8,21.6,18.3,22.2,17.6,22.2"/>
	<path d="M22.9,5.9c-0.2-0.2-0.4-0.3-0.7-0.3H6.3L5.4,1.4c0-0.4-0.3-0.7-0.7-0.7L1.1,0C0.6-0.1,0.1,0.3,0,0.7
		c-0.1,0.5,0.2,1,0.7,1.1l3,0.6l2.7,13.5c0.1,0.4,0.5,0.7,0.9,0.7H20c0.4,0,0.8-0.3,0.9-0.7L23,6.7C23.1,6.4,23.1,6.1,22.9,5.9
		 M19.3,14.8H8.1L6.6,7.4H21L19.3,14.8z"/>
</g>
</svg>
