<?xml version="1.0" encoding="utf-8"?>
<!-- Generator: Adobe Illustrator 22.0.0, SVG Export Plug-In . SVG Version: 6.00 Build 0)  -->
<svg version="1.1" id="Layer_1" xmlns="http://www.w3.org/2000/svg" xmlns:xlink="http://www.w3.org/1999/xlink" x="0px" y="0px"
	 viewBox="0 0 84.7 14.4" style="enable-background:new 0 0 84.7 14.4;" xml:space="preserve">
<style type="text/css">
	.st0{fill:#FFFFFF;}
</style>
<path class="st0" d="M0,0.3h4.7c1.1,0,2.1,0.2,2.9,0.5c0.9,0.3,1.6,0.8,2.2,1.4c0.6,0.6,1.1,1.3,1.4,2.2c0.3,0.8,0.5,1.8,0.5,2.8
	c0,1-0.2,2-0.5,2.8c-0.3,0.8-0.8,1.6-1.4,2.2c-0.6,0.6-1.4,1.1-2.2,1.4c-0.9,0.3-1.9,0.5-2.9,0.5H0V0.3z M4.5,11.6
	c0.8,0,1.4-0.1,2-0.3s1.1-0.5,1.4-0.9C8.4,10,8.7,9.6,8.8,9C9,8.5,9.1,7.9,9.1,7.2c0-0.7-0.1-1.3-0.3-1.8C8.7,4.8,8.4,4.4,8,4
	C7.6,3.6,7.1,3.3,6.5,3.1s-1.2-0.3-2-0.3H2.6v8.8H4.5z"/>
<path class="st0" d="M18.5,2.8V6H24v2.5h-5.5v3.2h6.1v2.5h-8.7V0.3h8.7v2.5H18.5z"/>
<path class="st0" d="M29.2,0.3h3l5.5,9.2h0.2l-0.2-2.7V0.3h2.6v13.8h-2.7l-5.8-9.7h-0.2L31.7,7v7.1h-2.6V0.3z"/>
<path class="st0" d="M49.4,14.4c-0.6,0-1.2-0.1-1.7-0.3c-0.5-0.2-1-0.4-1.5-0.7c-0.4-0.3-0.8-0.7-1.2-1.2c-0.3-0.5-0.6-1-0.8-1.7
	l2.4-1c0.2,0.7,0.5,1.3,0.9,1.7s1,0.7,1.8,0.7c0.3,0,0.5,0,0.8-0.1c0.3-0.1,0.5-0.2,0.7-0.3c0.2-0.1,0.4-0.3,0.5-0.5
	c0.1-0.2,0.2-0.4,0.2-0.7c0-0.3,0-0.5-0.1-0.7c-0.1-0.2-0.2-0.4-0.5-0.6c-0.2-0.2-0.5-0.4-0.8-0.5c-0.3-0.2-0.8-0.3-1.3-0.5L48,7.7
	c-0.4-0.1-0.7-0.3-1.1-0.5c-0.4-0.2-0.7-0.5-1-0.8s-0.6-0.7-0.8-1.1s-0.3-0.9-0.3-1.4c0-0.5,0.1-1,0.3-1.5c0.2-0.5,0.5-0.9,0.9-1.2
	c0.4-0.4,0.9-0.6,1.4-0.8C47.9,0.1,48.5,0,49.2,0c0.7,0,1.3,0.1,1.8,0.3c0.5,0.2,0.9,0.4,1.3,0.7c0.4,0.3,0.6,0.6,0.9,1
	c0.2,0.3,0.4,0.7,0.5,1l-2.3,1c-0.1-0.4-0.4-0.7-0.7-1c-0.3-0.3-0.8-0.5-1.4-0.5c-0.6,0-1,0.1-1.4,0.4s-0.6,0.6-0.6,1
	c0,0.4,0.2,0.8,0.5,1c0.4,0.3,0.9,0.6,1.7,0.8L50.4,6c0.6,0.2,1.1,0.4,1.5,0.7s0.8,0.5,1.2,0.9c0.3,0.3,0.6,0.7,0.7,1.2
	c0.2,0.4,0.3,1,0.3,1.5c0,0.7-0.1,1.3-0.4,1.9c-0.3,0.5-0.7,0.9-1.1,1.3c-0.4,0.3-1,0.6-1.5,0.7C50.5,14.3,49.9,14.4,49.4,14.4z"/>
<path class="st0" d="M64.9,14.4c-1,0-2-0.2-2.9-0.6c-0.9-0.4-1.6-0.9-2.3-1.5c-0.6-0.6-1.1-1.4-1.5-2.3c-0.4-0.9-0.5-1.8-0.5-2.8
	c0-1,0.2-1.9,0.5-2.8c0.4-0.9,0.9-1.6,1.5-2.3c0.6-0.6,1.4-1.2,2.3-1.5C62.9,0.2,63.8,0,64.9,0s2,0.2,2.9,0.6
	c0.9,0.4,1.6,0.9,2.3,1.5c0.6,0.6,1.1,1.4,1.5,2.3c0.4,0.9,0.5,1.8,0.5,2.8c0,1-0.2,1.9-0.5,2.8c-0.4,0.9-0.9,1.6-1.5,2.3
	c-0.6,0.6-1.4,1.2-2.3,1.5C66.8,14.2,65.9,14.4,64.9,14.4z M64.9,11.9c0.6,0,1.2-0.1,1.8-0.3c0.6-0.2,1-0.6,1.5-1
	c0.4-0.4,0.7-0.9,1-1.5c0.2-0.6,0.4-1.2,0.4-1.9c0-0.7-0.1-1.3-0.4-1.9c-0.2-0.6-0.6-1.1-1-1.5c-0.4-0.4-0.9-0.7-1.5-1
	c-0.6-0.2-1.2-0.3-1.8-0.3c-0.6,0-1.2,0.1-1.8,0.3c-0.6,0.2-1,0.6-1.5,1c-0.4,0.4-0.7,0.9-1,1.5c-0.2,0.6-0.4,1.2-0.4,1.9
	c0,0.7,0.1,1.3,0.4,1.9c0.2,0.6,0.6,1.1,1,1.5c0.4,0.4,0.9,0.7,1.5,1C63.6,11.8,64.2,11.9,64.9,11.9z"/>
<path class="st0" d="M76.3,0.3h2.6v11.3h5.8v2.5h-8.4V0.3z"/>
</svg>
