<?xml version="1.0" encoding="utf-8"?>
<!-- Generator: Adobe Illustrator 22.0.0, SVG Export Plug-In . SVG Version: 6.00 Build 0)  -->
<svg version="1.1" id="Layer_1" xmlns="http://www.w3.org/2000/svg" xmlns:xlink="http://www.w3.org/1999/xlink" x="0px" y="0px"
	 viewBox="0 0 519 519" style="enable-background:new 0 0 519 519;" xml:space="preserve">
<style type="text/css">
	.st0{fill:#60A727;}
</style>
<g>
	<path class="st0" d="M491.7,322.1l14.6-14.6c9.2-9.2,9.2-24.2,0-33.4c-4.5-4.5-10.4-6.9-16.7-6.9c-4.7,0-9.3,1.4-13.1,4l-3.1-10.3
		l15.8-15.8c9.2-9.2,9.2-24.2,0-33.4c-8.5-8.5-21.8-9.1-31.1-2l-18.8-63c7.5-7.2,14.7-14.2,21.4-21c19.5-19.5,35.3-40.1,44.6-58.1
		c15.7-30.4,9.1-46.6,0.9-54.9c-8.3-8.3-24.5-14.8-54.9,0.9c-18,9.3-38.6,25.1-58.1,44.6c-6.8,6.8-13.8,13.9-21,21.4l-63-18.8
		c7.1-9.2,6.5-22.6-2-31.1c-9.2-9.2-24.2-9.2-33.4,0l-15.8,15.8l-10.3-3.1c2.6-3.8,4-8.4,4-13.1c0-6.3-2.5-12.2-6.9-16.7
		c-9.2-9.2-24.2-9.2-33.4,0L197,27.3L122.5,5.1C119.8,4.3,116.9,5,115,7L95.8,26.2c-3.2,3.2-2.8,8.7,0.9,11.4l188,137.6
		c-42.4,47.8-83.2,95.6-112,129.8l-55.3-21.3c-2.8-1.1-5.9-0.4-8,1.7l-22.7,22.7c-2.9,2.9-2.9,7.7,0,10.7l113.6,113.6
		c2.9,2.9,7.8,2.9,10.7,0l22.7-22.7c2.1-2.1,2.8-5.3,1.7-8L214,346.4c34.2-28.8,82-69.6,129.8-112l14.9,20.4c2.6,3.6,8,4.1,11.3,1
		c2.7-2.6,3.1-6.9,0.9-9.9l-15.8-21.6c25-22.3,49.7-44.8,72.1-66l71,238.3l-9.8,9.8l-97.5-133.3c-2.5-3.4-7.2-4.1-10.5-1.6
		c-3.4,2.5-4.1,7.2-1.6,10.5l102.7,140.4c2.7,3.7,8.2,4.1,11.4,0.9L512,404c2-2,2.7-4.8,1.9-7.5L491.7,322.1z M284.7,40.4
		c3.3-3.3,8.8-3.3,12.1,0c3.3,3.3,3.3,8.7,0,12.1l-3.5,3.5l-18.6-5.5L284.7,40.4z M222.2,23.3c3.3-3.3,8.7-3.3,12.1,0
		c3.3,3.3,3.3,8.7,0,12.1l-2.3,2.3l-18.6-5.5L222.2,23.3z M112.7,30.6l9.8-9.8l238.3,71c-21.2,22.4-43.7,47.1-66,72.1L112.7,30.6z
		 M102.5,313.5l13.9-13.9l45.9,17.6c-11.5,13.7-20.3,24.3-25.5,30.6L102.5,313.5z M219.5,402.5l-13.9,13.9l-34.3-34.3
		c6.3-5.2,16.9-14,30.6-25.5L219.5,402.5z M160.6,371.5l-13-13C173.8,326.8,312.6,160.2,404,68.8c18.1-18.1,37.9-33.4,54.3-41.9
		c12.3-6.4,28.7-12.1,37.3-3.6c8.5,8.5,2.8,25-3.6,37.3c-8.5,16.4-23.7,36.2-41.9,54.3C358.8,206.4,192.2,345.2,160.6,371.5
		 M463,225.7l3.5-3.5c3.3-3.3,8.7-3.3,12.1,0c3.3,3.3,3.3,8.8,0,12.1l-10.1,10.1L463,225.7z M481.3,287l2.3-2.3
		c3.3-3.3,8.7-3.3,12.1,0c3.3,3.3,3.3,8.7,0,12.1l-8.9,8.9L481.3,287z"/>
	<path class="st0" d="M491.7,322.1l14.6-14.6c9.2-9.2,9.2-24.2,0-33.4c-4.5-4.5-10.4-6.9-16.7-6.9c-4.7,0-9.3,1.4-13.1,4l-3.1-10.3
		l15.8-15.8c9.2-9.2,9.2-24.2,0-33.4c-8.5-8.5-21.8-9.1-31.1-2l-18.8-63c7.5-7.2,14.7-14.2,21.4-21c19.5-19.5,35.3-40.1,44.6-58.1
		c15.7-30.4,9.1-46.6,0.9-54.9c-8.3-8.3-24.5-14.8-54.9,0.9c-18,9.3-38.6,25.1-58.1,44.6c-6.8,6.8-13.8,13.9-21,21.4l-63-18.8
		c7.1-9.2,6.5-22.6-2-31.1c-9.2-9.2-24.2-9.2-33.4,0l-15.8,15.8l-10.3-3.1c2.6-3.8,4-8.4,4-13.1c0-6.3-2.5-12.2-6.9-16.7
		c-9.2-9.2-24.2-9.2-33.4,0L197,27.3L122.5,5.1C119.8,4.3,116.9,5,115,7L95.8,26.2c-3.2,3.2-2.8,8.7,0.9,11.4l188,137.6
		c-42.4,47.8-83.2,95.6-112,129.8l-55.3-21.3c-2.8-1.1-5.9-0.4-8,1.7l-22.7,22.7c-2.9,2.9-2.9,7.7,0,10.7l113.6,113.6
		c2.9,2.9,7.8,2.9,10.7,0l22.7-22.7c2.1-2.1,2.8-5.3,1.7-8L214,346.4c34.2-28.8,82-69.6,129.8-112l14.9,20.4c2.6,3.6,8,4.1,11.3,1
		c2.7-2.6,3.1-6.9,0.9-9.9l-15.8-21.6c25-22.3,49.7-44.8,72.1-66l71,238.3l-9.8,9.8l-97.5-133.3c-2.5-3.4-7.2-4.1-10.5-1.6
		c-3.4,2.5-4.1,7.2-1.6,10.5l102.7,140.4c2.7,3.7,8.2,4.1,11.4,0.9L512,404c2-2,2.7-4.8,1.9-7.5L491.7,322.1z M284.7,40.4
		c3.3-3.3,8.8-3.3,12.1,0c3.3,3.3,3.3,8.7,0,12.1l-3.5,3.5l-18.6-5.5L284.7,40.4z M222.2,23.3c3.3-3.3,8.7-3.3,12.1,0
		c3.3,3.3,3.3,8.7,0,12.1l-2.3,2.3l-18.6-5.5L222.2,23.3z M112.7,30.6l9.8-9.8l238.3,71c-21.2,22.4-43.7,47.1-66,72.1L112.7,30.6z
		 M102.5,313.5l13.9-13.9l45.9,17.6c-11.5,13.7-20.3,24.3-25.5,30.6L102.5,313.5z M219.5,402.5l-13.9,13.9l-34.3-34.3
		c6.3-5.2,16.9-14,30.6-25.5L219.5,402.5z M160.6,371.5l-13-13C173.8,326.8,312.6,160.2,404,68.8c18.1-18.1,37.9-33.4,54.3-41.9
		c12.3-6.4,28.7-12.1,37.3-3.6c8.5,8.5,2.8,25-3.6,37.3c-8.5,16.4-23.7,36.2-41.9,54.3C358.8,206.4,192.2,345.2,160.6,371.5z
		 M463,225.7l3.5-3.5c3.3-3.3,8.7-3.3,12.1,0c3.3,3.3,3.3,8.8,0,12.1l-10.1,10.1L463,225.7z M481.3,287l2.3-2.3
		c3.3-3.3,8.7-3.3,12.1,0c3.3,3.3,3.3,8.7,0,12.1l-8.9,8.9L481.3,287z"/>
	<path class="st0" d="M456.2,437.9l-64.3,64.3c-2.7,2.7-2.9,7.3-0.4,10.2c2.8,3.3,8,3.5,11.1,0.4l64.3-64.3c2.9-2.9,2.9-7.7,0-10.7
		C463.9,434.9,459.1,434.9,456.2,437.9"/>
	<path class="st0" d="M456.2,437.9l-64.3,64.3c-2.7,2.7-2.9,7.3-0.4,10.2c2.8,3.3,8,3.5,11.1,0.4l64.3-64.3c2.9-2.9,2.9-7.7,0-10.7
		C463.9,434.9,459.1,434.9,456.2,437.9z"/>
	<path class="st0" d="M434.7,416.4c2.9-2.9,2.9-7.7,0-10.7c-2.9-2.9-7.7-2.9-10.7,0l-40.2,40.2c-2.7,2.7-2.9,7.3-0.4,10.2
		c2.8,3.3,8,3.5,11.1,0.4L434.7,416.4z"/>
	<path class="st0" d="M434.7,416.4c2.9-2.9,2.9-7.7,0-10.7c-2.9-2.9-7.7-2.9-10.7,0l-40.2,40.2c-2.7,2.7-2.9,7.3-0.4,10.2
		c2.8,3.3,8,3.5,11.1,0.4L434.7,416.4z"/>
	<path class="st0" d="M410.6,376.2c2.9-2.9,2.9-7.7,0-10.7c-2.9-2.9-7.7-2.9-10.7,0l-28.1,28.1c-2.7,2.7-2.9,7.3-0.4,10.2
		c2.8,3.3,8,3.5,11.1,0.4L410.6,376.2z"/>
	<path class="st0" d="M410.6,376.2c2.9-2.9,2.9-7.7,0-10.7c-2.9-2.9-7.7-2.9-10.7,0l-28.1,28.1c-2.7,2.7-2.9,7.3-0.4,10.2
		c2.8,3.3,8,3.5,11.1,0.4L410.6,376.2z"/>
	<path class="st0" d="M81.1,56.2c-2.9-2.9-7.7-2.9-10.7,0L6.2,120.5c-2.9,2.9-2.9,7.7,0,10.7c2.9,2.9,7.8,2.9,10.7,0l64.3-64.3
		C84.1,63.9,84.1,59.1,81.1,56.2"/>
	<path class="st0" d="M81.1,56.2c-2.9-2.9-7.7-2.9-10.7,0L6.2,120.5c-2.9,2.9-2.9,7.7,0,10.7c2.9,2.9,7.8,2.9,10.7,0l64.3-64.3
		C84.1,63.9,84.1,59.1,81.1,56.2z"/>
	<path class="st0" d="M113.3,88.3c-2.9-2.9-7.7-2.9-10.7,0l-40.2,40.2c-2.7,2.7-2.9,7.3-0.4,10.2c2.8,3.3,8,3.5,11.1,0.4L113.3,99
		C116.2,96,116.2,91.2,113.3,88.3"/>
	<path class="st0" d="M113.3,88.3c-2.9-2.9-7.7-2.9-10.7,0l-40.2,40.2c-2.7,2.7-2.9,7.3-0.4,10.2c2.8,3.3,8,3.5,11.1,0.4L113.3,99
		C116.2,96,116.2,91.2,113.3,88.3z"/>
	<path class="st0" d="M114.7,151.2c2.9,2.9,7.8,2.9,10.7,0l28.1-28.1c2.9-2.9,2.9-7.7,0-10.7c-2.9-2.9-7.7-2.9-10.7,0l-28.1,28.1
		C111.7,143.5,111.7,148.3,114.7,151.2"/>
	<path class="st0" d="M114.7,151.2c2.9,2.9,7.8,2.9,10.7,0l28.1-28.1c2.9-2.9,2.9-7.7,0-10.7c-2.9-2.9-7.7-2.9-10.7,0l-28.1,28.1
		C111.7,143.5,111.7,148.3,114.7,151.2z"/>
</g>
</svg>
