<?xml version="1.0" encoding="utf-8"?>
<!-- Generator: Adobe Illustrator 22.0.0, SVG Export Plug-In . SVG Version: 6.00 Build 0)  -->
<svg version="1.1" id="Layer_1" xmlns="http://www.w3.org/2000/svg" xmlns:xlink="http://www.w3.org/1999/xlink" x="0px" y="0px"
	 viewBox="0 0 64 64" style="enable-background:new 0 0 64 64;" xml:space="preserve">
<style type="text/css">
	.st0{fill-rule:evenodd;clip-rule:evenodd;fill:#FFFFFF;}
	.st1{fill:#E12C2C;}
	.st2{fill:#931616;}
	.st3{fill:#F9F6F6;}
	.st4{fill:#DDDAEC;}
	.st5{fill:#80B4FB;}
	.st6{fill:#61A2F9;}
	.st7{fill:#E4F6FF;}
	.st8{fill:#D3EFFB;}
</style>
<circle class="st0" cx="32" cy="32" r="32"/>
<g>
	<path class="st1" d="M45.9,18.3h-7.6V15c0-0.4,0.3-0.7,0.7-0.7h6.1c0.4,0,0.7,0.3,0.7,0.7L45.9,18.3z"/>
	<path class="st2" d="M45.2,14.2h-1.6c0.4,0,0.7,0.3,0.7,0.7v3.3h1.6V15C45.9,14.6,45.6,14.2,45.2,14.2z"/>
	<circle class="st3" cx="42.1" cy="25.8" r="9.3"/>
	<path class="st4" d="M42.1,16.5c-0.3,0-0.7,0-1,0.1c4.7,0.5,8.3,4.4,8.3,9.3c0,4.8-3.6,8.8-8.3,9.3c0.3,0,0.6,0.1,1,0.1
		c5.1,0,9.3-4.2,9.3-9.3S47.2,16.5,42.1,16.5L42.1,16.5z"/>
	<path class="st5" d="M50.4,45.6h-33c-0.3,0-0.5-0.2-0.5-0.5V30.2c0-0.5,0.4-0.8,0.8-0.8h24.2c0.4,0,0.8,0.2,1.1,0.5l8,8.8
		c0.3,0.3,0.4,0.6,0.4,1v4.9C51.4,45.1,50.9,45.6,50.4,45.6z"/>
	<path class="st6" d="M51,38.6l-8-8.8c-0.3-0.3-0.7-0.5-1.1-0.5h-1.7c0.4,0,0.8,0.2,1.1,0.5l8,8.8c0.3,0.3,0.4,0.6,0.4,1v4.9
		c0,0.6-0.5,1-1,1h1.7c0.6,0,1-0.5,1-1v-4.9C51.4,39.3,51.3,38.9,51,38.6z"/>
	<path class="st7" d="M43,29.8c-0.3-0.3-0.7-0.5-1.1-0.5h-3.2v7.6c0,0.3,0.3,0.6,0.6,0.6H50L43,29.8z"/>
	<path class="st8" d="M41.3,29.8l7,7.7H50l-7-7.7c-0.3-0.3-0.7-0.5-1.1-0.5h-1.7C40.6,29.3,41,29.5,41.3,29.8L41.3,29.8z"/>
	<circle class="st1" cx="44.7" cy="45.8" r="3.9"/>
	<path class="st2" d="M44.7,41.9c-0.2,0-0.4,0-0.7,0.1c1.9,0.3,3.3,1.9,3.3,3.9c0,1.9-1.4,3.6-3.3,3.9c0.2,0,0.4,0.1,0.7,0.1
		c2.2,0,3.9-1.8,3.9-3.9S46.8,41.9,44.7,41.9z"/>
	<circle class="st3" cx="44.7" cy="45.8" r="1.3"/>
	<path class="st4" d="M44.7,44.5c-0.2,0-0.4,0-0.5,0.1c0.5,0.2,0.8,0.7,0.8,1.2c0,0.5-0.3,1-0.8,1.2c0.2,0.1,0.3,0.1,0.5,0.1
		c0.7,0,1.3-0.6,1.3-1.3C46,45.1,45.4,44.5,44.7,44.5z"/>
	<circle class="st1" cx="25.2" cy="45.8" r="3.9"/>
	<path class="st2" d="M25.2,41.9c-0.2,0-0.4,0-0.7,0.1c1.9,0.3,3.3,1.9,3.3,3.9c0,1.9-1.4,3.6-3.3,3.9c0.2,0,0.4,0.1,0.7,0.1
		c2.2,0,3.9-1.8,3.9-3.9S27.3,41.9,25.2,41.9z"/>
	<circle class="st3" cx="25.2" cy="45.8" r="1.3"/>
	<path class="st4" d="M25.2,44.5c-0.2,0-0.4,0-0.5,0.1c0.5,0.2,0.8,0.7,0.8,1.2c0,0.5-0.3,1-0.8,1.2c0.2,0.1,0.3,0.1,0.5,0.1
		c0.7,0,1.3-0.6,1.3-1.3C26.5,45.1,25.9,44.5,25.2,44.5z"/>
	<g>
		<g>
			<g>
				<path class="st3" d="M24,38.8l-0.5-0.5l2.8-2.7l-2.8-2.7l0.5-0.5c0.6-0.6,1.7-0.7,2.3,0l2.4,2.4c0.1,0.1,0.2,0.3,0.3,0.4
					c0.2,0.4,0,0.9-0.3,1.2l-2.4,2.4C25.6,39.4,24.6,39.4,24,38.8L24,38.8z"/>
			</g>
		</g>
	</g>
	<g>
		<path d="M42.1,20c0.3,0,0.6-0.3,0.6-0.6v-0.8c0-0.3-0.3-0.6-0.6-0.6c-0.3,0-0.6,0.3-0.6,0.6v0.8C41.5,19.8,41.8,20,42.1,20z"/>
		<path d="M48.5,25.2c-0.3,0-0.6,0.3-0.6,0.6c0,0.3,0.3,0.6,0.6,0.6h0.8c0.3,0,0.6-0.3,0.6-0.6c0-0.3-0.3-0.6-0.6-0.6H48.5z"/>
		<path d="M34.9,25.2c-0.3,0-0.6,0.3-0.6,0.6c0,0.3,0.3,0.6,0.6,0.6h0.8c0.3,0,0.6-0.3,0.6-0.6c0-0.3-0.3-0.6-0.6-0.6H34.9z"/>
		<path d="M44.7,44c-1,0-1.9,0.8-1.9,1.9s0.8,1.9,1.9,1.9c1,0,1.9-0.8,1.9-1.9S45.7,44,44.7,44z M44.7,46.6c-0.4,0-0.7-0.3-0.7-0.7
			s0.3-0.7,0.7-0.7c0.4,0,0.7,0.3,0.7,0.7S45.1,46.6,44.7,46.6z"/>
		<path d="M23.3,45.8c0,1,0.8,1.9,1.9,1.9c1,0,1.9-0.8,1.9-1.9S26.2,44,25.2,44C24.1,44,23.3,44.8,23.3,45.8z M25.9,45.8
			c0,0.4-0.3,0.7-0.7,0.7c-0.4,0-0.7-0.3-0.7-0.7s0.3-0.7,0.7-0.7S25.9,45.4,25.9,45.8z"/>
		<path d="M29.1,36.8c0.7-0.6,0.7-1.8,0-2.5L26.7,32c-0.9-0.9-2.3-0.8-3.1,0l-0.5,0.5c-0.2,0.2-0.2,0.6,0,0.8l2.3,2.3l-2.3,2.3
			c-0.1,0.1-0.2,0.3-0.2,0.4c0,0.2,0.1,0.3,0.2,0.4l0.5,0.5c0.9,0.9,2.3,0.9,3.1,0L29.1,36.8z M24.4,38.4L24.4,38.4l2.3-2.3
			c0.1-0.1,0.2-0.3,0.2-0.4s-0.1-0.3-0.2-0.4l-2.4-2.3l0,0c0.4-0.4,1.1-0.4,1.5,0l2.4,2.4c0.3,0.3,0.2,0.6,0,0.8l-2.4,2.4
			C25.5,38.8,24.8,38.8,24.4,38.4L24.4,38.4z"/>
		<path d="M41.5,25.8c0,0.3,0.3,0.6,0.6,0.6h2c0.3,0,0.6-0.3,0.6-0.6c0-0.3-0.3-0.6-0.6-0.6h-1.4v-3.6c0-0.3-0.3-0.6-0.6-0.6
			c-0.3,0-0.6,0.3-0.6,0.6V25.8z"/>
		<path d="M22,20.8h10.1c0.3,0,0.6-0.3,0.6-0.6s-0.3-0.6-0.6-0.6H22c-0.3,0-0.6,0.3-0.6,0.6S21.7,20.8,22,20.8L22,20.8z"/>
		<path d="M19.6,23.8H30c0.3,0,0.6-0.3,0.6-0.6c0-0.3-0.3-0.6-0.6-0.6H19.6c-0.3,0-0.6,0.3-0.6,0.6C19,23.6,19.2,23.8,19.6,23.8z"/>
		<path d="M25.6,25.4c-0.3,0-0.6,0.3-0.6,0.6c0,0.3,0.3,0.6,0.6,0.6h5.2c0.3,0,0.6-0.3,0.6-0.6c0-0.3-0.3-0.6-0.6-0.6H25.6z"/>
		<path d="M20.6,25.4c-0.3,0-0.6,0.3-0.6,0.6c0,0.3,0.3,0.6,0.6,0.6h2.6c0.3,0,0.6-0.3,0.6-0.6c0-0.3-0.3-0.6-0.6-0.6H20.6z"/>
		<path d="M12.6,34.6h2.1c0.3,0,0.6-0.3,0.6-0.6c0-0.3-0.3-0.6-0.6-0.6h-2.1c-0.3,0-0.6,0.3-0.6,0.6C12,34.3,12.3,34.6,12.6,34.6z"
			/>
		<path d="M14.1,39.8h-1.6c-0.3,0-0.6,0.3-0.6,0.6s0.3,0.6,0.6,0.6h1.6c0.3,0,0.6-0.3,0.6-0.6S14.5,39.8,14.1,39.8z"/>
		<path d="M21,34.8H19c-0.3,0-0.6,0.3-0.6,0.6c0,0.3,0.3,0.6,0.6,0.6H21c0.3,0,0.6-0.3,0.6-0.6C21.6,35.1,21.4,34.8,21,34.8z"/>
		<path d="M47.6,34c2.7-1.8,4.4-4.9,4.4-8.2c0-1.6-0.4-3.1-1.1-4.5c-0.1-0.3-0.5-0.4-0.8-0.3c-0.3,0.1-0.4,0.5-0.3,0.8
			c0.6,1.2,0.9,2.5,0.9,3.9c0,3-1.5,5.7-4,7.3l-3.4-3.7c-0.4-0.4-1-0.7-1.5-0.7h-8c-0.3-0.9-0.5-1.9-0.5-2.9c0-4.8,3.9-8.7,8.7-8.7
			c2.5,0,4.9,1.1,6.5,2.9c0.2,0.2,0.6,0.3,0.8,0.1c0.2-0.2,0.3-0.6,0.1-0.8c-0.9-1-1.9-1.8-3-2.3v-2c0-0.7-0.6-1.3-1.3-1.3H39
			c-0.7,0-1.3,0.6-1.3,1.3v2c-3.3,1.6-5.5,5-5.5,8.9c0,1,0.1,2,0.4,2.9H17.7c-0.7,0-1.4,0.6-1.4,1.3h-2.1c-0.3,0-0.6,0.3-0.6,0.6
			s0.3,0.6,0.6,0.6h2.1v5.7h-3.7c-0.3,0-0.6,0.3-0.6,0.6c0,0.3,0.3,0.6,0.6,0.6h3.7v1.7c-0.3,0-0.6,0.3-0.6,0.6
			c0,0.3,0.3,0.6,0.6,0.6v4.1c0,0.6,0.5,1.1,1.1,1.1H19v0.4h-1.8c-0.3,0-0.6,0.3-0.6,0.6s0.3,0.6,0.6,0.6h2.4c0.3,0,0.6-0.3,0.6-0.6
			v-1h0.5c0.2,2.3,2.1,4.1,4.5,4.1c0.8,0,1.5-0.2,2.2-0.6c0.3-0.2,0.4-0.5,0.2-0.8c-0.2-0.3-0.5-0.4-0.8-0.2
			c-0.5,0.3-1.1,0.4-1.6,0.4c-1.8,0-3.3-1.5-3.3-3.3c0-1.8,1.5-3.3,3.3-3.3s3.3,1.5,3.3,3.3c0,0.5-0.1,1-0.3,1.4
			c-0.1,0.3,0,0.6,0.3,0.8c0.3,0.1,0.6,0,0.8-0.3c0.2-0.5,0.4-1,0.4-1.6h10.5c0.2,2.3,2.1,4.1,4.5,4.1s4.3-1.8,4.5-4.1h1.2
			c0.9,0,1.6-0.7,1.6-1.6v-4.9c0-0.5-0.2-1-0.5-1.4L47.6,34z M38.9,15c0-0.1,0.1-0.1,0.1-0.1h6.1c0.1,0,0.1,0.1,0.1,0.1v1.5
			c-1-0.3-2.1-0.5-3.2-0.5c-1.1,0-2.2,0.2-3.2,0.5L38.9,15L38.9,15z M42.5,30.2l6.1,6.7h-4.4c-0.3,0-0.6,0.3-0.6,0.6
			s0.3,0.6,0.6,0.6h5.4l0.9,1c0.4,0.4,0.2,0.8,0.2,1.3h-0.5c-0.3,0-0.6,0.3-0.6,0.6c0,0.3,0.3,0.6,0.6,0.6h0.5v0.9h-3.4
			c-0.8-0.6-1.7-1-2.8-1s-2,0.4-2.8,1h-6.4V29.9H38v7c0,0.7,0.5,1.2,1.2,1.2h2.7c0.3,0,0.6-0.3,0.6-0.6s-0.3-0.6-0.6-0.6h-2.7
			c0,0,0,0,0,0v-7h2.7C42.1,29.9,42.4,30,42.5,30.2z M40.2,45h-4.7v-1.6h5.3C40.6,43.9,40.4,44.5,40.2,45z M29,43.5h5.3V45h-4.7
			C29.5,44.5,29.3,43.9,29,43.5L29,43.5z M17.5,43.5h3.9c-0.3,0.5-0.5,1-0.6,1.6h-3.3V43.5z M22.4,42.3h-4.9v-1.4H20
			c0.3,0,0.6-0.3,0.6-0.6c0-0.3-0.3-0.6-0.6-0.6h-2.5v-1.7H20c0.3,0,0.6-0.3,0.6-0.6c0-0.3-0.3-0.6-0.6-0.6h-2.5v-6.7
			c0-0.1,0.1-0.3,0.3-0.3h16.6v12.4H28c-0.8-0.6-1.7-1-2.8-1S23.2,41.7,22.4,42.3L22.4,42.3z M44.7,49.2c-1.8,0-3.3-1.5-3.3-3.3
			s1.5-3.3,3.3-3.3S48,44,48,45.8S46.5,49.2,44.7,49.2z M50.4,45h-1.3c-0.1-0.6-0.3-1.1-0.6-1.6h2.3v1.1C50.8,44.8,50.6,45,50.4,45z
			"/>
	</g>
</g>
</svg>
