<?xml version="1.0" encoding="utf-8"?>
<!-- Generator: Adobe Illustrator 22.0.0, SVG Export Plug-In . SVG Version: 6.00 Build 0)  -->
<svg version="1.1" id="Layer_1" xmlns="http://www.w3.org/2000/svg" xmlns:xlink="http://www.w3.org/1999/xlink" x="0px" y="0px"
	 viewBox="0 0 64 64" style="enable-background:new 0 0 64 64;" xml:space="preserve">
<style type="text/css">
	.st0{fill-rule:evenodd;clip-rule:evenodd;fill:#FFFFFF;}
	.st1{clip-path:url(#SVGID_2_);fill:#FBB8B0;}
	.st2{clip-path:url(#SVGID_2_);fill:#FAC850;}
	.st3{clip-path:url(#SVGID_2_);fill:#FA5D3F;}
	.st4{clip-path:url(#SVGID_2_);}
	.st5{clip-path:url(#SVGID_2_);fill:#FFFEFD;}
	.st6{clip-path:url(#SVGID_2_);fill:#FFD4CF;}
</style>
<circle class="st0" cx="32" cy="32" r="32"/>
<g>
	<defs>
		<rect id="SVGID_1_" x="12.3" y="17" width="39.3" height="40"/>
	</defs>
	<clipPath id="SVGID_2_">
		<use xlink:href="#SVGID_1_"  style="overflow:visible;"/>
	</clipPath>
	<path class="st1" d="M34.5,51.1L34.2,51l5.5-11.2l4.7,2.3l-3.3,6.8C39.9,51.3,37,52.3,34.5,51.1"/>
	<path class="st1" d="M31,48.5l-0.3-0.1l5.5-11.2l4.7,2.3l-3.3,6.8C36.4,48.7,33.4,49.7,31,48.5"/>
	<path class="st2" d="M40.5,43l-21.3,6c-0.4,0.1-0.9-0.1-1-0.6L15,36.6l21.6,0L40.5,43z"/>
	<path class="st3" d="M13.8,17.7H45c0.5,0,0.8,0.4,0.8,0.8v19.3c0,0.5-0.4,0.8-0.8,0.8H13.8c-0.5,0-0.8-0.4-0.8-0.8V18.5
		C13,18,13.4,17.7,13.8,17.7"/>
	<path class="st2" d="M17.1,20.9h7.5c0.5,0,0.8,0.4,0.8,0.8v4.9c0,0.5-0.4,0.8-0.8,0.8h-7.5c-0.5,0-0.8-0.4-0.8-0.8v-4.9
		C16.3,21.3,16.6,20.9,17.1,20.9"/>
	<path class="st4" d="M24.6,20.3h-7.5c-0.8,0-1.5,0.7-1.5,1.5v4.9c0,0.8,0.7,1.5,1.5,1.5h7.5c0.8,0,1.5-0.7,1.5-1.5v-4.9
		C26.1,20.9,25.4,20.3,24.6,20.3 M17.1,21.6h2.1l-0.5,1.3h-1.8v-1.1C16.9,21.7,17,21.6,17.1,21.6 M16.9,26.7v-2.5h1.3
		c0,0.1,0,0.2,0,0.2l1,2.4h-2.1C17,26.8,16.9,26.8,16.9,26.7 M20.6,26.8l-1-2.6l1-2.6h0.4l1,2.6l-1,2.6H20.6z M24.8,26.7
		c0,0.1-0.1,0.2-0.2,0.2h-2.1l0.5-1.3h1.8V26.7z M24.8,24.2h-1.3c0-0.1,0-0.2,0-0.2l-1-2.4h2.1c0.1,0,0.2,0.1,0.2,0.2V24.2z"/>
	<path class="st5" d="M37.6,20.9h3.3c0.9,0,1.6,0.7,1.6,1.6v1.6h-4.9c-0.9,0-1.6-0.7-1.6-1.6C35.9,21.7,36.7,20.9,37.6,20.9"/>
	<path class="st4" d="M42.5,24.9h-4.9c-1.3,0-2.3-1-2.3-2.3c0-1.3,1-2.3,2.3-2.3h3.3c1.3,0,2.3,1,2.3,2.3v1.6
		C43.1,24.6,42.9,24.9,42.5,24.9 M37.6,21.6c-0.5,0-1,0.4-1,1c0,0.5,0.4,1,1,1h4.3v-1c0-0.5-0.4-1-1-1H37.6z"/>
	<rect x="15.6" y="30.1" class="st4" width="3.3" height="1.3"/>
	<rect x="20.2" y="30.1" class="st4" width="7.2" height="1.3"/>
	<rect x="15.6" y="34" class="st4" width="2" height="1.3"/>
	<rect x="18.9" y="34" class="st4" width="2" height="1.3"/>
	<rect x="22.2" y="34" class="st4" width="2" height="1.3"/>
	<rect x="25.4" y="34" class="st4" width="2" height="1.3"/>
	<rect x="39.2" y="26.2" class="st4" width="3.9" height="1.3"/>
	<rect x="35.3" y="26.2" class="st4" width="2.6" height="1.3"/>
	<path class="st2" d="M35.1,30.1h7.4v2.1c0,1.4-1.1,2.5-2.5,2.5h-7.4v-2.1C32.7,31.2,33.8,30.1,35.1,30.1"/>
	<path class="st6" d="M40.5,56.3V45.9l-4-6.6c-1.4-2.2-0.9-5.1,1.3-6.7l0.8-0.6l5.2,6.6H45c0.5,0,0.8-0.4,0.8-0.8V24.2H47
		c0.8,0,1.5,0.6,1.6,1.3L51,37.3l-2,9.2v9.8H40.5z"/>
	<rect x="48.4" y="51.1" class="st4" width="1.3" height="5.9"/>
	<path class="st4" d="M51.7,37.2l-2.4-11.8c-0.2-1.1-1.2-1.8-2.3-1.8h-0.6v-5.1c0-0.8-0.7-1.5-1.5-1.5H13.8c-0.8,0-1.5,0.7-1.5,1.5
		v1.8h1.3v-1.8c0-0.1,0.1-0.2,0.2-0.2H45c0.1,0,0.2,0.1,0.2,0.2v5.7h0v13.6c0,0.1-0.1,0.2-0.2,0.2h-0.9l-2.5-3.1
		c0.9-0.6,1.5-1.6,1.5-2.7v-2.1c0-0.4-0.3-0.7-0.7-0.7h-7.4c-1.7,0-3.1,1.4-3.1,3.1v2.1c0,0.4,0.3,0.7,0.7,0.7h2.6
		c-0.2,0.9-0.2,1.8,0,2.6H13.8c-0.1,0-0.2-0.1-0.2-0.2V21.6h-1.3v16.2c0,0.8,0.7,1.5,1.5,1.5H15l2.6,9.3c0.2,0.6,0.8,1.1,1.4,1.1
		c0.1,0,0.3,0,0.4-0.1l11.5-3.2L30.1,48c-0.2,0.3,0,0.7,0.3,0.9l0.3,0.1c1.1,0.5,2.3,0.7,3.5,0.5l-0.6,1.1c-0.2,0.3,0,0.7,0.3,0.9
		l0.3,0.1c1.8,0.9,4,0.7,5.6-0.4V57h1.3V45.9c0-0.1,0-0.2-0.1-0.3l-4-6.6c0,0,0,0,0,0c-1.2-1.9-0.7-4.5,1.1-5.8l0.3-0.2l4.9,6.1
		c0.1,0.2,0.3,0.2,0.5,0.2H45c0.8,0,1.5-0.7,1.5-1.5v-13H47c0.5,0,0.9,0.3,1,0.8l2.3,11.7l-1.9,9c0,0,0,0.1,0,0.1v3.3h1.3v-3.2
		l2-9.1C51.7,37.4,51.7,37.3,51.7,37.2 M31.6,48l1.1-2.2l5.1-1.4L37,45.9C36,47.9,33.6,48.8,31.6,48 M39.9,49.5
		c-1.2,1.3-3.1,1.8-4.8,1.1l0.9-1.8c0.9-0.6,1.7-1.4,2.2-2.3l0.9-1.8l0.8,1.3V49.5z M38,43l-18.9,5.3c-0.1,0-0.2,0-0.2-0.1l-2.5-8.9
		h19.4c0.1,0.1,0.1,0.2,0.2,0.4L38,43z M40.8,33.9l-1.8-2.2c-0.2-0.3-0.6-0.3-0.9-0.1l-0.8,0.6c-0.7,0.5-1.3,1.2-1.7,1.9h-2.4v-1.5
		c0-1,0.8-1.8,1.8-1.8h6.7v1.5C41.8,32.9,41.4,33.6,40.8,33.9"/>
</g>
</svg>
