<?xml version="1.0" encoding="utf-8"?>
<!-- Generator: Adobe Illustrator 22.0.0, SVG Export Plug-In . SVG Version: 6.00 Build 0)  -->
<svg version="1.1" id="Layer_1" xmlns="http://www.w3.org/2000/svg" xmlns:xlink="http://www.w3.org/1999/xlink" x="0px" y="0px"
	 viewBox="0 0 512 512" style="enable-background:new 0 0 512 512;" xml:space="preserve">
<style type="text/css">
	.st0{fill:#60A727;}
</style>
<g>
	<path class="st0" d="M92,106V37c0-11,9-20,20-20s20,9,20,20v49.7c15.7-21.6,35.4-40.1,58.1-54.5C223.6,11.2,262.3,0,302,0
		c115.8,0,210,94.2,210,210c0,11-9,20-20,20c-11,0-20-9-20-20c0-93.7-76.3-170-170-170c-57.8,0-110.4,28.7-141.7,76H211
		c11,0,20,9,20,20s-9,20-20,20h-69C114.4,156,92,133.6,92,106 M462,264h-69c-11,0-20,9-20,20c0,11,9,20,20,20h50.7
		c-31.3,47.3-83.9,76-141.7,76c-93.7,0-170-76.3-170-170c0-11-9-20-20-20s-20,9-20,20c0,50.9,18.2,97.7,48.5,134.1L5.9,477.8
		c-7.8,7.8-7.9,20.4-0.1,28.3C9.7,510,14.9,512,20,512c5.1,0,10.2-1.9,14.1-5.8l134.8-133.9C205.2,402.1,251.5,420,302,420
		c39.7,0,78.4-11.2,111.9-32.3c22.8-14.4,42.5-32.9,58.1-54.5V383c0,11,9,20,20,20c11,0,20-9,20-20v-69C512,286.4,489.6,264,462,264
		"/>
</g>
</svg>
