<?xml version="1.0" encoding="utf-8"?>
<!-- Generator: Adobe Illustrator 22.0.0, SVG Export Plug-In . SVG Version: 6.00 Build 0)  -->
<svg version="1.1" id="Capa_1" xmlns="http://www.w3.org/2000/svg" xmlns:xlink="http://www.w3.org/1999/xlink" x="0px" y="0px"
	 viewBox="0 0 100 100" style="enable-background:new 0 0 100 100;" xml:space="preserve">
<style type="text/css">
	.st0{fill:#DFE1ED;}
	.st1{fill:#60A727;}
	.st2{fill:#FFFFFF;}
	.st3{fill:#025792;}
</style>
<circle class="st0" cx="50" cy="50" r="50"/>
<g>
	<path class="st1" d="M66.1,35.7l6.9,6.8v24.1c0,3.6-2.9,6.5-6.5,6.5H33.5c-3.6,0-6.5-2.9-6.5-6.5V42.5l6.9-6.9L66.1,35.7z"/>
	<path class="st2" d="M57.8,57.8l8.3-8.3V29.8c0-1.6-1.3-2.8-2.8-2.8H36.7c-1.6,0-2.8,1.3-2.8,2.8v19.7l8.3,8.3l7.8-4.2L57.8,57.8z"
		/>
	<g>
		<polygon class="st3" points="66.1,35.7 73.1,42.5 66.1,49.4 		"/>
		<polygon class="st3" points="33.9,35.7 26.9,42.5 33.9,49.4 		"/>
	</g>
	<path d="M50,72.1L50,72.1c-0.5,0-0.9,0.4-0.9,0.9S49.5,74,50,74h0c0.5,0,0.9-0.4,0.9-0.9S50.5,72.1,50,72.1z"/>
	<path d="M73.7,41.8l-6.7-6.6v-5.5c0-2.1-1.7-3.8-3.8-3.8H36.7c-2.1,0-3.8,1.7-3.8,3.8v5.4l-6.7,6.7C26.1,42,26,42.2,26,42.5v24.1
		c0,4.1,3.3,7.5,7.5,7.5h23.5c0.5,0,0.9-0.4,0.9-0.9s-0.4-0.9-0.9-0.9H33.5c-1.1,0-2.1-0.3-3-0.9l1.8-1.8h14.4
		c0.5,0,0.9-0.4,0.9-0.9s-0.4-0.9-0.9-0.9H34.1l11.2-11.2c2.6-2.6,6.8-2.6,9.4,0l14.8,14.8c-0.9,0.5-1.9,0.9-3,0.9h-1.3
		c-0.5,0-0.9,0.4-0.9,0.9s0.4,0.9,0.9,0.9h1.3c1.9,0,3.7-0.7,5-1.9c0,0,0.1-0.1,0.1-0.1c0,0,0,0,0,0c1.4-1.4,2.4-3.3,2.4-5.4V42.5
		C74,42.2,73.9,42,73.7,41.8z M71.7,42.5l-4.7,4.7v-9.3L71.7,42.5z M32.9,47.2l-4.7-4.7l4.7-4.7V47.2z M27.9,66.5V44.8L41.1,58
		l-12,12C28.3,69,27.9,67.8,27.9,66.5z M44,55.1l-1.5,1.5L34.8,49V29.8c0-1,0.8-1.9,1.9-1.9h26.6c1,0,1.9,0.8,1.9,1.9V49l-7.6,7.6
		L56,55.1C52.7,51.8,47.3,51.8,44,55.1z M70.9,70l-12-12l13.2-13.2v21.8C72.1,67.8,71.7,69,70.9,70z"/>
	<path d="M45.3,36.5h9.4c0.5,0,0.9-0.4,0.9-0.9s-0.4-0.9-0.9-0.9h-9.4c-0.5,0-0.9,0.4-0.9,0.9S44.8,36.5,45.3,36.5z"/>
	<path d="M50,36.5c0.2,0,0.5-0.1,0.7-0.3c0.2-0.2,0.3-0.4,0.3-0.7s-0.1-0.5-0.3-0.7c-0.2-0.2-0.4-0.3-0.7-0.3s-0.5,0.1-0.7,0.3
		c-0.2,0.2-0.3,0.4-0.3,0.7s0.1,0.5,0.3,0.7C49.5,36.4,49.8,36.5,50,36.5z"/>
	<path d="M41.1,43.3h17.7c0.5,0,0.9-0.4,0.9-0.9s-0.4-0.9-0.9-0.9H41.1c-0.5,0-0.9,0.4-0.9,0.9S40.6,43.3,41.1,43.3z"/>
	<path d="M59.8,49.1c0-0.5-0.4-0.9-0.9-0.9H41.1c-0.5,0-0.9,0.4-0.9,0.9s0.4,0.9,0.9,0.9h17.7C59.4,50,59.8,49.6,59.8,49.1z"/>
</g>
</svg>
