<?xml version="1.0" encoding="utf-8"?>
<!-- Generator: Adobe Illustrator 22.0.0, SVG Export Plug-In . SVG Version: 6.00 Build 0)  -->
<svg version="1.1" id="Layer_1" xmlns="http://www.w3.org/2000/svg" xmlns:xlink="http://www.w3.org/1999/xlink" x="0px" y="0px"
	 viewBox="0 0 50 50" style="enable-background:new 0 0 50 50;" xml:space="preserve">
<style type="text/css">
	.st0{fill:#60A727;}
</style>
<g>
	<path class="st0" d="M35.9,50c-1.6,0-3.2-0.3-4.8-0.9c-6.9-2.5-13.3-6.6-18.5-11.8C7.4,32.1,3.4,25.7,0.9,18.8
		c-0.8-2.2-1-4.5-0.7-6.8c0.3-2.1,1.1-4.2,2.4-6c1.3-1.8,3-3.3,4.9-4.3C9.5,0.6,11.7,0,14.1,0c0.7,0,1.4,0.5,1.5,1.2l2.5,11.4
		c0.1,0.5,0,1.1-0.4,1.4l-4.2,4.2c4,7.9,10.4,14.3,18.2,18.2l4.2-4.2c0.4-0.4,0.9-0.5,1.4-0.4l11.4,2.5c0.7,0.2,1.2,0.8,1.2,1.5
		c0,2.4-0.6,4.6-1.7,6.7c-1,1.9-2.5,3.6-4.3,4.9c-1.8,1.3-3.9,2.1-6,2.4C37.3,50,36.6,50,35.9,50 M12.9,3.2C9.7,3.5,7,5.2,5.1,7.8
		c-2.1,3-2.6,6.6-1.3,10C8.6,31,19,41.4,32.2,46.2c3.4,1.2,7,0.7,10-1.3c2.6-1.8,4.3-4.6,4.6-7.7l-9.3-2l-4.4,4.4
		c-0.5,0.5-1.2,0.6-1.8,0.3c-9.3-4.4-16.8-11.9-21.2-21.2c-0.3-0.6-0.2-1.3,0.3-1.8l4.4-4.4L12.9,3.2z"/>
	<path class="st0" d="M48.4,26.6c-0.9,0-1.6-0.7-1.6-1.6c0-12.1-9.8-21.9-21.9-21.9c-0.9,0-1.6-0.7-1.6-1.6C23.4,0.7,24.1,0,25,0
		c6.7,0,13,2.6,17.7,7.3S50,18.3,50,25C50,25.9,49.3,26.6,48.4,26.6"/>
	<path class="st0" d="M42.2,26.6c-0.9,0-1.6-0.7-1.6-1.6c0-8.6-7-15.6-15.6-15.6c-0.9,0-1.6-0.7-1.6-1.6c0-0.9,0.7-1.6,1.6-1.6
		c10.3,0,18.7,8.4,18.7,18.7C43.8,25.9,43.1,26.6,42.2,26.6"/>
	<path class="st0" d="M35.9,26.6c-0.9,0-1.6-0.7-1.6-1.6c0-5.2-4.2-9.4-9.4-9.4c-0.9,0-1.6-0.7-1.6-1.6c0-0.9,0.7-1.6,1.6-1.6
		c6.9,0,12.5,5.6,12.5,12.5C37.5,25.9,36.8,26.6,35.9,26.6"/>
</g>
</svg>
