<?xml version="1.0" encoding="utf-8"?>
<!-- Generator: Adobe Illustrator 22.0.0, SVG Export Plug-In . SVG Version: 6.00 Build 0)  -->
<svg version="1.1" id="Layer_1" xmlns="http://www.w3.org/2000/svg" xmlns:xlink="http://www.w3.org/1999/xlink" x="0px" y="0px"
	 viewBox="0 0 512 355" style="enable-background:new 0 0 512 355;" xml:space="preserve">
<style type="text/css">
	.st0{fill:#60A727;}
</style>
<g>
	<path class="st0" d="M508.6,176.2l-30.1-38.8l0,0l-48.4-96.3c-2.7-5.4-8.3-8.9-14.4-8.9h-68.8V16.1c0-8.9-7.2-16.1-16.1-16.1H61.8
		c-8.9,0-16.1,7.2-16.1,16.1c0,8.9,7.2,16.1,16.1,16.1h252.8v112.9c0,8.9,7.2,16.1,16.1,16.1h125.5l23.5,30.3v83.2h-30.4
		c-7-28.1-32.4-48.9-62.6-48.9c-30.2,0-55.6,20.9-62.6,48.9h-95.3c-7-28.1-32.4-48.9-62.6-48.9s-55.6,20.9-62.6,48.9H61.8
		c-8.9,0-16.1,7.2-16.1,16.1c0,8.9,7.2,16.1,16.1,16.1h42c7.4,27.5,32.5,47.9,62.3,47.9c29.8,0,55-20.3,62.3-47.9h95.8
		c7.4,27.5,32.5,47.9,62.3,47.9c29.8,0,55-20.3,62.3-47.9h46.8c8.9,0,16.1-7.2,16.1-16.1V186.1C512,182.5,510.8,179,508.6,176.2
		 M346.9,64.5h58.9l32.4,64.5h-91.3V64.5z M166.2,322.7c-17.8,0-32.3-14.5-32.3-32.3c0-17.8,14.5-32.3,32.3-32.3
		c17.8,0,32.3,14.5,32.3,32.3C198.5,308.2,184,322.7,166.2,322.7 M386.7,322.7c-17.8,0-32.3-14.5-32.3-32.3
		c0-17.8,14.5-32.3,32.3-32.3c17.8,0,32.3,14.5,32.3,32.3C419,308.2,404.5,322.7,386.7,322.7"/>
	<path class="st0" d="M132.8,209.2c0-8.9-7.2-16.1-16.1-16.1H42.5c-8.9,0-16.1,7.2-16.1,16.1c0,8.9,7.2,16.1,16.1,16.1h74.2
		C125.6,225.3,132.8,218.1,132.8,209.2"/>
	<path class="st0" d="M169.9,145.7c0-8.9-7.2-16.1-16.1-16.1H16.1c-8.9,0-16.1,7.2-16.1,16.1c0,8.9,7.2,16.1,16.1,16.1h137.7
		C162.7,161.9,169.9,154.7,169.9,145.7"/>
	<path class="st0" d="M42.5,98.4h137.7c8.9,0,16.1-7.2,16.1-16.1c0-8.9-7.2-16.1-16.1-16.1H42.5c-8.9,0-16.1,7.2-16.1,16.1
		C26.4,91.2,33.6,98.4,42.5,98.4"/>
</g>
</svg>
