<?xml version="1.0" encoding="utf-8"?>
<!-- Generator: Adobe Illustrator 22.0.0, SVG Export Plug-In . SVG Version: 6.00 Build 0)  -->
<svg version="1.1" id="Layer_1" xmlns="http://www.w3.org/2000/svg" xmlns:xlink="http://www.w3.org/1999/xlink" x="0px" y="0px"
	 viewBox="0 0 64 64" style="enable-background:new 0 0 64 64;" xml:space="preserve">
<style type="text/css">
	.st0{fill-rule:evenodd;clip-rule:evenodd;fill:#E1612C;}
	.st1{clip-path:url(#SVGID_2_);fill:#4793FF;}
	.st2{clip-path:url(#SVGID_2_);fill:#525CDD;}
	.st3{clip-path:url(#SVGID_2_);fill:#DFE7F4;}
	.st4{clip-path:url(#SVGID_2_);fill:#B6C0D1;}
	.st5{clip-path:url(#SVGID_2_);fill:#F0F7FF;}
	.st6{clip-path:url(#SVGID_2_);fill:#47568C;}
	.st7{clip-path:url(#SVGID_2_);fill:#FFE14D;}
	.st8{clip-path:url(#SVGID_2_);fill:#59C36A;}
	.st9{clip-path:url(#SVGID_2_);fill:#FABE2C;}
</style>
<circle class="st0" cx="32" cy="32" r="32"/>
<g>
	<defs>
		<rect id="SVGID_1_" x="11.4" y="11.4" width="41.7" height="41.2"/>
	</defs>
	<clipPath id="SVGID_2_">
		<use xlink:href="#SVGID_1_"  style="overflow:visible;"/>
	</clipPath>
	<path class="st1" d="M53.1,19.9v4l-0.8,0.8h-4.8L46,23.9v-4c0-0.7,0.6-1.2,1.3-1.2h4.5C52.5,18.7,53.1,19.2,53.1,19.9"/>
	<path class="st2" d="M53.1,19.9v4l-0.8,0.8h-2.7v-6h2.3C52.5,18.7,53.1,19.2,53.1,19.9"/>
	<path class="st3" d="M53.1,23.9v21.5c0,0-0.9,0.5-0.9,0.5c0,0-1.3,0-2.7,0c-1.4,0-2.8,0-2.8,0L46,45.4V23.9H53.1z"/>
	<path class="st4" d="M53.1,23.9v21.5c0,0-0.9,0.5-0.9,0.5c0,0-1.3,0-2.7,0V23.9H53.1z"/>
	<rect x="12.7" y="20.1" class="st5" width="29.2" height="31.1"/>
	<rect x="27.4" y="20.1" class="st3" width="14.6" height="31.1"/>
	<path class="st6" d="M42,52.6H12.7c-0.7,0-1.3-0.5-1.3-1.2V19.9c0-0.7,0.6-1.2,1.3-1.2H42c0.7,0,1.3,0.5,1.3,1.2v31.5
		C43.3,52.1,42.7,52.6,42,52.6 M13.9,50.2h26.8V21.1H13.9V50.2z"/>
	<path class="st7" d="M35.5,16.3h-2c-0.6-2.8-3.2-4.8-6.2-4.8s-5.6,2-6.2,4.8h-2c-0.7,0-1.3,0.5-1.3,1.2v4.8c0,0.7,0.6,1.2,1.3,1.2
		h16.2c0.7,0,1.3-0.5,1.3-1.2v-4.8C36.7,16.8,36.2,16.3,35.5,16.3 M27.4,18.7c-0.7,0-1.3-0.5-1.3-1.2c0-0.7,0.6-1.2,1.3-1.2
		c0.7,0,1.3,0.5,1.3,1.2C28.6,18.1,28,18.7,27.4,18.7"/>
	<path class="st8" d="M18,30.4l-1.2-1.2c-0.5-0.5-0.5-1.2,0-1.7c0.5-0.5,1.3-0.5,1.8,0l0.3,0.3l1.6-1.5c0.5-0.5,1.3-0.5,1.8,0
		c0.5,0.5,0.5,1.2,0,1.7l-2.5,2.4C19.3,30.8,18.5,30.8,18,30.4"/>
	<path class="st8" d="M18,37.6l-1.2-1.2c-0.5-0.5-0.5-1.2,0-1.7c0.5-0.5,1.3-0.5,1.8,0l0.3,0.3l1.6-1.5c0.5-0.5,1.3-0.5,1.8,0
		c0.5,0.5,0.5,1.2,0,1.7l-2.5,2.4C19.3,38.1,18.5,38.1,18,37.6"/>
	<path class="st8" d="M18,44.8l-1.2-1.2c-0.5-0.5-0.5-1.2,0-1.7c0.5-0.5,1.3-0.5,1.8,0l0.3,0.3l1.6-1.5c0.5-0.5,1.3-0.5,1.8,0
		c0.5,0.5,0.5,1.2,0,1.7l-2.5,2.4C19.3,45.3,18.5,45.3,18,44.8"/>
	<path class="st1" d="M38.3,28.3c0,0.7-0.6,1.2-1.3,1.2H26.4c-0.7,0-1.3-0.5-1.3-1.2c0-0.7,0.6-1.2,1.3-1.2H37
		C37.7,27.1,38.3,27.6,38.3,28.3"/>
	<path class="st1" d="M38.3,35.6c0,0.7-0.6,1.2-1.3,1.2H26.4c-0.7,0-1.3-0.5-1.3-1.2c0-0.7,0.6-1.2,1.3-1.2H37
		C37.7,34.3,38.3,34.9,38.3,35.6"/>
	<path class="st1" d="M38.3,42.8c0,0.7-0.6,1.2-1.3,1.2H26.4c-0.7,0-1.3-0.5-1.3-1.2c0-0.7,0.6-1.2,1.3-1.2H37
		C37.7,41.6,38.3,42.1,38.3,42.8"/>
	<path class="st9" d="M36.7,17.5v4.8c0,0.7-0.6,1.2-1.3,1.2h-8.1v-4.8c0.7,0,1.3-0.5,1.3-1.2c0-0.7-0.6-1.2-1.3-1.2v-4.8
		c3,0,5.6,2,6.2,4.8h2C36.2,16.3,36.7,16.8,36.7,17.5"/>
	<path class="st2" d="M38.3,42.8c0,0.7-0.6,1.2-1.3,1.2h-9.6v-2.4H37C37.7,41.6,38.3,42.1,38.3,42.8"/>
	<path class="st2" d="M38.3,35.6c0,0.7-0.6,1.2-1.3,1.2h-9.6v-2.4H37C37.7,34.3,38.3,34.9,38.3,35.6"/>
	<path class="st2" d="M37,29.5h-9.6v-2.4H37c0.7,0,1.3,0.5,1.3,1.2C38.3,29,37.7,29.5,37,29.5"/>
	<path class="st1" d="M53.1,45.4V46c0,0.6-0.1,1.2-0.4,1.7l-2,4.3c-0.2,0.4-0.6,0.7-1.1,0.7c-0.5,0-0.9-0.3-1.1-0.7l-2-4.3
		C46.2,47.2,46,46.6,46,46v-0.5H53.1z"/>
	<path class="st2" d="M53.1,45.4V46c0,0.6-0.1,1.2-0.4,1.7l-2,4.3c-0.2,0.4-0.6,0.7-1.1,0.7v-7.2H53.1z"/>
</g>
</svg>
