<?xml version="1.0" encoding="utf-8"?>
<!-- Generator: Adobe Illustrator 22.0.0, SVG Export Plug-In . SVG Version: 6.00 Build 0)  -->
<svg version="1.1" id="Layer_1" xmlns="http://www.w3.org/2000/svg" xmlns:xlink="http://www.w3.org/1999/xlink" x="0px" y="0px"
	 viewBox="0 0 64 64" style="enable-background:new 0 0 64 64;" xml:space="preserve">
<style type="text/css">
	.st0{fill-rule:evenodd;clip-rule:evenodd;fill:#FFFFFF;}
	.st1{clip-path:url(#SVGID_2_);fill:#FFCDAC;}
	.st2{clip-path:url(#SVGID_2_);fill:#FFB487;}
	.st3{clip-path:url(#SVGID_2_);fill:#78D2FA;}
	.st4{clip-path:url(#SVGID_2_);fill:#FF5A5A;}
	.st5{clip-path:url(#SVGID_2_);fill:#F5B955;}
	.st6{clip-path:url(#SVGID_2_);}
</style>
<circle class="st0" cx="32" cy="32" r="32"/>
<g>
	<defs>
		<rect id="SVGID_1_" x="12" y="11" width="40" height="40"/>
	</defs>
	<clipPath id="SVGID_2_">
		<use xlink:href="#SVGID_1_"  style="overflow:visible;"/>
	</clipPath>
	<path class="st1" d="M24.7,28.7h4.9c0.8,0,1.5,0.3,2,0.9l3.2,3.8c0.7,0.8,0.4,2.1-0.6,2.6c-0.6,0.3-1.4,0.2-1.8-0.3l-2.2-2.3
		l-8.5,7.9l-3.2-1.9L24.7,28.7z"/>
	<path class="st2" d="M39.2,28.7h-2.3c-0.7,0-1.4,0.3-1.9,0.8L33,31.3l1.8,2.2c0.7,0.8,0.4,2.1-0.6,2.6c-0.6,0.3-1.4,0.2-1.8-0.3
		l-2.1-2.2l-2.9,2.5l-5.6,5.2c-0.2,0.5-0.1,1.1,0.2,1.5c0.5,0.6,1.4,0.7,2.1,0.1c-0.6,0.5-0.7,1.4-0.1,2.1c0.5,0.6,1.4,0.7,2.1,0.1
		c-0.6,0.5-0.7,1.4-0.1,2.1c0.5,0.6,1.4,0.7,2.1,0.1c-0.6,0.5-0.7,1.4-0.1,2.1c0.5,0.6,1.4,0.7,2.1,0.1l0,0l2.2-1.9l13-8.3
		L39.2,28.7z"/>
	<rect x="42" y="25.3" transform="matrix(0.866 -0.5 0.5 0.866 -10.2535 26.8579)" class="st3" width="6.1" height="14.4"/>
	<rect x="11.8" y="29.5" transform="matrix(0.5 -0.866 0.866 0.5 -18.694 32.7445)" class="st4" width="14.4" height="6.1"/>
	<path class="st1" d="M35.5,49.8L35.5,49.8c-0.6,0.6-1.5,0.6-2.1,0l-1-1c-0.6-0.6-0.6-1.5,0-2.1c0.6-0.6,1.5-0.6,2.1,0l1,1
		C36.1,48.3,36.1,49.2,35.5,49.8"/>
	<path class="st1" d="M37.6,47.7L37.6,47.7c-0.6,0.6-1.5,0.6-2.1,0l-1-1c-0.6-0.6-0.6-1.5,0-2.1c0.6-0.6,1.5-0.6,2.1,0l1,1
		C38.2,46.2,38.2,47.1,37.6,47.7"/>
	<path class="st1" d="M39.7,45.6L39.7,45.6c-0.6,0.6-1.5,0.6-2.1,0l-1-1c-0.6-0.6-0.6-1.5,0-2.1c0.6-0.6,1.5-0.6,2.1,0l1,1
		C40.3,44.1,40.3,45,39.7,45.6"/>
	<path class="st1" d="M41.8,43.5L41.8,43.5c-0.6,0.6-1.5,0.6-2.1,0l-1-1c-0.6-0.6-0.6-1.5,0-2.1c0.6-0.6,1.5-0.6,2.1,0l1,1
		C42.4,42,42.4,42.9,41.8,43.5"/>
	<path class="st5" d="M32,11.8c3.9,0,7.1,3.2,7.1,7.1S35.9,26,32,26c-3.9,0-7.1-3.2-7.1-7.1S28.1,11.8,32,11.8"/>
	<path class="st6" d="M51.9,36.9l-7.2-12.5c-0.2-0.4-0.7-0.5-1.1-0.3l-5.2,3c-0.2,0.1-0.3,0.3-0.4,0.5c0,0.1,0,0.2,0,0.3h-1
		c-0.9,0-1.8,0.4-2.4,1l-1.4,1.4l-1-1.1c-0.6-0.8-1.6-1.2-2.6-1.2H26c0-0.1,0-0.2,0-0.3c-0.1-0.2-0.2-0.4-0.4-0.5l-5.2-3
		c-0.4-0.2-0.9-0.1-1.1,0.3l-1.7,3c-0.2,0.4-0.1,0.9,0.3,1.1c0.4,0.2,0.9,0.1,1.1-0.3l1.4-2.3l3.9,2.2l-6.4,11.1L13.8,37l1.4-2.5
		c0.2-0.4,0.1-0.9-0.3-1.1c-0.4-0.2-0.9-0.1-1.1,0.3l-1.8,3.2C12,37.1,12,37.3,12,37.5c0.1,0.2,0.2,0.4,0.4,0.5l5.2,3
		c0.1,0.1,0.3,0.1,0.4,0.1c0.1,0,0.1,0,0.2,0c0.2-0.1,0.4-0.2,0.5-0.4l0.1-0.1l2.1,1.2c0,0.5,0.2,1.1,0.6,1.5
		c0.4,0.4,0.9,0.7,1.4,0.7c0,0.5,0.2,1,0.6,1.4c0.4,0.4,0.8,0.7,1.4,0.7c0,0.5,0.2,1,0.6,1.4c0.4,0.4,0.9,0.7,1.4,0.7
		c0,0.5,0.2,1,0.6,1.4c0.4,0.5,1.1,0.8,1.7,0.8c0.5,0,1-0.2,1.4-0.5c0,0,0,0,0,0l1.2-1.1c0.1,0.1,0.2,0.3,0.3,0.4l1,1
		c0.4,0.4,1,0.7,1.6,0.7c0.6,0,1.2-0.2,1.6-0.7c0.4-0.4,0.6-0.9,0.7-1.4c0.5,0,1-0.3,1.4-0.7c0.4-0.4,0.6-0.9,0.7-1.4
		c0.5,0,1-0.3,1.4-0.7c0.4-0.4,0.6-0.9,0.7-1.4c0.5,0,1-0.3,1.4-0.7c0.7-0.7,0.8-1.6,0.5-2.4l2.1-1.4l0.3,0.5
		c0.1,0.2,0.3,0.3,0.5,0.4c0.1,0,0.1,0,0.2,0c0.1,0,0.3,0,0.4-0.1l5.2-3C52,37.8,52.1,37.3,51.9,36.9 M35,49.2c-0.3,0.3-0.7,0.3-1,0
		l-1-1c-0.1-0.1-0.2-0.3-0.2-0.5c0-0.2,0.1-0.4,0.2-0.5c0.1-0.1,0.3-0.2,0.5-0.2c0.2,0,0.4,0.1,0.5,0.2l1,1
		C35.3,48.5,35.3,49,35,49.2 M37.1,47.1c-0.3,0.3-0.7,0.3-1,0l-1-1c-0.1-0.1-0.2-0.3-0.2-0.5c0-0.2,0.1-0.4,0.2-0.5
		c0.1-0.1,0.3-0.2,0.5-0.2c0.2,0,0.4,0.1,0.5,0.2l1,1C37.3,46.4,37.3,46.9,37.1,47.1 M39.2,45L39.2,45c-0.3,0.3-0.7,0.3-1,0l-1-1
		c-0.1-0.1-0.2-0.3-0.2-0.5c0-0.2,0.1-0.4,0.2-0.5c0.1-0.1,0.3-0.2,0.5-0.2c0.2,0,0.4,0.1,0.5,0.2l1,1C39.4,44.3,39.4,44.8,39.2,45
		 M41.3,42.9c-0.3,0.3-0.7,0.3-1,0l-1-1c-0.3-0.3-0.3-0.7,0-1c0.1-0.1,0.3-0.2,0.5-0.2c0.2,0,0.4,0.1,0.5,0.2l1,1
		C41.5,42.2,41.5,42.7,41.3,42.9 M41.9,40.4l-0.5-0.5c-0.9-0.9-2.3-0.9-3.2,0c-0.4,0.4-0.6,0.9-0.7,1.4c-0.5,0-1,0.3-1.4,0.7
		c-0.4,0.4-0.6,0.9-0.7,1.4c-0.5,0-1,0.3-1.4,0.7c-0.4,0.4-0.6,0.9-0.7,1.4c-0.5,0-1,0.3-1.4,0.7c-0.3,0.3-0.5,0.6-0.6,1l-2,1.7
		c0,0,0,0,0,0c-0.3,0.2-0.7,0.2-0.9-0.1c-0.2-0.3-0.2-0.7,0.1-0.9c0,0,2.3-2.2,2.3-2.2c0.3-0.3,0.3-0.8,0-1.1
		c-0.3-0.3-0.8-0.3-1.1,0c0,0-2,2-2,2c-0.1,0-0.1,0.1-0.2,0.1c-0.3,0.2-0.7,0.2-0.9-0.1c-0.2-0.3-0.2-0.7,0.1-0.9
		c0.1-0.1,0.1-0.1,0.2-0.2l2.1-2.1c0.3-0.3,0.3-0.8,0-1.1c-0.3-0.3-0.8-0.3-1.1,0l-2.3,2.3c0,0-0.1,0.1-0.1,0.1
		c-0.1,0.1-0.2,0.1-0.4,0.1c-0.2,0-0.3-0.1-0.5-0.2c-0.1-0.1-0.2-0.3-0.2-0.5c0-0.2,0.1-0.3,0.2-0.5c0,0,0,0,0,0c0,0,0,0,0,0
		l2.5-2.5c0.3-0.3,0.3-0.8,0-1.1c-0.3-0.3-0.8-0.3-1.1,0l-2.5,2.5c-0.3,0.2-0.7,0.2-0.9-0.1c-0.2-0.3-0.2-0.7,0.1-0.9
		c0,0,2.2-2.1,2.2-2.1c0.3-0.3,0.3-0.8,0-1.1c-0.3-0.3-0.8-0.3-1.1,0c0,0-2.3,2.2-2.3,2.2l-1.9-1.1l5.6-9.7h4.4
		c0.5,0,1.1,0.2,1.4,0.7l3.2,3.8c0.2,0.2,0.2,0.5,0.2,0.8c-0.1,0.3-0.2,0.5-0.5,0.6c-0.3,0.2-0.7,0.1-1-0.2L29.5,32
		c-0.3-0.3-0.8-0.3-1.1,0c-0.3,0.3-0.3,0.8,0,1.1l0.2,0.2c-0.6,1.2-1.9,2-3.3,1.9l0,0c-0.4,0-0.8,0.3-0.8,0.7c0,0.4,0.3,0.8,0.7,0.8
		l0,0c0.1,0,0.2,0,0.4,0c1.7,0,3.3-0.9,4.2-2.3l2,1.9c0.5,0.4,1.1,0.7,1.7,0.7c0.3,0,0.7-0.1,1-0.2c0.7-0.3,1.2-0.9,1.4-1.7
		c0.2-0.7,0-1.5-0.5-2.1l-1.2-1.5l1.5-1.5c0.3-0.3,0.8-0.5,1.3-0.5h1.9l5.4,9.3L41.9,40.4z M46.3,39.3l-6.4-11.1l3.9-2.2L50.2,37
		L46.3,39.3z"/>
	<path class="st6" d="M16,31.8c0.1,0.1,0.3,0.1,0.4,0.1c0.3,0,0.5-0.1,0.7-0.4l0.1-0.1c0.2-0.4,0.1-0.9-0.3-1.1
		c-0.4-0.2-0.9-0.1-1.1,0.3l-0.1,0.1C15.5,31.1,15.6,31.6,16,31.8"/>
	<path class="st6" d="M47,36.8c0.2,0,0.4-0.1,0.6-0.2c0.1-0.1,0.2-0.3,0.2-0.6s-0.1-0.4-0.2-0.6c-0.1-0.1-0.3-0.2-0.6-0.2
		s-0.4,0.1-0.6,0.2s-0.2,0.3-0.2,0.6s0.1,0.4,0.2,0.6C46.6,36.7,46.8,36.8,47,36.8"/>
	<path class="st6" d="M16.4,35.4c-0.1,0.1-0.2,0.3-0.2,0.6s0.1,0.4,0.2,0.6c0.1,0.1,0.3,0.2,0.6,0.2c0.2,0,0.4-0.1,0.6-0.2
		c0.1-0.1,0.2-0.3,0.2-0.6s-0.1-0.4-0.2-0.6c-0.1-0.1-0.3-0.2-0.6-0.2C16.8,35.2,16.6,35.3,16.4,35.4"/>
	<path class="st6" d="M30.5,17.6c0-0.2-0.1-0.4-0.2-0.6c-0.1-0.1-0.3-0.2-0.6-0.2c-0.2,0-0.4,0.1-0.6,0.2c-0.1,0.1-0.2,0.3-0.2,0.6
		c0,0.2,0.1,0.4,0.2,0.6c0.1,0.1,0.3,0.2,0.6,0.2c0.2,0,0.4-0.1,0.6-0.2C30.4,18,30.5,17.8,30.5,17.6"/>
	<path class="st6" d="M34,17.1c-0.1,0.1-0.2,0.3-0.2,0.6c0,0.2,0.1,0.4,0.2,0.6c0.1,0.1,0.3,0.2,0.6,0.2c0.2,0,0.4-0.1,0.6-0.2
		c0.1-0.1,0.2-0.3,0.2-0.6c0-0.2-0.1-0.4-0.2-0.6c-0.1-0.1-0.3-0.2-0.6-0.2C34.3,16.9,34.1,16.9,34,17.1"/>
	<path class="st6" d="M32,26.8c4.4,0,7.9-3.5,7.9-7.9c0-0.9-0.2-1.8-0.4-2.6c-0.1-0.4-0.6-0.6-1-0.5s-0.6,0.6-0.5,1
		c0.2,0.7,0.4,1.4,0.4,2.1c0,3.5-2.8,6.3-6.3,6.3s-6.3-2.8-6.3-6.3s2.8-6.3,6.3-6.3c0.7,0,1.4,0.1,2,0.3c0.4,0.1,0.9-0.1,1-0.5
		c0.1-0.4-0.1-0.9-0.5-1C33.7,11.1,32.9,11,32,11c-4.4,0-7.9,3.5-7.9,7.9S27.6,26.8,32,26.8"/>
	<path class="st6" d="M36.6,14.5c0.2,0.2,0.4,0.2,0.6,0.2c0.2,0,0.4-0.1,0.5-0.2c0.3-0.3,0.3-0.8,0-1.1c0,0,0,0-0.1-0.1
		c-0.3-0.3-0.8-0.3-1.1,0C36.2,13.7,36.2,14.2,36.6,14.5C36.5,14.5,36.6,14.5,36.6,14.5"/>
	<path class="st6" d="M32.1,22.4c0.7,0,1.5-0.3,2.1-0.9c0.3-0.3,0.3-0.8,0-1.1c-0.3-0.3-0.8-0.3-1.1,0c-0.5,0.5-1.4,0.5-1.9,0
		c-0.3-0.3-0.8-0.3-1.1,0c-0.3,0.3-0.3,0.8,0,1.1C30.6,22.1,31.4,22.4,32.1,22.4"/>
	<path class="st6" d="M45.9,15.7h0.5c0.4,0,0.8-0.3,0.8-0.8c0-0.4-0.3-0.8-0.8-0.8h-0.5c-0.4,0-0.8,0.3-0.8,0.8
		C45.1,15.3,45.5,15.7,45.9,15.7"/>
	<path class="st6" d="M49.7,15.7h0.5c0.4,0,0.8-0.3,0.8-0.8c0-0.4-0.3-0.8-0.8-0.8h-0.5c-0.4,0-0.8,0.3-0.8,0.8
		C48.9,15.3,49.3,15.7,49.7,15.7"/>
	<path class="st6" d="M48.1,17.9c0.4,0,0.8-0.3,0.8-0.8v-0.5c0-0.4-0.3-0.8-0.8-0.8c-0.4,0-0.8,0.3-0.8,0.8v0.5
		C47.3,17.5,47.7,17.9,48.1,17.9"/>
	<path class="st6" d="M48.1,14.1c0.4,0,0.8-0.3,0.8-0.8v-0.5c0-0.4-0.3-0.8-0.8-0.8c-0.4,0-0.8,0.3-0.8,0.8v0.5
		C47.3,13.7,47.7,14.1,48.1,14.1"/>
	<path class="st6" d="M12.8,21.8h0.5c0.4,0,0.8-0.3,0.8-0.8s-0.3-0.8-0.8-0.8h-0.5c-0.4,0-0.8,0.3-0.8,0.8S12.3,21.8,12.8,21.8"/>
	<path class="st6" d="M16.6,21.8h0.5c0.4,0,0.8-0.3,0.8-0.8s-0.3-0.8-0.8-0.8h-0.5c-0.4,0-0.8,0.3-0.8,0.8S16.1,21.8,16.6,21.8"/>
	<path class="st6" d="M14.9,24c0.4,0,0.8-0.3,0.8-0.8v-0.5c0-0.4-0.3-0.8-0.8-0.8c-0.4,0-0.8,0.3-0.8,0.8v0.5
		C14.2,23.6,14.5,24,14.9,24"/>
	<path class="st6" d="M14.9,20.2c0.4,0,0.8-0.3,0.8-0.8v-0.5c0-0.4-0.3-0.8-0.8-0.8c-0.4,0-0.8,0.3-0.8,0.8v0.5
		C14.2,19.8,14.5,20.2,14.9,20.2"/>
</g>
</svg>
