<?xml version="1.0" encoding="utf-8"?>
<!-- Generator: Adobe Illustrator 22.0.0, SVG Export Plug-In . SVG Version: 6.00 Build 0)  -->
<svg version="1.1" id="Layer_1" xmlns="http://www.w3.org/2000/svg" xmlns:xlink="http://www.w3.org/1999/xlink" x="0px" y="0px"
	 viewBox="0 0 64 64" style="enable-background:new 0 0 64 64;" xml:space="preserve">
<style type="text/css">
	.st0{fill-rule:evenodd;clip-rule:evenodd;fill:#FFFFFF;}
	.st1{clip-path:url(#SVGID_2_);fill:#E1972C;}
	.st2{clip-path:url(#SVGID_2_);fill:#C17B1F;}
	.st3{clip-path:url(#SVGID_2_);fill:#E4F6FF;}
	.st4{clip-path:url(#SVGID_2_);fill:#EFC984;}
	.st5{clip-path:url(#SVGID_2_);fill:#EABC6B;}
	.st6{clip-path:url(#SVGID_2_);fill:#FFDDCE;}
	.st7{clip-path:url(#SVGID_2_);fill:#FFCBBE;}
	.st8{clip-path:url(#SVGID_2_);fill:#1ED283;}
	.st9{clip-path:url(#SVGID_2_);fill:#4A80AA;}
	.st10{clip-path:url(#SVGID_2_);fill:#1CBA6F;}
	.st11{clip-path:url(#SVGID_2_);fill:#407093;}
	.st12{clip-path:url(#SVGID_2_);fill:#FFE07D;}
	.st13{clip-path:url(#SVGID_2_);fill:#F4FBFF;}
	.st14{clip-path:url(#SVGID_2_);}
</style>
<circle class="st0" cx="32" cy="32" r="32"/>
<g>
	<defs>
		<rect id="SVGID_1_" x="16.2" y="12" width="31.7" height="40"/>
	</defs>
	<clipPath id="SVGID_2_">
		<use xlink:href="#SVGID_1_"  style="overflow:visible;"/>
	</clipPath>
	<path class="st1" d="M43.4,38.7L37.5,37L32,43.3L26.5,37l-5.9,1.7c-2.3,0.7-3.9,2.8-3.9,5.2v5.7c0,1.1,0.9,1.9,1.9,1.9h26.7
		c1.1,0,1.9-0.9,1.9-1.9v-5.7C47.2,41.5,45.7,39.4,43.4,38.7"/>
	<path class="st2" d="M43.4,38.7L37.5,37l-2.7,3.1l3.6,1.1c2.3,0.7,3.9,2.8,3.9,5.2v5.1h3c1.1,0,1.9-0.9,1.9-1.9v-5.7
		C47.2,41.5,45.7,39.4,43.4,38.7"/>
	<path class="st3" d="M21.2,24.1l-0.6-0.7h-1.3l-0.6,0.7l-0.8,4.6c-0.1,0.4,0.3,0.8,0.7,0.8h2.7c0.4,0,0.8-0.4,0.7-0.8L21.2,24.1z"
		/>
	<path class="st4" d="M35.2,16.6h-0.1h-6.2h-0.1c-2.3,0-4.3,1.9-4.3,4.3v0.1v4.7h15v-4.7v-0.1C39.5,18.5,37.6,16.6,35.2,16.6"/>
	<path class="st5" d="M35.2,16.6h-0.1h-0.6v9h4.9v-4.7v-0.1C39.5,18.5,37.6,16.6,35.2,16.6"/>
	<path class="st6" d="M38.2,24.9c-0.7,0-1.3-0.6-1.3-1.3v-2h-9.9v2c0,0.7-0.6,1.3-1.3,1.3h-1.3V27c0,0.5,0.4,1,1,1
		c0.2,0,0.3,0.1,0.3,0.3c0.2,3.3,2.9,5.8,6.2,5.8s6-2.6,6.2-5.8c0-0.2,0.1-0.3,0.3-0.3c0.5,0,1-0.4,1-1v-2.1H38.2z"/>
	<path class="st7" d="M38.2,24.9c-0.7,0-1.3-0.6-1.3-1.3v-2h-2.4v7.2c-0.1,2.2-1.4,4.2-3.3,5.2c0.2,0,0.5,0,0.7,0
		c3.3,0,6-2.6,6.2-5.8c0-0.2,0.1-0.3,0.3-0.3c0.5,0,1-0.4,1-1v-2.1L38.2,24.9L38.2,24.9z"/>
	<path class="st8" d="M31.8,12.6l-11.9,3.8c-0.7,0.2-0.6,1.2,0.1,1.3l12,2l12-2c0.7-0.1,0.8-1.1,0.1-1.3l-11.9-3.8
		C32.1,12.6,31.9,12.6,31.8,12.6"/>
	<path class="st9" d="M39.4,21.9H24.6c-0.3,0-0.6-0.3-0.6-0.6v-2.9l6.6-0.8c0.9-0.1,1.9-0.1,2.8,0l6.6,0.8v2.9
		C40,21.6,39.7,21.9,39.4,21.9"/>
	<path class="st10" d="M44.1,16.4L33.3,13v3.4c0,0.7,0.6,1.3,1.3,1.3v1.6l9.4-1.6C44.7,17.6,44.7,16.6,44.1,16.4"/>
	<path class="st11" d="M34.6,17.7v4.2h4.8c0.3,0,0.6-0.3,0.6-0.6v-2.9L34.6,17.7z"/>
	<path class="st12" d="M21.2,24.1h-2.5v-1.6c0-0.3,0.3-0.6,0.6-0.6h1.2c0.3,0,0.6,0.3,0.6,0.6L21.2,24.1L21.2,24.1z"/>
	<path class="st9" d="M35.5,34.4c0,2.3-0.7,4.5-1.9,6.4L32,43.3l9-5.3L35.5,34.4z"/>
	<path class="st9" d="M28.5,34.4c0,2.3,0.7,4.5,1.9,6.4l1.6,2.5L23,38L28.5,34.4z"/>
	<path class="st13" d="M35,37.9c-0.9,0.2-1.9,0.3-3,0.3c-1.1,0-2.1-0.1-3-0.3c0.3,1,0.8,2,1.4,3l1.6,2.5l1.6-2.5
		C34.2,39.9,34.7,38.9,35,37.9"/>
	<path class="st14" d="M43.5,38.1l-2.3-0.7l-5.1-3.3v-0.8c1.5-1.1,2.5-2.8,2.7-4.8c0.7-0.1,1.3-0.8,1.3-1.5v-2.1c0,0,0,0,0,0v-2.7
		c0.3-0.2,0.5-0.6,0.5-0.9v-2.4l3.5-0.6c0.6-0.1,1-0.6,1-1.1c0-0.6-0.3-1.1-0.9-1.3l-11.9-3.8c-0.2-0.1-0.5-0.1-0.8,0l-11.9,3.8
		c-0.6,0.2-0.9,0.7-0.9,1.3c0,0.4,0.2,0.7,0.5,0.9v3.2h0c-0.7,0-1.2,0.5-1.2,1.2V24l-0.8,4.6c-0.1,0.8,0.5,1.5,1.3,1.5h2.7
		c0.8,0,1.4-0.7,1.3-1.5L21.8,24v-1.6c0-0.7-0.5-1.2-1.2-1.2h0v-2.8l2.9,0.5v2.4c0,0.4,0.2,0.7,0.5,0.9l0,2.7V27
		c0,0.8,0.6,1.4,1.3,1.5c0.2,2,1.2,3.7,2.7,4.8v0.8l-5.1,3.3l-2.3,0.7c-2.5,0.7-4.3,3-4.3,5.7v1.7c0,0.3,0.3,0.6,0.6,0.6
		s0.6-0.3,0.6-0.6v-1.7c0-2.1,1.4-4,3.4-4.6l2.2-0.6l8.7,5.2c0.2,0.1,0.4,0.1,0.6,0l8.7-5.2l2.2,0.6c2,0.6,3.4,2.5,3.4,4.6v5.7
		c0,0.7-0.6,1.3-1.3,1.3h-2.6v-2.5c0-0.3-0.3-0.6-0.6-0.6c-0.3,0-0.6,0.3-0.6,0.6v2.5H22.4v-2.5c0-0.3-0.3-0.6-0.6-0.6
		c-0.3,0-0.6,0.3-0.6,0.6v2.5h-2.6c-0.7,0-1.3-0.6-1.3-1.3v-1.2c0-0.3-0.3-0.6-0.6-0.6s-0.6,0.3-0.6,0.6v1.2c0,1.4,1.1,2.5,2.5,2.5
		h26.7c1.4,0,2.5-1.1,2.5-2.5v-5.7C47.8,41.2,46.1,38.9,43.5,38.1 M21.3,29h-2.7c-0.1,0-0.1-0.1-0.1-0.2l0.7-4.2h1.5l0.7,4.2
		C21.4,28.9,21.3,29,21.3,29 M20.6,22.4v1h-1.3v-1c0,0,0,0,0,0L20.6,22.4C20.6,22.4,20.6,22.4,20.6,22.4 M29.9,41.2l0.2,0.4l-6-3.6
		l3.8-2.5C28.1,37.5,28.8,39.4,29.9,41.2 M29.9,38.6c1.4,0.2,2.8,0.2,4.2,0c-0.3,0.7-0.6,1.3-1,1.9L32,42.2l-1.1-1.7
		C30.5,39.9,30.2,39.3,29.9,38.6 M34.1,41.2c1.1-1.7,1.8-3.7,2-5.7l3.8,2.5l-6,3.6L34.1,41.2z M37.5,22.5h1.4v1.9h-0.7
		c-0.4,0-0.7-0.3-0.7-0.7L37.5,22.5L37.5,22.5z M20.1,17L32,13.2c0,0,0,0,0,0L43.9,17c0,0,0.1,0,0.1,0.1c0,0.1,0,0.1-0.1,0.1
		L40,17.8l-1.5-0.2c-0.3,0-0.6,0.2-0.7,0.5c0,0.3,0.2,0.6,0.5,0.7l1,0.1v2.4l-14.8,0v-2.4l6.1-0.8c0.9-0.1,1.8-0.1,2.7,0l2.3,0.3
		c0.3,0,0.6-0.2,0.7-0.5c0-0.3-0.2-0.6-0.5-0.7L33.5,17c-1-0.1-2-0.1-2.9,0L24,17.8l-3.9-0.7C20.1,17.1,20,17.1,20.1,17
		C20,17,20.1,17,20.1,17 M25.1,24.3l0-1.9h1.4v1.2c0,0.4-0.3,0.7-0.7,0.7L25.1,24.3L25.1,24.3z M26.4,28.3c0-0.5-0.4-0.9-0.9-0.9
		c-0.2,0-0.4-0.2-0.4-0.4v-1.5h0.7c1,0,1.9-0.8,1.9-1.9v-1.2h8.7v1.2c0,1,0.8,1.9,1.9,1.9h0.7V27c0,0.2-0.2,0.4-0.4,0.4
		c-0.5,0-0.9,0.4-0.9,0.9c-0.2,3-2.7,5.3-5.6,5.3S26.6,31.2,26.4,28.3 M32,34.7c1,0,2-0.2,2.9-0.7v0.4c0,1-0.1,2-0.4,2.9
		c-1.6,0.3-3.4,0.3-5,0c-0.3-1-0.4-1.9-0.4-2.9c0,0,0,0,0,0c0,0,0,0,0,0v-0.3C30,34.5,31,34.7,32,34.7"/>
</g>
</svg>
