<?xml version="1.0" encoding="utf-8"?>
<!-- Generator: Adobe Illustrator 22.0.0, SVG Export Plug-In . SVG Version: 6.00 Build 0)  -->
<svg version="1.1" id="Capa_1" xmlns="http://www.w3.org/2000/svg" xmlns:xlink="http://www.w3.org/1999/xlink" x="0px" y="0px"
	 viewBox="0 0 14 74" style="enable-background:new 0 0 14 74;" xml:space="preserve">
<style type="text/css">
	.st0{fill-rule:evenodd;clip-rule:evenodd;fill:#FFFFFF;}
</style>
<g>
	<g>
		<path class="st0" d="M7,30c-3.9,0-7,3.1-7,7s3.1,7,7,7c3.9,0,7-3.1,7-7S10.9,30,7,30z M6,74h2V50H6V74z M12,65h2V50h-2V65z M0,65
			h2V50H0V65z M8,0H6v24h2V0z M12,9v15h2V9H12z M2,9H0v15h2V9z"/>
	</g>
</g>
</svg>
