<?xml version="1.0" encoding="utf-8"?>
<!-- Generator: Adobe Illustrator 22.0.0, SVG Export Plug-In . SVG Version: 6.00 Build 0)  -->
<svg version="1.1" id="Layer_1" xmlns="http://www.w3.org/2000/svg" xmlns:xlink="http://www.w3.org/1999/xlink" x="0px" y="0px"
	 viewBox="0 0 74 14" style="enable-background:new 0 0 74 14;" xml:space="preserve">
<style type="text/css">
	.st0{fill-rule:evenodd;clip-rule:evenodd;fill:#FFFFFF;}
</style>
<g>
	<g>
		<path class="st0" d="M50,6v2h24V6H50z M65,0H50v2h15V0z M50,14h15v-2H50V14z M0,8h24V6H0V8z M9,2h15V0H9V2z M9,14h15v-2H9V14z
			 M37,0c-3.9,0-7,3.1-7,7c0,3.9,3.1,7,7,7c3.9,0,7-3.1,7-7C44,3.1,40.9,0,37,0z"/>
	</g>
</g>
</svg>
