<?xml version="1.0" encoding="utf-8"?>
<!-- Generator: Adobe Illustrator 22.0.0, SVG Export Plug-In . SVG Version: 6.00 Build 0)  -->
<svg version="1.1" id="Capa_1" xmlns="http://www.w3.org/2000/svg" xmlns:xlink="http://www.w3.org/1999/xlink" x="0px" y="0px"
	 viewBox="0 0 74 14" style="enable-background:new 0 0 74 14;" xml:space="preserve">
<style type="text/css">
	.st0{fill-rule:evenodd;clip-rule:evenodd;fill:#004C8A;}
	.st1{fill-rule:evenodd;clip-rule:evenodd;fill:#60A727;}
</style>
<g>
	<g>
		<path class="st0" d="M36.8,0c-3.9,0-7,3-7,6.8c0,3.8,3.1,6.8,7,6.8c3.9,0,7-3,7-6.8C43.8,3.1,40.6,0,36.8,0z"/>
	</g>
</g>
<path class="st1" d="M50,6h24v2H50V6z"/>
<path class="st1" d="M50,0h15v2H50V0z"/>
<path class="st1" d="M50,12h15v2H50V12z"/>
<path class="st1" d="M0,6h24v2H0V6z"/>
<path class="st1" d="M9,0h15v2H9V0z"/>
<path class="st1" d="M9,12h15v2H9V12z"/>
</svg>
