<?xml version="1.0" encoding="utf-8"?>
<!-- Generator: Adobe Illustrator 22.0.0, SVG Export Plug-In . SVG Version: 6.00 Build 0)  -->
<svg version="1.1" id="Layer_1" focusable="false" xmlns="http://www.w3.org/2000/svg" xmlns:xlink="http://www.w3.org/1999/xlink"
	 x="0px" y="0px" viewBox="0 0 28 32" style="enable-background:new 0 0 28 32;" xml:space="preserve">
<style type="text/css">
	.st0{fill:#FFFFFF;}
</style>
<path class="st0" d="M28,32c0,0-4.7-1.9-8.5-3.3h-16C1.5,28.7,0,27,0,25V3.6C0,1.6,1.5,0,3.4,0h21.1C26.5,0,28,1.6,28,3.6V22h0V32z
	 M23.9,20c-0.3-0.4-0.9-0.5-1.3-0.1c0,0-3,2.7-8.6,2.7c-5.5,0-8.5-2.6-8.6-2.7c-0.4-0.3-1-0.3-1.3,0.1c-0.2,0.2-0.2,0.5-0.2,0.7
	c0,0.3,0.1,0.5,0.3,0.7c0.1,0.1,3.5,3.1,9.8,3.1c6.2,0,9.6-3,9.8-3.1c0.2-0.2,0.3-0.4,0.3-0.7C24.1,20.5,24,20.2,23.9,20z"/>
</svg>
