<?xml version="1.0" encoding="utf-8"?>
<!-- Generator: Adobe Illustrator 22.0.0, SVG Export Plug-In . SVG Version: 6.00 Build 0)  -->
<svg version="1.1" id="Capa_1" xmlns="http://www.w3.org/2000/svg" xmlns:xlink="http://www.w3.org/1999/xlink" x="0px" y="0px"
	 viewBox="0 0 612 612" style="enable-background:new 0 0 612 612;" xml:space="preserve">
<style type="text/css">
	.st0{fill:#FFFFFF;}
</style>
<g>
	<g id="_x34__12_">
		<g>
			<path class="st0" d="M0,227.1V385c0,21.8,17.7,39.5,39.5,39.5h59.2V187.6H39.5C17.7,187.6,0,205.2,0,227.1z M493.5,306
				c0-69.6-51.6-126.5-118.5-136.2v39.5c45.1,9.1,79,49,79,96.7s-33.9,87.6-79,96.7v39.5C442,432.6,493.5,375.6,493.5,306z
				 M276.4,69.1l-138.2,92.1v289.6l138.2,92.1c21.8,0,39.5-17.7,39.5-39.5V108.6C315.9,86.8,298.2,69.1,276.4,69.1z M375.1,29.9
				v40.5C491,92.8,572.5,187.3,572.5,306c0,118-79,209.4-197.4,235.5v40.5C508.9,562.5,612,447,612,306
				C612,165,508.9,49.5,375.1,29.9z"/>
		</g>
	</g>
</g>
</svg>
