<?xml version="1.0" encoding="utf-8"?>
<!-- Generator: Adobe Illustrator 22.0.0, SVG Export Plug-In . SVG Version: 6.00 Build 0)  -->
<svg version="1.1" id="Layer_1" xmlns="http://www.w3.org/2000/svg" xmlns:xlink="http://www.w3.org/1999/xlink" x="0px" y="0px"
	 viewBox="0 0 37.9 13.9" style="enable-background:new 0 0 37.9 13.9;" xml:space="preserve">
<style type="text/css">
	.st0{fill:#FFFFFF;}
	.st1{fill:#FFCC29;}
	.st2{fill:none;}
</style>
<g>
	<path class="st0" d="M32.2,9.8c0,0.1,0,0.9,0,0.9h0.2c0-0.1,0-0.7,0-0.8c0.2-0.1,0.4,0,0.4,0.2c0,0.1,0,0.6,0,0.6H33
		c0,0,0-0.5,0-0.6c0-0.1,0-0.1,0-0.2c0.2-0.1,0.4,0,0.4,0.2c0,0.1,0,0.6,0,0.7l0.2,0c0-0.2,0-0.4,0-0.7c0-0.3-0.3-0.4-0.6-0.4
		c0,0-0.1,0-0.1,0c-0.1,0-0.1-0.1-0.4,0c0,0-0.1,0-0.1,0C32.3,9.8,32.3,9.8,32.2,9.8C32.2,9.8,32.2,9.8,32.2,9.8L32.2,9.8z"/>
	<path class="st0" d="M31.5,9.9c0.4-0.1,0.5,0.6,0.1,0.7c-0.2,0-0.3-0.1-0.4-0.3C31.2,10.1,31.3,10,31.5,9.9z M31.4,9.7
		c-0.3,0-0.4,0.3-0.4,0.6c0,0.2,0.1,0.3,0.2,0.3c0.3,0.2,0.9,0,0.8-0.5C32,9.9,31.8,9.7,31.4,9.7z"/>
	<path class="st0" d="M34.9,10.6c-0.1,0-0.2,0-0.3,0c-0.1,0-0.2-0.1-0.2-0.2c0-0.1,0.1-0.2,0.2-0.2c0.1,0,0.2,0,0.3,0V10.6
		L34.9,10.6z M34.3,9.8l0.1,0.1c0.2-0.1,0.5-0.1,0.5,0.2c-0.2,0-0.3,0-0.5,0c-0.1,0.1-0.2,0.2-0.1,0.4c0.1,0.4,0.8,0.2,0.8,0.1
		c0-0.1,0-0.3,0-0.4c0-0.2,0-0.3-0.1-0.4c-0.1-0.1-0.1-0.1-0.3-0.2C34.6,9.7,34.5,9.8,34.3,9.8L34.3,9.8z"/>
	<path class="st0" d="M35.3,9.8c0,0.1,0,0.3,0,0.5c0,0.2,0,0.4,0.2,0.5c0.2,0.2,0.5,0,0.7,0v-1l-0.2,0l0,0.8
		c-0.2,0.1-0.4,0.1-0.5-0.1c0-0.1,0-0.5,0-0.7L35.3,9.8L35.3,9.8z"/>
	<path class="st0" d="M30.9,10.6c0,0-0.1-0.1-0.1-0.1c-0.3,0.2-0.5,0-0.5-0.3c0-0.2,0.1-0.3,0.2-0.3c0.2-0.1,0.3,0.1,0.4,0.1
		l0.1-0.1c-0.1-0.1-0.4-0.2-0.6-0.1c-0.4,0.2-0.4,0.8,0,1c0.1,0,0.2,0.1,0.3,0C30.8,10.8,30.9,10.7,30.9,10.6L30.9,10.6z"/>
	<path class="st0" d="M33.9,10.5c-0.1,0-0.1,0.1-0.1,0.1c0,0.1,0.1,0.1,0.1,0.1C34.1,10.7,34,10.5,33.9,10.5L33.9,10.5z"/>
	<path class="st0" d="M29.7,10.5c-0.2,0-0.1,0.3,0.1,0.2c0.1,0,0.1-0.1,0.1-0.1C29.8,10.6,29.8,10.5,29.7,10.5z"/>
</g>
<path class="st0" d="M22,5.8l0,3.5h0.7l0-3C23.4,6,24,6.2,24.1,7c0,0.7,0,1.6,0,2.3l0.7,0c0.1-0.4,0-1.1,0-1.5c0-0.6,0-0.9-0.1-1.4
	c-0.2-0.4-0.5-0.6-0.7-0.7c-0.3-0.1-0.7-0.2-1-0.1C22.5,5.5,22.2,5.7,22,5.8L22,5.8z M24.9,6.2c0.5-0.2,1.1,0,1.2,0.7
	c0.1,0.5,0,2,0,2.4l0.7,0c0-0.2,0-2.1,0-2.4c0-1.3-1.3-1.7-2.4-1.3C24.6,5.8,24.8,5.9,24.9,6.2L24.9,6.2z"/>
<path class="st0" d="M34.1,7l-2,0c0-0.5,0.4-0.9,1-1C33.6,6.1,34.1,6.5,34.1,7L34.1,7z M34.4,9c0-0.1-0.3-0.5-0.3-0.5
	c-0.4,0.2-0.8,0.4-1.4,0.1c-0.4-0.2-0.6-0.5-0.7-1c0.4,0,2.6,0.1,2.8,0c0.1-0.4-0.1-1.7-1.2-2c-0.8-0.2-1.8,0.1-2.2,1
	c-0.6,1.5,0.4,3.3,2.4,2.8C34.1,9.2,34.2,9,34.4,9L34.4,9z"/>
<path class="st1" d="M14.9,7c0-0.3,0.2-0.5,0.3-0.7C15.9,5.8,16.9,6.2,17,7L14.9,7L14.9,7z M17.3,9c0-0.1-0.3-0.5-0.3-0.5
	c-0.4,0.1-0.8,0.4-1.4,0.1c-0.4-0.2-0.6-0.5-0.7-1.1l2.8,0c0.1-0.5-0.1-1-0.3-1.3c-0.2-0.3-0.5-0.6-0.9-0.7c-0.8-0.3-1.8,0.1-2.2,1
	c-0.5,1.1,0,2.8,1.7,2.9C16.8,9.3,17,9.1,17.3,9L17.3,9z"/>
<path class="st0" d="M27.4,9.9c-0.1,0.2-0.3,0.4-0.3,0.5c0.4,0.4,1.3,0.5,1.7,0.1c0.2-0.2,0.3-0.4,0.5-0.7c0.1-0.3,0.3-0.5,0.4-0.8
	c0.5-1,1.1-2.3,1.3-3.6l-0.7,0c-0.1,0.1-0.1,0.7-0.2,0.9c-0.1,0.5-0.6,1.9-0.9,2.2l-0.1-0.2c-0.4-0.8-0.9-1.8-1-2.7
	c0-0.3,0-0.2-0.7-0.2c0.1,1.6,1.6,3.6,1.5,3.9c-0.1,0.3-0.4,0.7-0.7,0.8C27.8,10.2,27.6,10,27.4,9.9z"/>
<path class="st1" d="M21.3,8.8l-0.5-0.4c-0.1,0.1-0.4,0.3-0.6,0.3c-1.5,0.4-1.9-1.9-0.8-2.5C19.7,6.1,20,6,20.3,6.1
	c0.3,0.1,0.5,0.2,0.6,0.3L21.3,6c-0.4-0.5-1.3-0.8-2.1-0.4c-1.4,0.6-1.4,3,0,3.6C20,9.5,20.9,9.2,21.3,8.8L21.3,8.8z"/>
<path class="st1" d="M11.9,4.7c0,0.2,0,2.8,0,3.2c0,0.5,0.1,0.9,0.5,1.1c0.3,0.2,0.9,0.3,1.3,0.2l0-0.6c-0.7,0.1-1.1,0-1.1-0.7
	c0-0.6,0-1.3,0-1.8l0.9,0l0.1-0.6l-1,0l0-0.8L11.9,4.7L11.9,4.7z"/>
<path class="st0" d="M35.5,9.3l0.7,0l0-2.4c0-0.3,0.3-0.6,0.5-0.7c0.4-0.2,0.8,0,1.1,0l0.2-0.6c-1-0.4-1.9-0.1-2.3,0.6
	c-0.2,0.4-0.2,1-0.2,1.5L35.5,9.3L35.5,9.3z"/>
<g>
	<path class="st1" d="M5.3,3.8c1.1,0,3.1,2,3.1,3.1s-2,3.1-3.1,3.1S2.2,8.1,2.2,7S4.2,3.8,5.3,3.8 M5.3,2.8C3.6,2.8,1.2,5.3,1.2,7
		c0,1.7,2.4,4.1,4.1,4.1C7,11.1,9.4,8.7,9.4,7C9.4,5.3,7,2.8,5.3,2.8L5.3,2.8z"/>
</g>
<path class="st1" d="M2.1,10L2.1,10c0,0.4-0.6,1.1-1.1,1.1l0,0C0.6,11.1,0,10.4,0,10l0,0c0-0.4,0.6-1.1,1.1-1.1l0,0
	C1.5,8.9,2.1,9.6,2.1,10z"/>
<rect y="0" class="st2" width="37.9" height="13.9"/>
</svg>
